<?xml version="1.0" encoding="UTF-8"?>
<svg width="290px" height="220px" viewBox="0 0 290 220" version="1.1" xmlns="http://www.w3.org/2000/svg" xmlns:xlink="http://www.w3.org/1999/xlink">
    <!-- Generator: Sketch 52.6 (67491) - http://www.bohemiancoding.com/sketch -->
    <title>Illustration / Embedded computing</title>
    <desc>Created with Sketch.</desc>
    <g id="Illustration-/-Embedded-computing" stroke="none" stroke-width="1" fill="none" fill-rule="evenodd">
        <g id="Group-2" transform="translate(9.000000, 11.000000)">
            <path d="M127.5,0 L127.5,67" id="Path" stroke="#FFAF00" stroke-dasharray="4,4"></path>
            <g id="Group" opacity="0.44" transform="translate(0.000000, 46.000000)" fill="#091B53">
                <path d="M242.849191,88.6366379 L242.849191,108.824008 L242.849191,112.204219 C242.849191,112.204219 242.75477,112.767587 242.377089,113.049271 L242.093828,113.237061 L222.26555,124.50443 C221.793448,124.786114 221.132506,124.786114 220.660404,124.50443 L170.806449,97.744428 C170.428767,97.5566385 170.145506,97.1810596 170.051086,96.7115859" id="Path"></path>
                <g id="Path">
                    <path d="M270.325518,71.4538998 L270.325518,91.6412697 L270.325518,95.0214805 C270.325518,95.0214805 270.231098,95.5848489 269.853417,95.8665332 L269.570155,96.0543227 L249.741878,107.321692 C249.269776,107.603376 248.608833,107.603376 248.136732,107.321692 L198.282776,80.56169 C197.905095,80.3739005 197.621834,79.9983215 197.527413,79.5288478"></path>
                    <path d="M216.694748,103.565902 L216.694748,123.753272 L216.694748,127.133483 C216.694748,127.133483 216.600328,127.696851 216.222647,127.978535 L215.939385,128.166325 L189.02958,144.597905 C188.557478,144.879589 187.896536,144.879589 187.424434,144.597905 L137.570479,117.837903 C137.192797,117.650114 136.909536,117.274535 136.815116,116.805061"></path>
                    <path d="M164.574704,151.358327 L2.92703146,61.1254781 C-0.377681479,59.3414779 -0.377681479,54.6467407 2.83261109,52.7688459 L90.5491345,1.5023159 C92.0598604,0.657263205 93.8538475,0.657263205 95.3645734,1.5023159 L257.012246,91.7351644 C260.316959,93.5191646 260.316959,98.2139018 257.106667,100.091797 L169.390143,151.358327 C167.973838,152.203379 166.08543,152.203379 164.574704,151.358327 Z"></path>
                </g>
            </g>
            <path d="M97.0663882,28.6374651 C98.5769356,27.7875116 100.370711,27.7875116 101.881258,28.6374651 L263.509829,119.3936 C266.814151,121.187947 266.814151,125.90991 263.604238,127.798695 L175.89808,179.362535 C174.387533,180.212488 172.593758,180.212488 171.08321,179.362535 L9.45463951,88.6063995 C7.94409212,87.7564461 7.18881842,86.3398571 7,84.8288288 L7,78.5013979" id="Path" stroke="#FFAF00"></path>
            <path d="M171.09623,175.362535 L9.48982967,84.6063995 C6.1859605,82.8120534 6.1859605,78.0900901 9.3954334,76.2013048 L97.0895607,24.6374651 C98.5999009,23.7875116 100.39343,23.7875116 101.90377,24.6374651 L263.51017,115.3936 C266.814039,117.187947 266.814039,121.90991 263.604567,123.798695 L176.004836,175.362535 C174.494495,176.212488 172.60657,176.212488 171.09623,175.362535 Z" id="Path" stroke="#FFFFFF" fill="#204ECF"></path>
            <path d="M171.09623,175.362535 L9.48982967,84.6063995 C6.1859605,82.8120534 6.1859605,78.0900901 9.3954334,76.2013048 L97.0895607,24.6374651 C98.5999009,23.7875116 100.39343,23.7875116 101.90377,24.6374651 L263.51017,115.3936 C266.814039,117.187947 266.814039,121.90991 263.604567,123.798695 L176.004836,175.362535 C174.494495,176.212488 172.60657,176.212488 171.09623,175.362535 Z" id="Path" stroke="#FFFFFF" fill="#204ECF"></path>
            <ellipse id="Oval" fill="#133590" cx="99" cy="29.5" rx="4" ry="2.5"></ellipse>
            <ellipse id="Oval" fill="#133590" cx="16" cy="79.5" rx="4" ry="2.5"></ellipse>
            <path d="M127.5,0 L127.5,67" id="Path" stroke="#FFAF00" stroke-dasharray="4,4"></path>
            <g id="Group" transform="translate(197.000000, 75.000000)">
                <path d="M73.8562001,28.4373167 L73.8562001,48.7496857 L73.8562001,52.1508266 C73.8562001,52.1508266 73.7613911,52.7176834 73.3821552,53.0011118 L73.0977282,53.1900641 L53.1878412,64.5272003 C52.7137962,64.8106287 52.0501333,64.8106287 51.5760884,64.5272003 L1.51694378,37.6015018 C1.13770783,37.4125495 0.853280874,37.034645 0.758471888,36.5622643" id="Path" stroke="#FFFFFF" fill="#204ECF"></path>
                <path d="M51.3864704,41.4750233 L1.3273258,14.5493248 C0.189617972,13.8879919 0.189617972,12.2818976 1.3273258,11.7150408 L21.2372129,0.377904541 C21.7112578,0.0944761351 22.3749207,0.0944761351 22.8489656,0.377904541 L72.9081102,27.3036031 C74.0458181,27.964936 74.0458181,29.5710303 72.9081102,30.1378871 L52.9982232,41.4750233 C52.5241783,41.7584517 51.9553243,41.7584517 51.3864704,41.4750233 Z" id="Path" stroke="#FFFFFF" fill="#204ECF"></path>
                <path d="M0.47404493,12.8487544 L0.47404493,34.5782655 L0.47404493,36.4677882 C0.47404493,36.4677882 0.568853916,37.034645 0.94808986,37.3180734" id="Path" stroke="#FFFFFF" fill="#204ECF"></path>
                <polygon id="Path" fill="#133590" points="51.8605154 45.2540687 51.8605154 51.1115891 73.8562001 39.0186438 73.8562001 32.9721712"></polygon>
                <path d="M51.5760884,47.8994005 L74.0458181,35.617503" id="Path" stroke="#FFAF00"></path>
                <polygon id="Path" fill="#133590" points="51.8605154 56.1188243 51.8605154 61.9763447 73.8562001 49.8833994 73.8562001 43.8369267"></polygon>
                <path d="M51.5760884,58.7641561 L74.0458181,46.4822585" id="Path" stroke="#FFAF00"></path>
                <path d="M51.8605154,41.6639756 L51.8605154,61.9763447 L51.8605154,63.8658674 C51.8605154,63.8658674 51.9553243,64.4327242 52.3345603,64.7161526" id="Path" stroke="#FFFFFF" fill="#204ECF"></path>
            </g>
            <g id="Group" transform="translate(169.000000, 92.000000)">
                <path d="M73.7230735,28.7399563 L73.7230735,49.0659122 L73.7230735,52.4693281 C73.7230735,52.4693281 73.6283138,53.0365641 73.2492748,53.3201821 L72.9649956,53.5092607 L53.0654514,64.8539803 C52.5916527,65.1375983 51.9283346,65.1375983 51.4545359,64.8539803 L1.42139602,37.9102713 C1.04235708,37.7211926 0.758077877,37.3430353 0.663318142,36.8703387" id="Path" stroke="#FFFFFF" fill="#204ECF"></path>
                <path d="M51.2650164,41.7863838 L1.23187655,14.8426748 C0.0947597346,14.1808995 0.0947597346,12.5737309 1.23187655,12.0064949 L21.1314208,0.661775309 C21.6052195,0.37815732 22.2685376,0.37815732 22.7423363,0.661775309 L72.7754762,27.6054843 C73.912593,28.2672596 73.912593,29.8744282 72.7754762,30.4416642 L52.8759319,41.7863838 C52.4021332,42.0700018 51.8335748,42.0700018 51.2650164,41.7863838 Z" id="Path" stroke="#FFFFFF" fill="#204ECF"></path>
                <path d="M0.379038938,13.1409669 L0.379038938,34.8850127 L0.379038938,36.7757993 C0.379038938,36.7757993 0.473798673,37.3430353 0.852837611,37.6266533" id="Path" stroke="#FFFFFF" fill="#204ECF"></path>
                <polygon id="Path" fill="#133590" points="51.7388151 45.567957 51.7388151 51.4293955 73.7230735 39.3283612 73.7230735 33.2778441"></polygon>
                <path d="M51.4545359,48.3095976 L73.912593,35.9249454" id="Path" stroke="#FFAF00"></path>
                <polygon id="Path" fill="#133590" points="51.7388151 56.4399799 51.7388151 62.3014184 73.7230735 50.2003842 73.7230735 44.1498671"></polygon>
                <path d="M51.4545359,59.1816205 L73.912593,46.7969683" id="Path" stroke="#FFAF00"></path>
                <path d="M51.7388151,42.0700018 L51.7388151,62.3959577 L51.7388151,64.2867443 C51.7388151,64.2867443 51.8335748,64.8539803 52.2126138,65.1375983" id="Path" stroke="#FFFFFF" fill="#204ECF"></path>
            </g>
            <g id="Group" transform="translate(136.000000, 107.000000)" fill="#204ECF" stroke="#FFFFFF">
                <path d="M80.9006639,28.3286986 L80.9006639,48.4299204 L80.9006639,51.7957063 C80.9006639,51.7957063 80.8067026,52.3566707 80.4308575,52.6371528 L80.1489737,52.8241409 L53.3700083,69.1856005 C52.9002018,69.4660827 52.2424729,69.4660827 51.7726665,69.1856005 L2.16110949,42.5397949 C1.78526436,42.3528068 1.50338051,41.9788306 1.40941923,41.5113603" id="Path"></path>
                <path d="M51.5847439,46.4665452 L1.97318693,19.8207396 C0.845651539,19.1662812 0.845651539,17.5768823 1.97318693,17.015918 L28.7521523,0.654458383 C29.2219587,0.373976219 29.8796877,0.373976219 30.3494941,0.654458383 L79.9610511,27.300264 C81.0885865,27.9547224 81.0885865,29.5441213 79.9610511,30.1050856 L53.1820857,46.4665452 C52.7122793,46.7470274 52.0545503,46.7470274 51.5847439,46.4665452 Z" id="Path"></path>
                <path d="M1.12753539,18.1378466 L1.12753539,39.6414792 L1.12753539,41.5113603 C1.12753539,41.5113603 1.22149667,42.0723246 1.5973418,42.3528068" id="Path"></path>
                <path d="M52.0545503,46.6535333 L52.0545503,66.7547551 L52.0545503,68.6246362 C52.0545503,68.6246362 52.1485116,69.1856005 52.5243567,69.4660827" id="Path"></path>
            </g>
            <path d="M118.643564,46.7901235 L94.8465347,33.4513032 C93.7178218,32.7983539 93.7178218,31.21262 94.8465347,30.6529492 L124.757426,13.2098765 C125.227723,12.9300412 125.886139,12.9300412 126.356436,13.2098765 L150.153465,26.5486968 C151.282178,27.2016461 151.282178,28.78738 150.153465,29.3470508 L120.242574,46.7901235 C119.772277,47.0699588 119.207921,47.0699588 118.643564,46.7901235 Z" id="Path" stroke="#FFFFFF" fill="#204ECF"></path>
            <path d="M120.934978,101.786033 L98.7843049,89.2332838 C97.738565,88.6627043 97.738565,87.141159 98.7843049,86.5705795 L126.543946,70.2139673 C127.019283,69.9286776 127.589686,69.9286776 128.065022,70.2139673 L150.215695,82.7667162 C151.261435,83.3372957 151.261435,84.858841 150.215695,85.4294205 L122.456054,101.786033 C121.980717,102.071322 121.410314,102.071322 120.934978,101.786033 Z" id="Path" fill="#133590"></path>
            <path d="M118.643564,43.7901235 L94.8465347,30.4513032 C93.7178218,29.7983539 93.7178218,28.21262 94.8465347,27.6529492 L124.757426,10.2098765 C125.227723,9.93004115 125.886139,9.93004115 126.356436,10.2098765 L150.153465,23.5486968 C151.282178,24.2016461 151.282178,25.78738 150.153465,26.3470508 L120.242574,43.7901235 C119.772277,44.0699588 119.207921,44.0699588 118.643564,43.7901235 Z" id="Path" stroke="#FFFFFF" fill="#204ECF"></path>
            <g id="Group" transform="translate(89.000000, 0.000000)" stroke="#FFAF00" stroke-dasharray="4,4">
                <path d="M1.13459082,87.8719456 L32.14674,105.89938 L69.3045895,84.9460269 L37.8196941,67.4848991 L1.13459082,87.8719456 Z" id="Path"></path>
                <path d="M1.13459082,20.4814309 L32.14674,38.5088655 L69.3045895,17.5555122 L37.8196941,0.0943844743 L1.13459082,20.4814309 Z" id="Path"></path>
                <path d="M1.13459082,20.4814309 C1.13459082,23.6905031 1.13459082,87.8719456 1.13459082,87.8719456" id="Path"></path>
                <path d="M32.14674,38.5088655 L32.14674,105.89938" id="Path"></path>
                <path d="M69.3045895,84.9460269 L69.3045895,17.5555122" id="Path"></path>
            </g>
            <g id="Group" transform="translate(93.000000, 102.000000)" fill="#204ECF" stroke="#FFFFFF">
                <path d="M35.5898962,8.21441733 L35.5898962,16.8955629 L35.5898962,20.2560064 C35.5898962,20.2560064 35.4964844,20.8160803 35.1228372,21.0961172 L34.8426018,21.2828085 L16.2536534,33.4177432 C15.7865944,33.6977802 15.1327118,33.6977802 14.6656528,33.4177432 L1.77482422,26.790202 C1.40117701,26.6035107 1.12094161,26.2301281 1.02752981,25.7633998" id="Path"></path>
                <path d="M14.572241,22.0295737 L1.68141242,15.4020325 C0.560470806,14.7486129 0.560470806,13.1617369 1.68141242,12.6016629 L20.2703608,0.466728257 C20.7374198,0.186691303 21.3913024,0.186691303 21.8583614,0.466728257 L34.74919,7.09426951 C35.8701316,7.74768907 35.8701316,9.33456515 34.74919,9.89463906 L16.1602416,22.0295737 C15.6931826,22.3096107 15.0393,22.3096107 14.572241,22.0295737 Z" id="Path"></path>
                <path d="M0.840706209,13.7218108 L0.840706209,23.7097955 L0.840706209,25.5767085 C0.840706209,25.5767085 0.93411801,26.1367824 1.30776521,26.4168194" id="Path"></path>
                <path d="M15.0393,22.2162651 L15.0393,30.8974106 L15.0393,32.7643237 C15.0393,32.7643237 15.1327118,33.3243976 15.506359,33.6044345" id="Path"></path>
            </g>
            <path d="M242.5,121 L242.5,144" id="Path" stroke="#FFFFFF" fill="#204ECF"></path>
            <polygon id="Path" stroke="#FFAF00" fill="#133590" points="190 156.017422 190 167.118467 193.46988 165.04878 193.566265 167.494774 195.686747 166.271777 195.590361 169 209.180723 161.379791 209.180723 158.557491 210.915663 157.522648 210.915663 154.982578 213.903614 153.571429 214 142"></polygon>
            <path d="M100.642857,136 C99.6688312,136 98.6948052,135.817073 97.7207792,135.359756 C93.9220779,133.896341 91,129.871951 91,126.304878 C91,123.195122 93.2402597,121 96.3571429,121 C97.3311688,121 98.3051948,121.182927 99.2792208,121.640244 C103.077922,123.103659 106,127.128049 106,130.695122 C106,132.25 105.512987,133.530488 104.538961,134.536585 C103.564935,135.45122 102.103896,136 100.642857,136 C100.642857,136 100.642857,136 100.642857,136 Z" id="Path" stroke="#FFAF00" fill="#133590"></path>
            <path d="M99.6428571,137 C98.6688312,137 97.6948052,136.817073 96.7207792,136.359756 C92.9220779,134.896341 90,130.871951 90,127.304878 C90,124.195122 92.2402597,122 95.3571429,122 C96.3311688,122 97.3051948,122.182927 98.2792208,122.640244 C102.077922,124.103659 105,128.128049 105,131.695122 C105,133.25 104.512987,134.530488 103.538961,135.536585 C102.564935,136.45122 101.201299,137 99.6428571,137 C99.6428571,137 99.6428571,137 99.6428571,137 Z" id="Path" stroke="#FFAF00" fill="#133590"></path>
            <ellipse id="Oval" stroke="#FFAF00" stroke-width="0.999996325" fill="#133590" transform="translate(97.177088, 129.535455) rotate(-39.672789) translate(-97.177088, -129.535455) " cx="97.1770881" cy="129.535455" rx="4.24371096" ry="6.50335678"></ellipse>
            <circle id="Oval" fill="#FFAF00" cx="90" cy="20" r="3"></circle>
            <circle id="Oval" fill="#FFAF00" cx="158" cy="17" r="3"></circle>
            <circle id="Oval" fill="#FFAF00" cx="121" cy="38" r="3"></circle>
            <circle id="Oval" fill="#FFAF00" cx="90" cy="88" r="3"></circle>
            <circle id="Oval" fill="#FFAF00" cx="158" cy="84" r="3"></circle>
            <g id="Group" transform="translate(55.000000, 80.000000)">
                <g fill="#204ECF" id="Path" stroke="#FFFFFF">
                    <polyline stroke-linejoin="bevel" points="22.9183823 26.6661072 22.9183823 35.0227393 22.9183823 35.3044236 43.667535 22.4408437 43.7618493 22.1591595 43.7618493 19.2484224 43.7618493 13.2391588"></polyline>
                    <path d="M22.541125,27.1355809 L1.32040063,15.8682117 C0.188628661,15.2109485 0.188628661,13.6147378 1.32040063,13.0513694 L20.0889524,0.845052692 C20.560524,0.563368461 21.2207243,0.563368461 21.692296,0.845052692 L42.9130204,12.1124219 C44.0447923,12.7696851 44.0447923,14.3658958 42.9130204,14.9292642 L24.1444686,27.1355809 C23.6728969,27.4172651 23.0126966,27.4172651 22.541125,27.1355809 Z"></path>
                    <path d="M0.471571652,14.1781063 L0.471571652,23.1920017"></path>
                </g>
                <polygon id="Path" stroke="#FFFFFF" fill="#204ECF" points="0.471571652 15.3987379 0.471571652 23.4736859 2.1692296 25.7271597 2.73511558 28.0745283 11.694977 32.8631602 20.6548384 37.6517922 21.2207243 35.867792 22.9183823 35.3983183 22.9183823 27.3233704"></polygon>
                <polygon id="Path" stroke="#FFAF00" fill="#133590" points="4.81003085 27.3233704 4.43277353 25.0698965 2.82942991 23.0981069 2.82942991 19.4362119 20.560524 28.7317915 20.560524 33.1448445 19.3344377 33.8021077 19.2401234 34.9288446"></polygon>
            </g>
            <g id="Group" transform="translate(14.000000, 71.000000)">
                <g fill="#204ECF" id="Path" stroke="#FFFFFF">
                    <polyline stroke-linejoin="bevel" points="15.3456561 17.0112946 15.3456561 22.4282991 15.3456561 22.6183694 28.7850195 14.2552748 28.8803341 14.0652045 28.8803341 12.1645012 28.8803341 8.2680594"></polyline>
                    <path d="M15.0597122,17.2964001 L1.33440488,9.97869238 C0.571887804,9.59855172 0.571887804,8.5531649 1.33440488,8.07798907 L13.534678,0.190070331 C13.8206219,-6.9388939e-18 14.2971951,-6.9388939e-18 14.583139,0.190070331 L28.3084463,7.50777808 C29.0709634,7.88791874 29.0709634,8.93330556 28.3084463,9.40848139 L16.1081731,17.2964001 C15.8222292,17.4864705 15.4409707,17.4864705 15.0597122,17.2964001 Z"></path>
                    <path d="M0.762517072,8.93330556 L0.762517072,14.7304507"></path>
                </g>
                <polygon id="Path" stroke="#FFFFFF" fill="#204ECF" points="0.762517072 9.69358688 0.762517072 14.920521 1.90629268 16.3460485 2.19223658 17.8666111 8.10174389 21.0027716 13.9159366 24.138932 14.2971951 22.9985101 15.3456561 22.7134046 15.3456561 17.3914353"></polygon>
                <polygon id="Path" stroke="#FFAF00" fill="#133590" points="3.62195609 17.3914353 3.33601219 15.9659078 2.38286585 14.6354155 2.38286585 12.2595364 13.8206219 18.3417869 13.8206219 21.1928419 13.0581049 21.6680177 12.9627902 22.4282991"></polygon>
            </g>
            <ellipse id="Oval" fill="#133590" cx="127" cy="140.5" rx="4" ry="2.5"></ellipse>
        </g>
        <ellipse id="Oval" fill="#FFAF00" cx="136.056642" cy="5.06393374" rx="3.05664171" ry="3.06393374"></ellipse>
    </g>
</svg>