<svg id="svg" version="1.1" xmlns="http://www.w3.org/2000/svg" xmlns:xlink="http://www.w3.org/1999/xlink" width="400" height="400" viewBox="0, 0, 400,400"><g id="svgg"><path id="path0" d="M66.876 255.500 C 64.842 260.811,65.892 302.734,68.145 306.173 C 68.469 306.667,68.946 307.866,69.205 308.836 C 70.508 313.724,80.447 324.000,83.872 324.000 C 84.101 324.000,84.940 324.442,85.736 324.982 C 86.532 325.523,87.936 326.167,88.856 326.415 C 89.775 326.663,90.906 327.113,91.369 327.417 C 91.832 327.720,93.378 328.256,94.805 328.608 C 96.232 328.960,98.054 329.497,98.853 329.802 C 99.653 330.107,102.263 330.563,104.653 330.815 C 107.044 331.068,110.080 331.531,111.400 331.845 C 112.946 332.212,118.285 332.563,126.400 332.831 C 133.330 333.060,139.570 333.398,140.266 333.582 C 141.418 333.887,141.639 333.784,142.707 332.458 C 143.352 331.656,145.065 330.014,146.514 328.809 C 148.403 327.236,149.035 326.483,148.750 326.140 C 148.219 325.501,147.773 325.978,168.479 305.061 C 178.312 295.127,188.707 284.622,191.579 281.716 C 196.247 276.993,198.040 274.400,196.638 274.400 C 195.237 274.400,184.837 273.033,183.206 272.634 C 181.993 272.337,179.110 271.875,176.800 271.606 C 174.490 271.338,171.524 270.860,170.209 270.544 C 168.894 270.228,165.258 269.701,162.128 269.372 C 158.998 269.044,155.844 268.530,155.118 268.232 C 154.393 267.934,151.550 267.476,148.800 267.215 C 146.050 266.954,142.720 266.493,141.400 266.191 C 137.525 265.304,134.809 264.867,131.400 264.584 C 129.640 264.437,127.480 264.080,126.600 263.790 C 125.720 263.499,123.740 263.146,122.200 263.005 C 117.126 262.539,113.044 261.945,112.344 261.570 C 111.964 261.367,108.716 260.855,105.127 260.434 C 101.537 260.012,98.150 259.500,97.600 259.297 C 97.050 259.094,94.710 258.704,92.400 258.432 C 90.090 258.159,86.940 257.682,85.400 257.372 C 83.860 257.062,80.080 256.526,77.000 256.180 C 73.920 255.834,70.721 255.292,69.892 254.975 C 67.783 254.171,67.356 254.245,66.876 255.500 " stroke="none" fill="#f34d00" fill-rule="evenodd"></path><path id="path1" d="M68.775 141.972 C 68.212 142.147,66.213 143.800,64.333 145.645 C 62.453 147.490,57.079 152.690,52.391 157.200 C 29.611 179.111,26.146 187.911,32.790 206.971 C 34.070 210.643,37.721 218.010,39.178 219.863 C 39.630 220.438,40.000 221.132,40.000 221.405 C 40.000 221.678,40.288 222.141,40.641 222.434 C 40.993 222.726,41.866 223.873,42.582 224.983 C 43.913 227.047,51.312 235.936,54.451 239.241 C 55.413 240.254,57.550 242.583,59.200 244.416 C 60.850 246.250,62.830 248.433,63.600 249.267 L 65.000 250.783 106.279 250.892 C 135.357 250.968,147.686 250.873,147.990 250.569 C 148.701 249.860,146.288 246.159,136.800 233.403 C 136.250 232.664,135.170 231.140,134.400 230.017 C 133.630 228.894,132.274 227.036,131.387 225.888 C 130.501 224.740,129.478 223.350,129.115 222.800 C 128.753 222.250,127.727 220.810,126.836 219.600 C 125.945 218.390,124.318 216.140,123.220 214.600 C 122.121 213.060,120.723 211.130,120.111 210.312 C 119.500 209.494,118.212 207.694,117.249 206.312 C 116.286 204.930,115.136 203.402,114.694 202.915 C 114.251 202.428,113.689 201.679,113.444 201.250 C 113.200 200.821,112.073 199.150,110.939 197.535 C 108.961 194.717,108.026 193.447,105.400 190.011 C 104.740 189.147,103.300 187.160,102.200 185.595 C 98.941 180.960,97.341 178.729,95.606 176.400 C 94.231 174.554,91.171 170.323,88.099 166.020 C 87.715 165.482,86.858 164.312,86.196 163.420 C 85.534 162.529,84.684 161.350,84.308 160.800 C 83.932 160.250,83.088 159.080,82.433 158.200 C 81.778 157.320,80.695 155.831,80.028 154.891 C 79.361 153.952,78.621 152.962,78.384 152.691 C 77.334 151.496,73.202 145.361,73.201 144.996 C 73.200 144.774,72.853 144.376,72.430 144.111 C 72.006 143.847,71.601 143.219,71.530 142.715 C 71.387 141.708,70.446 141.454,68.775 141.972 M65.784 254.162 C 63.217 256.039,64.793 304.236,67.537 307.751 C 67.730 307.998,68.223 309.100,68.633 310.200 C 69.968 313.784,73.779 318.504,77.614 321.325 C 79.415 322.650,82.967 324.800,83.355 324.800 C 83.565 324.800,84.025 325.061,84.378 325.380 C 85.211 326.134,90.316 328.281,93.495 329.214 C 94.867 329.617,96.175 330.061,96.401 330.201 C 96.827 330.464,105.588 332.175,109.800 332.818 C 111.120 333.020,117.240 333.366,123.400 333.588 C 129.560 333.810,136.201 334.109,138.158 334.252 C 140.669 334.436,141.638 334.385,141.449 334.079 C 141.036 333.411,138.743 333.224,125.800 332.802 C 118.148 332.553,112.930 332.206,111.400 331.843 C 110.080 331.530,107.044 331.068,104.653 330.815 C 102.263 330.563,99.653 330.107,98.853 329.802 C 98.054 329.497,96.232 328.960,94.805 328.608 C 93.378 328.256,91.832 327.720,91.369 327.417 C 90.906 327.113,89.775 326.663,88.856 326.415 C 87.936 326.167,86.532 325.523,85.736 324.982 C 84.940 324.442,84.101 324.000,83.872 324.000 C 80.447 324.000,70.508 313.724,69.205 308.836 C 68.946 307.866,68.469 306.667,68.145 306.172 C 66.335 303.411,65.288 285.407,65.970 268.800 C 66.613 253.149,66.425 253.852,69.679 254.909 C 70.846 255.287,74.140 255.854,77.000 256.168 C 79.860 256.482,83.550 257.009,85.200 257.339 C 86.850 257.668,90.090 258.161,92.400 258.433 C 94.710 258.705,97.050 259.094,97.600 259.297 C 98.150 259.500,101.537 260.012,105.127 260.434 C 108.716 260.855,111.964 261.367,112.344 261.570 C 113.044 261.945,117.126 262.539,122.200 263.005 C 123.740 263.146,125.720 263.499,126.600 263.790 C 127.480 264.080,129.640 264.437,131.400 264.584 C 134.809 264.867,137.525 265.304,141.400 266.191 C 142.720 266.493,146.050 266.954,148.800 267.215 C 151.550 267.476,154.393 267.934,155.118 268.232 C 155.844 268.530,158.998 269.044,162.128 269.372 C 165.258 269.701,168.894 270.228,170.209 270.544 C 171.524 270.860,174.490 271.338,176.800 271.606 C 179.110 271.875,181.993 272.337,183.206 272.634 C 184.837 273.033,195.237 274.400,196.638 274.400 C 198.040 274.400,196.247 276.993,191.579 281.716 C 188.707 284.622,178.312 295.127,168.479 305.061 C 148.622 325.120,148.279 325.481,148.612 326.019 C 148.959 326.581,150.017 326.483,149.900 325.900 C 149.845 325.625,150.070 325.400,150.400 325.400 C 151.197 325.400,152.113 324.506,151.812 324.020 C 151.516 323.541,151.633 323.419,177.004 297.828 C 189.463 285.261,197.994 276.351,198.271 275.618 C 198.895 273.963,198.487 273.783,192.363 273.024 C 189.634 272.686,186.770 272.225,186.000 272.000 C 185.230 271.776,182.440 271.325,179.800 270.998 C 177.160 270.672,173.650 270.142,172.000 269.820 C 170.350 269.499,167.290 269.040,165.200 268.801 C 163.110 268.561,160.267 268.104,158.883 267.784 C 157.499 267.465,153.989 266.929,151.083 266.594 C 148.177 266.258,144.900 265.729,143.800 265.418 C 142.700 265.107,139.910 264.649,137.600 264.401 C 135.290 264.152,131.690 263.615,129.600 263.208 C 127.510 262.800,124.450 262.346,122.800 262.197 C 121.150 262.049,118.270 261.597,116.400 261.192 C 114.530 260.788,110.570 260.174,107.600 259.828 C 104.630 259.481,101.210 258.939,100.000 258.623 C 98.790 258.306,96.000 257.852,93.800 257.614 C 91.600 257.375,87.910 256.840,85.600 256.425 C 83.290 256.009,79.780 255.457,77.800 255.199 C 75.820 254.940,73.184 254.474,71.942 254.164 C 69.068 253.446,66.764 253.445,65.784 254.162 " stroke="none" fill="#f9ac00" fill-rule="evenodd"></path><path id="path2" d="M107.006 64.422 C 105.029 64.629,102.599 65.067,101.606 65.397 C 100.613 65.726,98.767 66.263,97.504 66.591 C 92.719 67.834,87.772 71.327,84.326 75.895 C 82.284 78.601,80.000 82.135,80.000 82.588 C 80.000 82.763,79.595 83.553,79.100 84.345 C 77.158 87.452,73.852 97.611,73.198 102.481 C 72.952 104.306,72.484 107.330,72.157 109.200 C 71.598 112.393,71.197 118.568,70.597 133.200 L 70.343 139.400 86.472 155.646 C 95.342 164.582,108.273 177.651,115.206 184.690 C 130.478 200.194,129.663 199.933,130.998 189.750 C 131.324 187.268,131.934 183.654,132.356 181.719 C 132.777 179.784,133.321 176.444,133.565 174.299 C 133.808 172.153,134.347 168.913,134.761 167.099 C 135.176 165.284,135.639 162.540,135.790 161.000 C 135.941 159.460,136.393 156.670,136.796 154.800 C 137.198 152.930,137.650 150.230,137.800 148.800 C 137.950 147.370,138.405 144.670,138.812 142.800 C 139.219 140.930,139.827 137.285,140.165 134.700 C 140.502 132.115,141.040 128.965,141.361 127.700 C 141.681 126.435,142.153 123.600,142.410 121.400 C 142.668 119.200,143.116 116.410,143.408 115.200 C 143.699 113.990,144.141 111.290,144.390 109.200 C 144.639 107.110,145.180 103.960,145.593 102.200 C 146.006 100.440,146.551 97.200,146.805 95.000 C 147.058 92.800,147.593 89.560,147.992 87.800 C 148.392 86.040,148.931 82.710,149.190 80.400 C 149.449 78.090,149.905 75.750,150.203 75.200 C 151.604 72.614,151.940 71.454,152.203 68.304 L 152.485 64.914 150.543 64.667 C 147.138 64.235,110.757 64.030,107.006 64.422 " stroke="none" fill="#a4ea00" fill-rule="evenodd"></path><path id="path3" d="M204.200 30.004 C 199.534 31.255,196.894 32.065,196.235 32.445 C 195.815 32.689,194.502 33.221,193.318 33.628 C 192.135 34.035,190.700 34.736,190.129 35.184 C 189.559 35.633,188.781 36.000,188.400 36.000 C 188.019 36.000,187.279 36.335,186.754 36.743 C 186.229 37.152,185.187 37.801,184.438 38.186 C 183.688 38.571,182.878 39.049,182.638 39.249 C 181.869 39.890,179.438 41.576,178.241 42.300 C 177.604 42.685,176.717 43.405,176.269 43.900 C 175.822 44.395,175.258 44.800,175.017 44.800 C 174.776 44.800,174.100 45.295,173.517 45.900 C 172.933 46.505,171.768 47.563,170.928 48.250 C 170.087 48.938,168.680 50.124,167.800 50.886 C 166.920 51.648,165.677 52.705,165.038 53.236 C 164.398 53.766,163.423 54.695,162.871 55.300 C 162.319 55.905,161.739 56.400,161.582 56.400 C 161.425 56.400,160.394 57.255,159.291 58.300 C 158.188 59.345,156.545 60.830,155.641 61.600 C 152.730 64.080,152.236 65.300,152.802 68.612 C 153.152 70.660,153.301 81.326,153.343 107.334 C 153.390 136.963,153.494 143.287,153.939 143.562 C 154.308 143.790,155.859 142.867,158.836 140.648 C 166.390 135.017,169.489 132.800,169.803 132.800 C 169.971 132.800,170.511 132.395,171.004 131.900 C 171.497 131.405,172.566 130.550,173.380 130.000 C 174.194 129.450,175.658 128.415,176.633 127.700 C 177.609 126.985,178.575 126.400,178.781 126.400 C 178.986 126.400,179.390 126.069,179.677 125.664 C 179.965 125.259,180.920 124.449,181.800 123.865 C 183.317 122.858,184.365 122.121,187.600 119.787 C 188.370 119.231,189.630 118.337,190.400 117.800 C 191.170 117.262,192.070 116.577,192.400 116.276 C 192.920 115.803,195.345 114.082,199.802 111.024 C 202.187 109.387,204.206 107.795,204.520 107.302 C 204.696 107.026,205.068 106.800,205.348 106.800 C 205.627 106.800,206.563 106.202,207.428 105.471 C 208.293 104.739,209.270 104.019,209.600 103.871 C 209.930 103.722,211.010 102.969,212.000 102.197 C 212.990 101.425,214.340 100.442,215.000 100.011 C 215.660 99.581,216.678 98.817,217.262 98.314 C 217.846 97.811,218.978 96.950,219.778 96.400 C 220.578 95.850,221.990 94.817,222.916 94.104 C 223.842 93.391,224.815 92.806,225.077 92.804 C 225.340 92.802,225.790 92.469,226.077 92.063 C 226.365 91.658,227.035 91.096,227.566 90.814 C 228.098 90.532,229.752 89.378,231.242 88.250 C 232.733 87.123,235.081 85.390,236.460 84.400 C 241.443 80.823,244.181 78.804,247.600 76.186 C 248.590 75.428,249.582 74.806,249.804 74.804 C 250.026 74.802,250.432 74.440,250.707 74.000 C 250.982 73.560,251.468 73.200,251.787 73.200 C 252.106 73.200,252.870 72.740,253.484 72.179 C 254.098 71.617,255.741 70.440,257.136 69.564 L 259.672 67.971 257.736 65.688 C 250.453 57.103,232.433 39.697,227.052 36.049 C 224.395 34.249,221.442 32.447,220.400 31.991 C 219.850 31.750,218.466 31.114,217.325 30.577 C 215.140 29.548,207.191 29.201,204.200 30.004 " stroke="none" fill="#00b953" fill-rule="evenodd"></path><path id="path4" d="M0.000 200.000 L 0.000 400.000 200.000 400.000 L 400.000 400.000 400.000 200.000 L 400.000 0.000 200.000 0.000 L 0.000 0.000 0.000 200.000 M219.058 30.128 C 220.190 30.718,221.293 31.200,221.509 31.200 C 221.725 31.200,222.134 31.479,222.416 31.820 C 222.699 32.161,223.671 32.777,224.575 33.189 C 225.480 33.601,226.558 34.312,226.972 34.769 C 227.386 35.226,227.897 35.600,228.108 35.600 C 229.511 35.600,241.027 46.560,256.625 62.739 C 262.089 68.407,260.322 67.906,277.222 68.579 C 293.569 69.230,298.699 69.919,308.014 72.717 C 315.979 75.109,326.914 81.787,329.693 85.956 C 332.442 90.081,333.133 91.426,333.773 93.897 C 334.113 95.208,334.653 96.907,334.972 97.672 C 336.650 101.686,337.816 141.862,336.399 146.803 C 335.730 149.137,335.970 149.461,346.171 160.004 C 350.854 164.844,353.719 167.973,358.070 173.000 C 358.832 173.880,359.862 175.275,360.360 176.100 C 360.858 176.925,361.397 177.600,361.559 177.600 C 361.720 177.600,362.158 178.185,362.532 178.900 C 362.906 179.615,363.775 181.100,364.463 182.200 C 367.527 187.101,369.117 190.766,371.488 198.400 C 373.457 204.736,373.592 210.321,371.880 214.600 C 367.623 225.238,364.020 229.798,343.819 250.112 C 339.067 254.890,335.014 258.800,334.813 258.800 C 334.606 258.800,334.542 259.973,334.666 261.500 C 334.924 264.662,334.195 286.018,333.575 293.460 C 332.920 301.335,330.699 309.792,327.586 316.266 C 326.934 317.622,326.400 318.899,326.400 319.104 C 326.400 319.309,326.040 319.802,325.600 320.200 C 325.160 320.598,324.800 321.108,324.800 321.333 C 324.800 324.059,316.368 332.028,311.832 333.589 C 310.648 333.997,309.311 334.527,308.862 334.767 C 307.046 335.738,297.624 337.276,291.400 337.616 C 282.292 338.114,258.300 338.094,256.970 337.588 C 255.803 337.145,255.744 334.297,256.810 329.846 C 257.027 328.941,257.474 325.590,257.804 322.400 C 258.133 319.210,258.657 315.240,258.967 313.578 C 259.278 311.916,259.734 308.406,259.980 305.778 C 260.227 303.150,260.778 299.020,261.203 296.600 C 261.629 294.180,262.170 290.220,262.406 287.800 C 262.641 285.380,263.089 281.960,263.401 280.200 C 263.713 278.440,264.162 274.840,264.398 272.200 C 264.635 269.560,265.084 266.227,265.398 264.793 C 265.711 263.359,266.252 259.399,266.601 255.993 C 266.949 252.587,267.574 247.910,267.990 245.600 C 268.405 243.290,268.865 239.870,269.011 238.000 C 269.157 236.130,269.606 232.620,270.008 230.200 C 270.410 227.780,270.854 224.450,270.994 222.800 C 271.134 221.150,271.588 217.820,272.002 215.400 C 272.415 212.980,272.878 209.830,273.030 208.400 C 273.605 202.976,274.309 203.234,283.419 212.200 C 284.683 213.444,287.129 215.766,298.589 226.600 C 302.312 230.120,306.009 233.630,306.803 234.400 C 307.598 235.170,311.297 238.679,315.024 242.198 C 330.027 256.365,330.178 256.491,330.522 255.178 C 330.642 254.718,330.453 254.187,330.063 253.894 C 329.699 253.618,329.130 252.917,328.800 252.336 C 328.262 251.388,324.601 246.509,319.395 239.800 C 315.104 234.270,314.160 233.041,313.400 231.992 C 312.960 231.385,311.520 229.510,310.200 227.824 C 308.880 226.139,307.260 224.059,306.600 223.203 C 305.940 222.346,303.833 219.610,301.918 217.122 C 297.214 211.014,291.090 203.074,289.062 200.454 C 288.148 199.274,287.112 197.874,286.759 197.344 C 286.407 196.814,285.818 196.069,285.450 195.690 C 285.082 195.310,284.256 194.280,283.613 193.400 C 282.971 192.520,281.886 191.080,281.202 190.200 C 277.511 185.452,275.538 182.939,275.095 182.424 C 274.823 182.107,274.060 181.096,273.400 180.178 C 272.285 178.627,269.980 175.601,266.027 170.500 C 262.134 165.476,260.992 163.987,258.276 160.401 C 256.694 158.311,255.011 156.204,254.536 155.718 C 251.171 152.280,252.848 151.202,261.576 151.191 C 275.440 151.173,317.646 149.833,324.716 149.186 C 328.117 148.874,332.473 147.671,330.400 147.616 C 329.009 147.579,317.268 145.962,315.800 145.605 C 314.920 145.392,311.770 144.934,308.800 144.588 C 305.830 144.243,302.753 143.789,301.961 143.581 C 301.170 143.373,297.930 142.920,294.761 142.575 C 291.593 142.231,288.100 141.702,287.000 141.400 C 285.900 141.099,283.020 140.649,280.600 140.401 C 278.180 140.153,274.220 139.601,271.800 139.175 C 269.380 138.750,265.150 138.125,262.400 137.786 C 259.650 137.448,256.770 137.006,256.000 136.805 C 255.230 136.604,252.620 136.240,250.200 135.996 C 247.780 135.753,244.180 135.218,242.200 134.808 C 240.220 134.399,236.530 133.856,234.000 133.601 C 231.470 133.347,228.140 132.892,226.600 132.590 C 225.060 132.288,222.270 131.839,220.400 131.593 C 218.530 131.346,215.290 130.874,213.200 130.544 C 211.110 130.213,208.236 129.771,206.814 129.561 C 205.391 129.351,203.809 128.905,203.299 128.570 L 202.370 127.962 203.285 126.782 C 204.472 125.252,214.191 115.202,240.169 88.641 C 246.719 81.944,251.600 76.698,251.600 76.355 C 251.600 75.820,249.734 75.929,249.118 76.500 C 248.588 76.991,247.609 77.704,244.276 80.028 C 243.354 80.670,241.250 82.193,239.600 83.411 C 237.950 84.629,235.880 86.099,235.000 86.678 C 234.120 87.257,233.220 87.933,233.000 88.179 C 232.780 88.426,231.340 89.490,229.800 90.545 C 228.260 91.599,226.190 93.067,225.200 93.805 C 224.210 94.544,222.230 95.979,220.800 96.994 C 219.370 98.008,217.549 99.325,216.752 99.919 C 212.877 102.812,206.996 107.039,204.145 108.980 C 203.515 109.409,202.698 110.039,202.329 110.380 C 201.961 110.721,201.061 111.407,200.329 111.905 C 199.598 112.403,198.010 113.517,196.800 114.381 C 195.590 115.246,194.004 116.369,193.276 116.876 C 192.548 117.384,191.239 118.374,190.367 119.076 C 189.495 119.778,188.426 120.465,187.991 120.603 C 187.556 120.741,187.200 121.006,187.200 121.192 C 187.200 121.378,185.805 122.474,184.100 123.629 C 182.395 124.784,180.460 126.148,179.800 126.661 C 177.708 128.286,177.068 128.758,174.048 130.903 C 172.424 132.056,170.444 133.480,169.648 134.067 C 168.851 134.654,167.030 135.964,165.600 136.978 C 164.170 137.993,162.190 139.452,161.200 140.220 C 160.210 140.989,158.892 141.929,158.270 142.309 C 157.649 142.689,156.659 143.405,156.070 143.900 C 154.858 144.918,154.060 145.025,153.067 144.299 C 152.429 143.832,152.383 141.468,152.395 110.107 C 152.403 91.576,152.289 75.395,152.142 74.149 L 151.876 71.882 151.160 73.241 C 149.785 75.849,149.654 76.330,149.188 80.451 C 148.930 82.733,148.392 86.040,147.992 87.800 C 147.593 89.560,147.058 92.800,146.805 95.000 C 146.551 97.200,146.006 100.440,145.593 102.200 C 145.180 103.960,144.639 107.110,144.390 109.200 C 144.141 111.290,143.699 113.990,143.408 115.200 C 143.116 116.410,142.668 119.200,142.410 121.400 C 142.153 123.600,141.681 126.435,141.361 127.700 C 141.040 128.965,140.502 132.115,140.165 134.700 C 139.827 137.285,139.219 140.930,138.812 142.800 C 138.405 144.670,137.950 147.370,137.800 148.800 C 137.650 150.230,137.198 152.930,136.796 154.800 C 136.393 156.670,135.941 159.460,135.790 161.000 C 135.639 162.540,135.176 165.284,134.761 167.099 C 134.347 168.913,133.808 172.153,133.565 174.299 C 133.321 176.444,132.777 179.784,132.356 181.719 C 131.934 183.654,131.324 187.268,130.998 189.750 C 129.663 199.933,130.478 200.194,115.206 184.690 C 108.273 177.651,95.342 164.582,86.472 155.646 L 70.343 139.400 70.597 133.200 C 71.197 118.568,71.598 112.393,72.157 109.200 C 72.484 107.330,72.952 104.306,73.198 102.481 C 73.852 97.611,77.158 87.452,79.100 84.345 C 79.595 83.553,80.000 82.763,80.000 82.588 C 80.000 82.135,82.284 78.601,84.326 75.895 C 87.772 71.327,92.719 67.834,97.504 66.591 C 98.767 66.263,100.610 65.730,101.600 65.407 C 105.811 64.032,118.060 63.712,141.200 64.370 C 150.665 64.640,151.843 64.604,152.200 64.036 C 152.625 63.361,157.938 58.081,159.885 56.400 C 160.522 55.850,162.833 53.839,165.022 51.931 C 171.657 46.145,178.654 40.540,180.352 39.651 C 180.928 39.350,181.760 38.790,182.200 38.408 C 183.243 37.501,190.985 33.200,191.573 33.200 C 191.823 33.200,192.876 32.776,193.913 32.258 C 200.997 28.719,214.205 27.601,219.058 30.128 M252.000 74.849 C 252.000 75.555,252.100 75.615,252.596 75.204 C 253.198 74.704,253.069 74.000,252.376 74.000 C 252.169 74.000,252.000 74.382,252.000 74.849 M71.530 142.715 C 71.601 143.219,72.006 143.847,72.430 144.111 C 72.853 144.376,73.200 144.774,73.201 144.996 C 73.202 145.361,77.334 151.496,78.384 152.691 C 78.621 152.962,79.361 153.952,80.028 154.891 C 80.695 155.831,81.778 157.320,82.433 158.200 C 83.088 159.080,83.932 160.250,84.308 160.800 C 84.684 161.350,85.534 162.529,86.196 163.420 C 86.858 164.312,87.715 165.482,88.099 166.020 C 91.171 170.323,94.231 174.554,95.606 176.400 C 97.341 178.729,98.941 180.960,102.200 185.595 C 103.300 187.160,104.740 189.147,105.400 190.011 C 108.026 193.447,108.961 194.717,110.939 197.535 C 112.073 199.150,113.200 200.821,113.444 201.250 C 113.689 201.679,114.251 202.428,114.694 202.915 C 115.136 203.402,116.286 204.930,117.249 206.312 C 118.212 207.694,119.500 209.494,120.111 210.312 C 120.723 211.130,122.121 213.060,123.220 214.600 C 124.318 216.140,125.945 218.390,126.836 219.600 C 127.727 220.810,128.753 222.250,129.115 222.800 C 129.478 223.350,130.501 224.740,131.387 225.888 C 132.274 227.036,133.630 228.894,134.400 230.017 C 135.170 231.140,136.250 232.664,136.800 233.403 C 146.288 246.159,148.701 249.860,147.990 250.569 C 147.686 250.873,135.357 250.968,106.279 250.892 L 65.000 250.783 63.600 249.267 C 62.830 248.433,60.850 246.250,59.200 244.416 C 57.550 242.583,55.413 240.254,54.451 239.241 C 51.312 235.936,43.913 227.047,42.582 224.983 C 41.866 223.873,40.993 222.726,40.641 222.434 C 40.288 222.141,40.000 221.678,40.000 221.405 C 40.000 221.132,39.630 220.438,39.178 219.863 C 37.721 218.010,34.070 210.643,32.790 206.971 C 26.146 187.911,29.611 179.111,52.391 157.200 C 57.079 152.690,62.453 147.490,64.333 145.645 C 68.494 141.561,71.209 140.455,71.530 142.715 M71.942 254.164 C 73.184 254.474,75.820 254.940,77.800 255.199 C 79.780 255.457,83.290 256.009,85.600 256.425 C 87.910 256.840,91.600 257.375,93.800 257.614 C 96.000 257.852,98.790 258.306,100.000 258.623 C 101.210 258.939,104.630 259.481,107.600 259.828 C 110.570 260.174,114.530 260.788,116.400 261.192 C 118.270 261.597,121.150 262.049,122.800 262.197 C 124.450 262.346,127.510 262.800,129.600 263.208 C 131.690 263.615,135.290 264.152,137.600 264.401 C 139.910 264.649,142.700 265.107,143.800 265.418 C 144.900 265.729,148.177 266.258,151.083 266.594 C 153.989 266.929,157.499 267.465,158.883 267.784 C 160.267 268.104,163.110 268.561,165.200 268.801 C 167.290 269.040,170.350 269.499,172.000 269.820 C 173.650 270.142,177.160 270.672,179.800 270.998 C 182.440 271.325,185.230 271.776,186.000 272.000 C 186.770 272.225,189.634 272.686,192.363 273.024 C 198.487 273.783,198.895 273.963,198.271 275.618 C 197.994 276.351,189.463 285.261,177.004 297.828 C 150.877 324.181,151.570 323.456,151.849 324.183 C 152.119 324.887,153.214 324.422,156.104 322.373 C 159.947 319.649,160.671 319.127,162.200 317.977 C 163.080 317.314,164.433 316.353,165.206 315.841 C 165.979 315.328,166.856 314.614,167.155 314.254 C 167.454 313.894,167.853 313.600,168.043 313.600 C 168.397 313.600,174.516 309.285,175.600 308.271 C 175.930 307.963,176.920 307.237,177.800 306.659 C 178.680 306.081,179.850 305.265,180.400 304.846 C 180.950 304.427,182.930 302.990,184.800 301.653 C 186.670 300.316,188.560 298.946,189.000 298.610 C 190.240 297.662,196.419 293.221,199.587 291.000 C 201.156 289.900,203.140 288.460,203.996 287.800 C 204.852 287.140,206.200 286.150,206.992 285.600 C 208.500 284.553,210.440 283.149,212.800 281.393 C 214.105 280.423,216.832 278.475,219.907 276.317 C 220.625 275.813,222.557 274.410,224.200 273.200 C 225.843 271.990,227.825 270.550,228.604 270.000 C 229.383 269.450,231.231 268.098,232.710 266.996 C 234.190 265.894,235.850 264.677,236.400 264.292 C 237.779 263.326,239.814 261.883,242.305 260.103 C 249.613 254.885,250.010 254.663,250.612 255.458 C 252.188 257.538,251.301 339.600,249.703 339.600 C 249.517 339.600,248.633 340.275,247.740 341.100 C 246.846 341.925,244.522 344.040,242.575 345.800 C 240.628 347.560,238.038 349.913,236.818 351.029 C 234.173 353.448,229.489 357.331,227.202 359.000 C 226.298 359.660,224.982 360.659,224.279 361.221 C 222.512 362.630,219.018 364.800,218.514 364.800 C 218.285 364.800,217.881 365.062,217.615 365.382 C 216.494 366.732,208.998 369.887,201.898 371.997 C 197.776 373.222,197.359 373.269,191.898 373.128 L 186.200 372.982 182.200 370.968 C 173.183 366.428,168.938 362.706,148.198 341.150 L 141.800 334.499 138.200 334.246 C 136.220 334.106,129.560 333.810,123.400 333.588 C 117.240 333.366,111.120 333.020,109.800 332.818 C 105.588 332.175,96.827 330.464,96.401 330.201 C 96.175 330.061,94.867 329.617,93.495 329.214 C 90.316 328.281,85.211 326.134,84.378 325.380 C 84.025 325.061,83.565 324.800,83.355 324.800 C 83.145 324.800,81.989 324.181,80.787 323.425 C 74.664 319.575,70.396 314.931,68.633 310.200 C 68.223 309.100,67.730 307.998,67.537 307.751 C 65.551 305.206,64.344 289.080,64.716 270.062 C 65.074 251.759,64.792 252.378,71.942 254.164 " stroke="none" fill="#ffffff" fill-rule="evenodd"></path><path id="path5" d="M209.507 29.490 C 210.226 29.579,211.306 29.577,211.907 29.486 C 212.508 29.395,211.920 29.322,210.600 29.324 C 209.280 29.326,208.788 29.401,209.507 29.490 M217.800 30.800 C 219.120 31.442,220.380 31.966,220.600 31.964 C 220.820 31.962,219.920 31.431,218.600 30.785 C 217.280 30.139,216.020 29.615,215.800 29.622 C 215.580 29.628,216.480 30.158,217.800 30.800 M197.400 31.600 C 196.896 31.817,196.822 31.944,197.200 31.944 C 197.530 31.944,198.160 31.789,198.600 31.600 C 199.104 31.383,199.178 31.256,198.800 31.256 C 198.470 31.256,197.840 31.411,197.400 31.600 M221.418 32.429 C 221.677 32.848,224.800 34.523,224.800 34.242 C 224.800 34.147,223.986 33.613,222.991 33.057 C 221.995 32.501,221.288 32.218,221.418 32.429 M189.954 34.740 C 189.429 35.147,188.730 35.583,188.400 35.709 C 187.880 35.906,187.883 35.941,188.422 35.968 C 188.765 35.986,189.655 35.550,190.400 35.000 C 191.145 34.450,191.565 34.000,191.332 34.000 C 191.099 34.000,190.479 34.333,189.954 34.740 M226.000 35.183 C 226.550 35.643,228.170 36.947,229.600 38.081 C 231.030 39.214,233.666 41.460,235.459 43.071 C 237.251 44.682,238.834 46.000,238.977 46.000 C 239.275 46.000,232.779 40.202,229.791 37.800 C 227.550 35.999,224.262 33.729,226.000 35.183 M185.111 37.360 C 182.971 38.632,182.711 39.044,184.673 38.055 C 185.593 37.591,186.459 37.029,186.596 36.806 C 186.914 36.293,186.898 36.299,185.111 37.360 M178.800 41.660 C 178.030 42.335,177.762 42.705,178.204 42.481 C 178.935 42.111,180.747 40.378,180.362 40.416 C 180.273 40.425,179.570 40.985,178.800 41.660 M169.978 48.663 C 168.886 49.823,168.820 49.968,169.662 49.363 C 170.580 48.703,171.845 47.200,171.482 47.200 C 171.413 47.200,170.737 47.858,169.978 48.663 M166.800 51.257 C 163.563 54.110,161.182 56.400,161.452 56.400 C 161.611 56.400,162.385 55.782,163.171 55.026 C 163.957 54.270,165.500 52.835,166.600 51.837 C 167.700 50.839,168.510 50.023,168.400 50.023 C 168.290 50.023,167.570 50.579,166.800 51.257 M251.435 58.900 C 253.387 60.935,255.160 62.672,255.375 62.761 C 255.590 62.850,254.079 61.185,252.018 59.061 C 249.956 56.937,248.183 55.200,248.078 55.200 C 247.972 55.200,249.483 56.865,251.435 58.900 M159.000 58.169 C 158.120 58.915,157.490 59.590,157.600 59.669 C 157.710 59.748,158.520 59.135,159.400 58.308 C 161.392 56.436,161.144 56.350,159.000 58.169 M257.764 65.685 L 259.672 67.971 257.136 69.564 C 254.492 71.225,252.101 73.200,252.735 73.200 C 252.937 73.200,253.335 72.920,253.619 72.577 C 254.265 71.798,256.762 70.730,257.242 71.026 C 258.570 71.847,257.376 73.212,239.676 91.112 C 234.176 96.673,229.574 101.491,229.449 101.818 C 229.323 102.145,228.766 102.585,228.210 102.796 C 227.655 103.007,227.200 103.359,227.200 103.578 C 227.200 103.796,224.766 106.430,221.790 109.432 C 218.815 112.433,216.199 115.228,215.976 115.644 C 215.754 116.060,215.339 116.400,215.054 116.400 C 214.768 116.400,214.296 116.847,214.004 117.393 C 213.711 117.940,213.160 118.486,212.779 118.607 C 212.398 118.728,211.990 119.194,211.873 119.643 C 211.755 120.092,211.329 120.546,210.924 120.652 C 210.520 120.757,209.885 121.374,209.513 122.022 C 209.141 122.670,208.559 123.200,208.219 123.200 C 207.878 123.200,207.600 123.457,207.600 123.771 C 207.600 124.085,207.194 124.670,206.698 125.071 C 203.450 127.696,203.917 128.167,210.200 128.603 C 212.180 128.740,215.060 129.186,216.600 129.593 C 218.140 130.000,221.877 130.525,224.905 130.759 C 228.313 131.022,230.864 131.419,231.603 131.802 C 232.340 132.183,234.824 132.571,238.098 132.816 C 243.924 133.253,245.851 133.525,246.884 134.058 C 247.260 134.252,250.406 134.694,253.875 135.039 C 257.344 135.384,260.907 135.922,261.791 136.234 C 262.676 136.546,265.650 136.982,268.400 137.201 C 274.676 137.703,276.375 137.970,277.391 138.613 C 277.853 138.905,280.814 139.319,284.295 139.579 C 287.648 139.828,291.068 140.269,291.895 140.559 C 293.718 141.197,295.628 141.481,301.440 141.978 C 303.881 142.187,306.581 142.632,307.440 142.967 C 308.299 143.303,311.562 143.763,314.707 143.992 C 317.845 144.221,321.175 144.685,322.107 145.024 C 324.452 145.876,334.031 146.815,334.737 146.261 C 335.665 145.534,335.214 103.147,334.256 101.000 C 333.863 100.120,333.292 97.997,332.986 96.283 C 332.662 94.462,332.092 92.735,331.616 92.129 C 331.167 91.559,330.800 90.893,330.800 90.650 C 330.800 89.343,326.182 83.804,324.269 82.816 C 323.647 82.495,322.966 81.910,322.755 81.516 C 322.544 81.122,322.122 80.800,321.817 80.800 C 321.511 80.800,320.753 80.383,320.131 79.873 C 319.509 79.363,318.370 78.704,317.600 78.408 C 316.830 78.113,315.840 77.554,315.400 77.168 C 314.960 76.781,313.880 76.338,313.000 76.183 C 312.120 76.028,311.024 75.559,310.564 75.141 C 310.073 74.694,308.506 74.166,306.764 73.860 C 305.134 73.573,303.260 73.060,302.600 72.719 C 301.940 72.378,299.240 71.882,296.600 71.617 C 293.960 71.351,290.540 70.867,289.000 70.539 C 287.108 70.137,282.826 69.884,275.800 69.758 C 260.987 69.494,260.723 69.461,259.838 67.818 C 259.442 67.084,258.385 65.789,257.487 64.941 C 255.877 63.419,255.880 63.429,257.764 65.685 M247.985 76.010 L 246.600 77.219 248.190 76.187 C 250.071 74.964,250.256 74.800,249.752 74.800 C 249.542 74.800,248.747 75.344,247.985 76.010 M153.334 78.400 C 153.334 80.050,153.405 80.725,153.491 79.900 C 153.578 79.075,153.578 77.725,153.491 76.900 C 153.405 76.075,153.334 76.750,153.334 78.400 M244.887 78.300 C 243.930 79.235,243.914 79.281,244.781 78.606 C 246.488 77.276,246.569 77.200,246.286 77.200 C 246.136 77.200,245.506 77.695,244.887 78.300 M240.800 81.260 C 240.030 81.935,239.762 82.305,240.204 82.081 C 240.935 81.711,242.747 79.978,242.362 80.016 C 242.273 80.025,241.570 80.585,240.800 81.260 M235.078 85.413 C 234.460 85.956,234.114 86.400,234.308 86.400 C 234.502 86.400,235.083 85.950,235.600 85.400 C 236.795 84.128,236.531 84.134,235.078 85.413 M222.332 94.513 C 221.744 95.001,220.635 95.850,219.868 96.400 C 219.101 96.950,218.538 97.466,218.617 97.547 C 218.696 97.628,219.318 97.268,219.999 96.747 C 221.885 95.304,223.824 93.623,223.600 93.624 C 223.490 93.625,222.919 94.025,222.332 94.513 M207.970 105.100 L 207.000 106.200 208.200 105.200 C 208.860 104.650,209.475 104.155,209.567 104.100 C 209.658 104.045,209.555 104.000,209.336 104.000 C 209.118 104.000,208.503 104.495,207.970 105.100 M198.400 112.049 C 197.006 113.271,197.005 113.272,198.288 112.419 C 198.996 111.948,199.682 111.391,199.812 111.181 C 200.197 110.557,199.877 110.754,198.400 112.049 M194.200 114.853 C 193.320 115.512,192.530 116.250,192.444 116.494 C 192.272 116.980,192.440 116.862,194.800 114.829 C 196.587 113.290,196.270 113.303,194.200 114.853 M189.687 118.300 C 188.730 119.235,188.714 119.281,189.581 118.606 C 191.288 117.276,191.369 117.200,191.086 117.200 C 190.936 117.200,190.306 117.695,189.687 118.300 M185.932 120.913 C 185.344 121.401,184.264 122.213,183.532 122.719 C 181.326 124.240,180.522 124.917,181.850 124.136 C 184.111 122.804,186.203 121.320,186.755 120.654 C 187.495 119.762,187.208 119.852,185.932 120.913 M173.722 129.829 L 172.600 130.858 173.900 129.954 C 174.615 129.457,175.200 128.993,175.200 128.925 C 175.200 128.609,174.758 128.880,173.722 129.829 M171.695 131.066 C 171.418 131.178,171.003 131.659,170.773 132.135 C 170.416 132.876,170.433 132.914,170.896 132.400 C 171.193 132.070,171.689 131.575,171.998 131.300 C 172.587 130.776,172.529 130.731,171.695 131.066 M167.800 134.032 C 165.296 135.925,165.160 136.307,167.600 134.594 C 168.810 133.745,169.875 132.993,169.967 132.925 C 170.058 132.856,169.968 132.805,169.767 132.811 C 169.565 132.817,168.680 133.367,167.800 134.032 M163.790 136.934 C 161.508 138.567,159.777 140.076,160.730 139.602 C 161.242 139.348,161.962 138.878,162.330 138.559 C 162.699 138.240,163.540 137.539,164.200 137.002 C 165.676 135.801,165.431 135.760,163.790 136.934 M153.344 142.369 C 153.378 143.212,153.631 143.800,154.000 143.900 C 154.405 144.009,154.449 143.953,154.136 143.729 C 153.881 143.547,153.586 142.858,153.480 142.199 C 153.303 141.101,153.292 141.115,153.344 142.369 " stroke="none" fill="#00adb1" fill-rule="evenodd"></path><path id="path6" d="M203.400 29.165 C 200.797 29.662,195.941 31.245,193.913 32.258 C 192.876 32.776,191.823 33.200,191.573 33.200 C 190.985 33.200,183.243 37.501,182.200 38.408 C 181.760 38.790,180.928 39.350,180.352 39.651 C 178.188 40.784,170.902 46.752,159.903 56.400 C 153.907 61.659,151.471 64.426,152.355 64.972 C 152.549 65.092,152.932 64.648,153.206 63.985 C 153.480 63.323,153.941 62.649,154.229 62.487 C 154.518 62.326,155.813 61.205,157.108 59.997 C 161.717 55.696,165.737 52.185,173.400 45.772 C 186.166 35.087,198.833 29.514,210.400 29.494 L 216.200 29.485 220.000 31.470 C 225.007 34.087,227.791 36.022,233.046 40.539 C 240.008 46.523,257.997 64.823,259.768 67.723 C 260.197 68.425,260.612 69.082,260.689 69.182 C 260.767 69.282,266.539 69.495,273.515 69.656 C 282.160 69.856,287.092 70.138,289.000 70.542 C 290.540 70.868,293.960 71.351,296.600 71.617 C 299.240 71.882,301.940 72.378,302.600 72.719 C 303.260 73.060,305.134 73.573,306.764 73.860 C 308.506 74.166,310.073 74.694,310.564 75.141 C 311.024 75.559,312.120 76.028,313.000 76.183 C 313.880 76.338,314.960 76.781,315.400 77.168 C 315.840 77.554,316.830 78.113,317.600 78.408 C 318.370 78.704,319.509 79.363,320.131 79.873 C 320.753 80.383,321.511 80.800,321.817 80.800 C 322.122 80.800,322.544 81.122,322.755 81.516 C 322.966 81.910,323.647 82.495,324.269 82.816 C 326.182 83.804,330.800 89.343,330.800 90.650 C 330.800 90.893,331.167 91.559,331.616 92.129 C 332.092 92.735,332.662 94.462,332.986 96.283 C 333.292 97.997,333.863 100.120,334.256 101.000 C 335.214 103.147,335.665 145.534,334.737 146.261 C 334.031 146.815,324.452 145.876,322.107 145.024 C 321.175 144.685,317.845 144.221,314.707 143.992 C 311.562 143.763,308.299 143.303,307.440 142.967 C 306.581 142.632,303.881 142.187,301.440 141.978 C 295.628 141.481,293.718 141.197,291.895 140.559 C 291.068 140.269,287.648 139.828,284.295 139.579 C 280.814 139.319,277.853 138.905,277.391 138.613 C 276.375 137.970,274.676 137.703,268.400 137.201 C 265.650 136.982,262.676 136.546,261.791 136.234 C 260.907 135.922,257.344 135.384,253.875 135.039 C 250.406 134.694,247.260 134.252,246.884 134.058 C 245.851 133.525,243.924 133.253,238.098 132.816 C 234.824 132.571,232.340 132.183,231.603 131.802 C 230.864 131.419,228.313 131.022,224.905 130.759 C 221.877 130.525,218.140 130.000,216.600 129.593 C 215.060 129.186,212.180 128.740,210.200 128.603 C 203.917 128.167,203.450 127.696,206.698 125.071 C 207.194 124.670,207.600 124.085,207.600 123.771 C 207.600 123.457,207.878 123.200,208.219 123.200 C 208.559 123.200,209.141 122.670,209.513 122.022 C 209.885 121.374,210.520 120.757,210.924 120.652 C 211.329 120.546,211.755 120.092,211.873 119.643 C 211.990 119.194,212.398 118.728,212.779 118.607 C 213.160 118.486,213.711 117.940,214.004 117.393 C 214.296 116.847,214.768 116.400,215.054 116.400 C 215.339 116.400,215.754 116.060,215.976 115.644 C 216.199 115.228,218.815 112.433,221.790 109.432 C 224.766 106.430,227.200 103.796,227.200 103.578 C 227.200 103.359,227.655 103.007,228.210 102.796 C 228.766 102.585,229.323 102.145,229.449 101.818 C 229.574 101.491,234.176 96.673,239.676 91.112 C 257.376 73.212,258.570 71.847,257.242 71.026 C 256.762 70.730,254.265 71.798,253.619 72.577 C 253.335 72.920,252.854 73.200,252.551 73.200 C 252.248 73.200,251.675 73.525,251.277 73.923 C 250.880 74.320,249.305 75.502,247.777 76.548 C 246.250 77.595,244.190 79.065,243.200 79.814 C 242.210 80.564,240.201 82.006,238.735 83.018 C 237.270 84.031,235.757 85.206,235.373 85.630 C 234.990 86.053,234.519 86.400,234.327 86.400 C 234.134 86.400,232.855 87.271,231.484 88.335 C 230.113 89.399,228.592 90.483,228.104 90.744 C 227.617 91.005,226.797 91.619,226.284 92.109 C 225.770 92.599,224.821 93.311,224.175 93.691 C 223.529 94.071,222.190 95.016,221.200 95.791 C 220.210 96.566,219.130 97.316,218.800 97.458 C 218.470 97.600,217.840 98.055,217.400 98.469 C 216.960 98.883,215.970 99.662,215.200 100.199 C 213.844 101.146,212.340 102.224,209.759 104.099 C 209.076 104.594,207.726 105.536,206.759 106.192 C 205.791 106.847,204.072 108.107,202.938 108.992 C 201.804 109.876,199.954 111.230,198.827 112.000 C 197.700 112.770,196.086 113.940,195.241 114.600 C 194.396 115.260,193.294 116.070,192.792 116.400 C 192.291 116.730,191.142 117.542,190.240 118.204 C 189.338 118.866,188.150 119.723,187.600 120.108 C 187.050 120.492,185.790 121.432,184.800 122.196 C 183.810 122.959,182.512 123.858,181.916 124.194 C 181.320 124.529,180.404 125.208,179.881 125.702 C 179.357 126.196,177.339 127.680,175.395 129.000 C 173.452 130.320,171.639 131.622,171.367 131.893 C 171.094 132.164,169.640 133.226,168.136 134.252 C 165.053 136.356,163.652 137.394,162.131 138.700 C 161.555 139.195,160.948 139.600,160.783 139.600 C 160.618 139.600,159.188 140.600,157.606 141.823 C 152.946 145.423,153.429 149.359,153.200 105.928 C 153.090 85.104,152.865 67.931,152.700 67.766 C 152.305 67.371,152.335 63.748,152.384 106.200 C 152.424 140.709,152.482 143.841,153.090 144.300 C 154.052 145.026,154.859 144.917,156.070 143.900 C 156.659 143.405,157.649 142.689,158.270 142.309 C 158.892 141.929,160.210 140.989,161.200 140.220 C 162.190 139.452,164.170 137.993,165.600 136.978 C 167.030 135.964,168.851 134.654,169.648 134.067 C 170.444 133.480,172.424 132.056,174.048 130.903 C 177.068 128.758,177.708 128.286,179.800 126.661 C 180.460 126.148,182.395 124.784,184.100 123.629 C 185.805 122.474,187.200 121.378,187.200 121.192 C 187.200 121.006,187.556 120.741,187.991 120.603 C 188.426 120.465,189.495 119.778,190.367 119.076 C 191.239 118.374,192.548 117.384,193.276 116.876 C 194.004 116.369,195.590 115.246,196.800 114.381 C 198.010 113.517,199.598 112.403,200.329 111.905 C 201.061 111.407,201.961 110.721,202.329 110.380 C 202.698 110.039,203.515 109.409,204.145 108.980 C 206.996 107.039,212.877 102.812,216.752 99.919 C 217.549 99.325,219.370 98.008,220.800 96.994 C 222.230 95.979,224.210 94.544,225.200 93.805 C 226.190 93.067,228.260 91.599,229.800 90.545 C 231.340 89.490,232.780 88.426,233.000 88.179 C 233.220 87.933,234.120 87.257,235.000 86.678 C 235.880 86.099,237.950 84.629,239.600 83.411 C 241.250 82.193,243.354 80.670,244.276 80.028 C 247.609 77.704,248.588 76.991,249.118 76.500 C 249.734 75.929,251.600 75.820,251.600 76.355 C 251.600 76.698,246.719 81.944,240.169 88.641 C 214.191 115.202,204.472 125.252,203.285 126.782 L 202.370 127.962 203.299 128.570 C 203.809 128.905,205.391 129.351,206.814 129.561 C 208.236 129.771,211.110 130.213,213.200 130.544 C 215.290 130.874,218.530 131.346,220.400 131.593 C 222.270 131.839,225.060 132.288,226.600 132.590 C 228.140 132.892,231.470 133.347,234.000 133.601 C 236.530 133.856,240.220 134.399,242.200 134.808 C 244.180 135.218,247.780 135.753,250.200 135.996 C 252.620 136.240,255.230 136.604,256.000 136.805 C 256.770 137.006,259.650 137.448,262.400 137.786 C 265.150 138.125,269.380 138.750,271.800 139.175 C 274.220 139.601,278.180 140.153,280.600 140.401 C 283.020 140.649,285.900 141.099,287.000 141.400 C 288.100 141.702,291.593 142.231,294.761 142.575 C 297.930 142.920,301.170 143.373,301.961 143.581 C 302.753 143.789,305.830 144.243,308.800 144.588 C 311.770 144.934,314.920 145.392,315.800 145.605 C 317.268 145.962,329.009 147.579,330.400 147.616 C 332.473 147.671,328.117 148.874,324.716 149.186 C 317.646 149.833,275.440 151.173,261.576 151.191 C 252.848 151.202,251.171 152.280,254.536 155.718 C 255.011 156.204,256.694 158.311,258.276 160.401 C 260.992 163.987,262.134 165.476,266.027 170.500 C 269.980 175.601,272.285 178.627,273.400 180.178 C 274.060 181.096,274.823 182.107,275.095 182.424 C 275.538 182.939,277.511 185.452,281.202 190.200 C 281.886 191.080,282.971 192.520,283.613 193.400 C 284.256 194.280,285.082 195.310,285.450 195.690 C 285.818 196.069,286.407 196.814,286.759 197.344 C 287.112 197.874,288.148 199.274,289.062 200.454 C 291.090 203.074,297.214 211.014,301.918 217.122 C 303.833 219.610,305.940 222.346,306.600 223.203 C 307.260 224.059,308.880 226.139,310.200 227.824 C 311.520 229.510,312.960 231.385,313.400 231.992 C 314.160 233.041,315.104 234.270,319.395 239.800 C 324.601 246.509,328.262 251.388,328.800 252.336 C 329.130 252.917,329.699 253.618,330.063 253.894 C 330.467 254.198,330.643 254.715,330.513 255.213 C 330.310 255.987,330.257 255.995,329.549 255.354 C 327.736 253.713,329.056 255.347,331.785 258.120 C 334.456 260.835,334.746 261.030,334.535 259.977 C 334.389 259.246,334.466 258.800,334.739 258.800 C 335.140 258.800,348.031 246.040,355.540 238.212 C 367.620 225.618,373.040 216.031,372.959 207.400 C 372.893 200.393,369.448 190.173,364.463 182.200 C 363.775 181.100,362.906 179.615,362.532 178.900 C 362.158 178.185,361.720 177.600,361.559 177.600 C 361.397 177.600,360.858 176.925,360.360 176.100 C 359.862 175.275,358.832 173.880,358.070 173.000 C 353.719 167.973,350.854 164.844,346.171 160.004 C 335.970 149.461,335.730 149.137,336.399 146.803 C 337.816 141.862,336.650 101.686,334.972 97.672 C 334.653 96.907,334.113 95.208,333.773 93.897 C 333.133 91.426,332.442 90.081,329.693 85.956 C 326.914 81.787,315.979 75.109,308.014 72.717 C 298.699 69.919,293.569 69.230,277.222 68.579 C 260.322 67.906,262.089 68.407,256.625 62.739 C 241.027 46.560,229.511 35.600,228.108 35.600 C 227.897 35.600,227.386 35.226,226.972 34.769 C 226.558 34.312,225.480 33.601,224.575 33.189 C 223.671 32.777,222.699 32.161,222.416 31.820 C 222.134 31.479,221.725 31.200,221.509 31.200 C 221.293 31.200,220.190 30.718,219.058 30.128 C 216.864 28.986,207.392 28.403,203.400 29.165 M252.972 74.355 C 253.093 74.550,252.923 74.932,252.596 75.204 C 252.100 75.615,252.000 75.555,252.000 74.849 C 252.000 73.991,252.568 73.702,252.972 74.355 " stroke="none" fill="#379be6" fill-rule="evenodd"></path><path id="path7" d="M273.667 205.100 C 273.468 205.485,273.181 206.970,273.030 208.400 C 272.878 209.830,272.415 212.980,272.002 215.400 C 271.588 217.820,271.134 221.150,270.994 222.800 C 270.854 224.450,270.410 227.780,270.008 230.200 C 269.606 232.620,269.157 236.130,269.011 238.000 C 268.865 239.870,268.405 243.290,267.990 245.600 C 267.574 247.910,266.949 252.587,266.601 255.993 C 266.252 259.399,265.711 263.359,265.398 264.793 C 265.084 266.227,264.635 269.560,264.398 272.200 C 264.162 274.840,263.713 278.440,263.401 280.200 C 263.089 281.960,262.641 285.380,262.406 287.800 C 262.170 290.220,261.629 294.180,261.203 296.600 C 260.778 299.020,260.227 303.150,259.980 305.778 C 259.734 308.406,259.278 311.916,258.967 313.578 C 258.657 315.240,258.133 319.210,257.804 322.400 C 257.474 325.590,257.027 328.941,256.810 329.846 C 255.744 334.297,255.803 337.145,256.970 337.588 C 258.300 338.094,282.292 338.114,291.400 337.616 C 297.624 337.276,307.046 335.738,308.862 334.767 C 309.311 334.527,310.648 333.997,311.832 333.589 C 316.368 332.028,324.800 324.059,324.800 321.333 C 324.800 321.108,325.160 320.598,325.600 320.200 C 326.040 319.802,326.400 319.309,326.400 319.104 C 326.400 318.899,326.934 317.622,327.586 316.266 C 332.707 305.617,334.725 291.064,334.792 264.296 L 334.800 261.192 331.700 258.083 C 329.995 256.373,325.450 252.014,321.600 248.397 C 314.627 241.845,309.572 237.061,306.811 234.400 C 306.012 233.630,302.312 230.120,298.589 226.600 C 287.129 215.766,284.683 213.444,283.419 212.200 C 276.483 205.373,274.334 203.808,273.667 205.100 " stroke="none" fill="#8f008f" fill-rule="evenodd"></path><path id="path8" d="M247.000 256.810 C 245.460 257.905,243.225 259.475,242.032 260.300 C 240.840 261.125,239.380 262.160,238.789 262.600 C 238.197 263.040,237.192 263.757,236.556 264.194 C 235.920 264.631,234.190 265.891,232.710 266.994 C 231.231 268.097,229.383 269.450,228.604 270.000 C 227.825 270.550,225.843 271.990,224.200 273.200 C 222.557 274.410,220.625 275.813,219.907 276.317 C 216.832 278.475,214.105 280.423,212.800 281.393 C 210.440 283.149,208.500 284.553,206.992 285.600 C 206.200 286.150,204.852 287.140,203.996 287.800 C 203.140 288.460,201.156 289.900,199.587 291.000 C 196.419 293.221,190.240 297.662,189.000 298.610 C 188.560 298.946,186.670 300.316,184.800 301.653 C 182.930 302.990,180.950 304.427,180.400 304.846 C 179.850 305.265,178.680 306.081,177.800 306.659 C 176.920 307.237,175.930 307.963,175.600 308.271 C 174.516 309.285,168.397 313.600,168.043 313.600 C 167.853 313.600,167.454 313.894,167.155 314.254 C 166.856 314.614,165.979 315.328,165.206 315.841 C 164.433 316.353,163.080 317.314,162.200 317.977 C 157.336 321.636,153.179 324.387,152.100 324.660 C 151.605 324.785,151.200 325.043,151.200 325.233 C 151.200 325.424,150.650 325.864,149.978 326.211 C 148.300 327.079,142.717 332.051,142.082 333.243 C 141.584 334.178,141.817 334.481,148.080 341.008 C 168.696 362.495,173.167 366.420,182.200 370.968 L 186.200 372.982 191.898 373.128 C 197.359 373.269,197.776 373.222,201.898 371.997 C 208.998 369.887,216.494 366.732,217.615 365.382 C 217.881 365.062,218.285 364.800,218.514 364.800 C 219.018 364.800,222.512 362.630,224.279 361.221 C 224.982 360.659,226.298 359.660,227.202 359.000 C 229.489 357.331,234.173 353.448,236.818 351.029 C 238.038 349.913,240.628 347.560,242.575 345.800 C 244.522 344.040,246.846 341.925,247.740 341.100 C 248.633 340.275,249.517 339.600,249.703 339.600 C 251.274 339.600,252.191 257.539,250.643 255.500 C 249.964 254.606,250.246 254.504,247.000 256.810 " stroke="none" fill="#f40054" fill-rule="evenodd"></path></g></svg>