<svg id="svg" version="1.1" xmlns="http://www.w3.org/2000/svg" xmlns:xlink="http://www.w3.org/1999/xlink" width="400" height="400" viewBox="0, 0, 400,400"><g id="svgg"><path id="path0" d="M53.200 1.600 L 53.200 3.200 49.900 3.234 C 48.085 3.253,45.667 3.240,44.526 3.206 C 41.301 3.110,40.786 3.562,40.851 6.429 C 40.921 9.507,41.256 9.327,34.948 9.588 C 28.665 9.848,28.400 10.004,28.400 13.422 L 28.400 15.490 25.724 15.705 C 22.385 15.973,21.921 16.487,22.051 19.773 L 22.145 22.145 19.773 22.051 C 16.487 21.921,15.973 22.385,15.705 25.724 L 15.490 28.400 13.422 28.400 C 10.004 28.400,9.848 28.665,9.588 34.948 C 9.327 41.256,9.507 40.921,6.429 40.851 C 3.562 40.786,3.110 41.301,3.206 44.526 C 3.240 45.667,3.253 48.085,3.234 49.900 L 3.200 53.200 1.600 53.200 L 0.000 53.200 0.000 200.000 L 0.000 346.800 1.600 346.800 L 3.200 346.800 3.200 352.520 C 3.200 359.211,3.194 359.200,6.680 359.200 C 8.066 359.200,9.217 359.245,9.239 359.300 C 9.260 359.355,9.398 361.892,9.545 364.937 C 9.841 371.057,10.085 371.594,12.576 371.605 C 15.251 371.617,15.478 371.841,15.706 374.683 C 15.955 377.787,16.183 377.986,19.500 377.994 L 22.000 378.000 22.006 380.500 C 22.014 383.871,22.194 384.063,25.555 384.304 L 28.400 384.507 28.400 386.577 C 28.400 390.050,30.001 390.792,37.500 390.798 L 40.800 390.800 40.800 393.320 C 40.800 396.806,40.789 396.800,47.480 396.800 L 53.200 396.800 53.200 398.400 L 53.200 400.000 200.000 400.000 L 346.800 400.000 346.800 398.400 L 346.800 396.800 352.520 396.800 C 359.211 396.800,359.200 396.806,359.200 393.320 L 359.200 390.800 363.700 390.798 C 370.905 390.794,371.990 390.135,371.998 385.755 L 372.000 384.510 374.650 384.297 C 377.790 384.045,377.986 383.823,377.994 380.500 L 378.000 378.000 380.500 377.994 C 383.820 377.986,384.045 377.789,384.295 374.667 L 384.507 372.033 386.353 371.783 C 390.296 371.249,390.410 371.047,390.702 364.100 L 390.908 359.200 393.374 359.200 C 396.798 359.200,396.800 359.196,396.800 352.520 L 396.800 346.800 398.400 346.800 L 400.000 346.800 400.000 200.000 L 400.000 53.200 398.400 53.200 L 396.800 53.200 396.800 47.774 C 396.800 41.290,396.592 40.718,394.271 40.809 C 390.549 40.955,390.800 41.194,390.798 37.500 C 390.792 30.001,390.050 28.400,386.578 28.400 L 384.510 28.400 384.295 25.724 C 384.026 22.380,383.501 21.900,380.299 22.075 L 377.999 22.200 377.999 19.776 C 378.000 16.527,377.541 15.991,374.516 15.717 C 371.861 15.476,371.617 15.213,371.605 12.576 C 371.594 10.085,371.057 9.841,364.937 9.545 C 361.892 9.398,359.355 9.260,359.300 9.239 C 359.245 9.217,359.200 8.036,359.200 6.614 C 359.200 3.542,358.726 3.109,355.474 3.206 C 354.333 3.240,351.915 3.253,350.100 3.234 L 346.800 3.200 346.800 1.600 L 346.800 0.000 200.000 0.000 L 53.200 0.000 53.200 1.600 M238.519 62.823 C 240.213 63.936,241.600 65.014,241.600 65.220 C 241.600 65.425,243.265 66.845,245.300 68.374 C 247.335 69.903,249.597 71.770,250.327 72.524 C 251.589 73.827,252.585 74.470,254.063 74.937 C 254.428 75.052,255.671 76.284,256.825 77.673 C 257.979 79.063,259.565 80.563,260.349 81.006 C 261.133 81.449,262.426 82.672,263.221 83.725 C 264.016 84.777,265.546 86.214,266.620 86.919 C 267.695 87.624,269.086 88.964,269.712 89.898 C 270.338 90.832,271.667 92.158,272.666 92.845 C 273.719 93.570,274.758 94.710,275.141 95.560 C 276.001 97.474,277.057 98.764,278.900 100.160 C 279.725 100.784,281.038 102.345,281.818 103.629 C 282.598 104.913,284.009 106.647,284.954 107.482 C 285.898 108.317,287.540 110.530,288.602 112.400 C 289.664 114.270,291.141 116.559,291.883 117.487 C 292.625 118.415,293.687 120.202,294.242 121.457 C 294.797 122.712,296.051 124.527,297.028 125.491 C 298.980 127.415,299.725 128.722,301.401 133.165 C 302.016 134.796,303.098 136.776,303.805 137.565 C 305.705 139.686,308.400 145.829,308.400 148.039 C 308.400 148.424,308.825 149.247,309.345 149.869 C 310.979 151.823,311.970 154.225,313.627 160.248 C 314.510 163.460,315.770 167.152,316.426 168.451 C 317.879 171.330,318.956 175.772,319.807 182.400 C 320.160 185.150,320.883 189.470,321.415 192.000 C 323.002 199.557,323.745 214.899,322.820 221.000 C 322.153 225.401,320.814 233.352,320.024 237.600 C 318.297 246.891,318.514 248.347,322.309 252.939 C 323.183 253.997,324.118 255.343,324.388 255.931 C 325.856 259.134,327.114 261.200,328.639 262.910 C 329.986 264.423,330.642 265.726,331.790 269.170 C 332.685 271.857,333.752 274.184,334.580 275.259 C 336.194 277.354,336.820 279.140,338.152 285.449 C 338.710 288.093,339.690 291.863,340.330 293.828 C 343.149 302.490,343.596 324.400,340.953 324.400 C 340.838 324.400,339.362 323.825,337.672 323.123 C 334.266 321.707,333.715 321.176,331.397 317.072 C 330.228 315.004,329.163 313.755,327.467 312.467 C 326.188 311.495,324.983 310.281,324.788 309.769 C 324.424 308.810,322.550 307.810,316.800 305.504 C 315.150 304.843,312.777 303.787,311.527 303.159 C 305.637 300.197,289.392 300.620,282.988 303.901 C 282.101 304.355,280.301 305.038,278.988 305.418 C 274.753 306.643,270.226 308.484,269.200 309.397 C 267.815 310.629,266.348 311.374,262.400 312.847 C 260.530 313.544,258.056 314.736,256.902 315.495 C 254.179 317.286,251.777 318.178,245.846 319.599 C 243.181 320.237,239.830 321.227,238.400 321.798 C 231.407 324.591,222.555 325.598,204.400 325.667 C 186.100 325.737,173.679 324.600,166.653 322.213 C 164.424 321.455,159.360 320.041,155.400 319.069 C 149.966 317.737,147.317 316.862,144.600 315.501 C 142.620 314.510,139.267 313.129,137.149 312.433 C 135.030 311.736,132.263 310.544,131.000 309.783 C 129.737 309.022,128.575 308.400,128.419 308.400 C 127.460 308.400,119.181 304.597,117.902 303.569 C 116.432 302.388,110.911 299.600,110.041 299.600 C 109.815 299.600,108.571 298.655,107.276 297.500 C 105.982 296.345,104.400 295.135,103.761 294.812 C 103.123 294.489,101.652 293.634,100.492 292.912 C 99.333 292.190,98.236 291.600,98.054 291.600 C 97.873 291.600,97.393 291.235,96.989 290.788 C 96.585 290.342,94.983 289.140,93.427 288.117 C 91.872 287.094,89.610 285.323,88.400 284.180 C 87.190 283.037,85.570 281.789,84.800 281.406 C 84.030 281.023,82.320 279.605,81.000 278.255 C 79.680 276.905,77.880 275.432,77.000 274.983 C 75.965 274.454,75.154 273.648,74.704 272.699 C 74.308 271.863,73.069 270.538,71.826 269.619 C 70.625 268.732,69.088 267.200,68.410 266.215 C 67.732 265.229,66.377 263.873,65.400 263.200 C 64.423 262.527,63.099 261.217,62.458 260.289 C 61.817 259.360,60.536 257.994,59.611 257.253 C 58.687 256.512,57.289 254.892,56.506 253.653 C 55.722 252.414,54.152 250.561,53.016 249.536 C 51.690 248.338,50.760 247.092,50.417 246.051 C 49.844 244.314,48.024 242.188,46.769 241.790 C 45.884 241.509,45.823 241.027,46.448 239.235 C 46.739 238.399,47.090 238.026,47.453 238.165 C 47.759 238.283,49.223 238.498,50.705 238.643 C 53.787 238.946,54.324 239.172,56.800 241.212 C 57.790 242.027,59.658 243.168,60.951 243.748 C 62.244 244.328,64.474 245.639,65.907 246.661 C 67.340 247.684,69.972 249.095,71.756 249.797 C 75.721 251.358,77.583 252.301,80.258 254.103 C 81.522 254.954,83.607 255.827,85.658 256.362 C 91.370 257.853,92.910 258.374,95.800 259.796 C 97.844 260.802,100.484 261.563,105.579 262.618 C 109.417 263.412,114.588 264.677,117.069 265.429 C 127.395 268.559,145.268 269.724,162.645 268.398 C 167.741 268.009,169.734 267.588,179.384 264.858 C 181.795 264.176,185.215 263.331,186.984 262.981 C 190.909 262.202,193.906 261.138,195.912 259.811 C 196.743 259.261,198.938 258.357,200.790 257.803 C 207.085 255.919,208.620 254.850,208.461 252.463 C 208.175 248.198,206.806 245.968,203.200 243.897 C 202.210 243.328,200.410 241.977,199.200 240.895 C 197.990 239.812,196.220 238.436,195.266 237.837 C 194.312 237.237,192.062 235.337,190.266 233.614 C 188.470 231.891,186.372 229.968,185.604 229.341 C 184.836 228.713,183.772 227.689,183.239 227.065 C 182.706 226.441,181.175 225.235,179.835 224.385 C 178.496 223.535,176.611 221.844,175.647 220.628 C 174.682 219.411,173.314 218.074,172.607 217.657 C 171.899 217.239,170.735 216.083,170.020 215.088 C 169.306 214.093,167.955 212.729,167.019 212.057 C 166.083 211.384,164.013 209.585,162.419 208.057 C 160.825 206.529,159.256 205.036,158.934 204.740 C 158.611 204.443,157.816 203.433,157.167 202.495 C 156.518 201.557,155.115 200.163,154.048 199.396 C 152.981 198.630,151.647 197.306,151.084 196.455 C 150.521 195.604,149.215 194.209,148.182 193.354 C 147.149 192.499,145.920 191.367,145.452 190.837 C 144.983 190.307,143.508 188.687,142.173 187.237 C 140.838 185.787,139.365 184.097,138.901 183.482 C 137.763 181.975,129.385 173.005,127.453 171.225 C 126.603 170.441,125.278 168.810,124.509 167.600 C 123.740 166.390,122.226 164.617,121.145 163.660 C 120.064 162.703,118.889 161.353,118.535 160.660 C 118.180 159.967,116.827 158.433,115.528 157.251 C 114.229 156.070,112.827 154.437,112.412 153.624 C 111.997 152.811,110.970 151.522,110.129 150.761 C 109.288 149.999,107.809 148.158,106.842 146.671 C 105.875 145.183,104.305 143.280,103.353 142.443 C 102.402 141.605,100.804 139.807,99.803 138.447 C 98.802 137.087,97.003 134.908,95.805 133.606 C 94.608 132.303,93.086 130.276,92.423 129.102 C 91.760 127.928,90.502 126.434,89.626 125.783 C 88.751 125.133,87.590 123.790,87.046 122.800 C 86.502 121.810,85.050 120.131,83.819 119.068 C 82.073 117.562,81.473 116.739,81.097 115.330 C 80.611 113.513,80.276 113.084,77.480 110.697 L 75.960 109.400 76.585 107.635 C 77.548 104.918,77.856 104.704,79.119 105.878 C 80.421 107.087,82.897 108.399,83.884 108.402 C 84.278 108.403,85.458 109.293,86.507 110.380 C 87.555 111.467,89.085 112.734,89.907 113.197 C 90.728 113.659,91.805 114.656,92.299 115.412 C 92.794 116.168,94.128 117.465,95.263 118.293 C 96.398 119.122,98.333 120.812,99.563 122.048 C 100.794 123.285,102.654 124.696,103.698 125.183 C 104.873 125.732,106.169 126.802,107.098 127.992 C 107.924 129.049,109.536 130.478,110.679 131.167 C 111.822 131.856,113.262 133.028,113.879 133.771 C 114.496 134.514,116.350 136.024,118.000 137.128 C 119.650 138.231,121.529 139.689,122.175 140.367 C 122.821 141.045,123.577 141.600,123.855 141.600 C 124.133 141.600,124.504 141.847,124.680 142.149 C 124.856 142.450,125.990 143.333,127.200 144.109 C 128.410 144.885,130.030 146.184,130.800 146.994 C 131.570 147.805,133.010 148.931,134.000 149.496 C 134.990 150.061,136.880 151.559,138.200 152.824 C 140.244 154.782,145.474 158.400,146.262 158.400 C 146.399 158.400,147.261 159.092,148.179 159.938 C 149.096 160.783,151.116 162.217,152.668 163.123 C 154.219 164.029,155.777 165.210,156.129 165.748 C 156.481 166.286,158.185 167.645,159.914 168.768 C 161.643 169.892,163.461 171.356,163.954 172.023 C 164.446 172.689,165.693 173.609,166.725 174.067 C 171.523 176.197,173.605 177.354,174.552 178.417 C 176.903 181.055,179.424 181.302,180.475 178.996 C 181.036 177.763,179.081 175.413,177.139 174.987 C 176.327 174.808,175.931 174.429,175.762 173.668 C 175.278 171.488,174.344 170.027,172.382 168.385 C 171.275 167.458,170.083 166.137,169.735 165.449 C 169.387 164.762,167.909 163.014,166.451 161.565 C 163.427 158.559,158.400 152.979,158.400 152.627 C 158.400 152.081,153.754 146.105,152.510 145.052 C 151.765 144.421,150.413 142.891,149.507 141.652 C 148.601 140.413,147.189 138.816,146.370 138.103 C 145.550 137.390,144.343 135.860,143.687 134.703 C 143.030 133.546,141.784 131.790,140.917 130.800 C 140.050 129.810,138.883 128.224,138.324 127.275 C 137.765 126.326,136.038 124.151,134.487 122.442 C 132.936 120.733,131.113 118.460,130.436 117.392 C 129.759 116.324,128.213 114.506,127.002 113.351 C 125.402 111.826,124.800 110.959,124.800 110.180 C 124.800 109.374,124.104 108.441,122.000 106.427 C 120.223 104.725,119.200 103.431,119.200 102.881 C 119.200 101.062,118.017 99.013,116.496 98.198 L 115.000 97.397 114.942 94.098 C 114.878 90.491,115.466 89.695,116.417 92.100 C 117.229 94.152,117.936 94.728,120.287 95.255 C 122.252 95.694,122.656 95.974,124.106 97.893 C 124.997 99.074,126.492 100.489,127.428 101.038 C 128.364 101.586,129.864 102.972,130.762 104.117 C 131.660 105.263,133.027 106.650,133.801 107.200 C 134.575 107.750,136.511 109.422,138.104 110.915 C 141.636 114.227,141.086 113.695,144.094 116.721 C 149.891 122.554,151.884 124.341,153.341 125.016 C 154.194 125.411,155.712 126.748,156.741 128.010 C 157.763 129.264,159.283 130.719,160.118 131.245 C 160.952 131.770,162.360 133.058,163.247 134.106 C 164.133 135.155,165.797 136.613,166.943 137.346 C 168.090 138.080,169.530 139.277,170.144 140.006 C 170.758 140.736,171.781 141.618,172.417 141.966 C 173.620 142.625,176.085 144.621,179.190 147.450 C 180.185 148.357,182.028 149.753,183.285 150.552 C 184.542 151.352,186.072 152.640,186.685 153.415 C 187.298 154.191,189.056 155.675,190.592 156.713 C 192.127 157.751,193.911 159.197,194.556 159.926 C 195.200 160.655,196.591 161.689,197.646 162.224 C 198.702 162.758,200.428 164.036,201.482 165.062 C 202.537 166.089,204.645 167.728,206.166 168.704 C 207.687 169.680,209.847 171.337,210.966 172.387 C 212.085 173.436,213.900 174.686,215.000 175.165 C 216.100 175.644,217.990 176.999,219.200 178.177 C 220.410 179.355,222.120 180.683,223.000 181.128 C 223.880 181.573,225.770 182.939,227.200 184.164 C 228.630 185.389,230.991 187.020,232.446 187.789 C 233.902 188.558,236.062 189.969,237.246 190.925 C 238.431 191.881,240.236 193.141,241.259 193.724 C 242.281 194.308,244.038 195.571,245.164 196.532 C 246.860 197.980,247.736 198.394,250.284 198.954 L 253.357 199.630 254.643 198.315 C 255.878 197.052,258.400 188.828,258.400 186.064 C 258.400 185.612,258.843 183.837,259.384 182.121 C 262.894 170.992,262.742 146.751,259.068 131.600 C 258.184 127.956,256.932 122.011,256.205 118.000 C 255.437 113.766,254.120 109.652,253.196 108.600 C 252.026 107.268,251.276 105.478,250.035 101.060 C 248.685 96.250,248.536 95.931,246.151 92.690 C 245.188 91.382,244.400 90.151,244.400 89.953 C 244.400 88.991,241.394 82.076,240.594 81.200 C 240.092 80.650,238.741 78.310,237.592 76.000 C 236.443 73.690,234.802 71.037,233.947 70.104 C 230.928 66.813,230.461 63.902,232.608 61.755 C 233.998 60.366,235.071 60.560,238.519 62.823 " stroke="none" fill="#f24d2a" fill-rule="evenodd"></path><path id="path1" d="M232.608 61.755 C 230.461 63.902,230.928 66.813,233.947 70.104 C 234.802 71.037,236.443 73.690,237.592 76.000 C 238.741 78.310,240.092 80.650,240.594 81.200 C 241.394 82.076,244.400 88.991,244.400 89.953 C 244.400 90.151,245.188 91.382,246.151 92.690 C 248.536 95.931,248.685 96.250,250.035 101.060 C 251.276 105.478,252.026 107.268,253.196 108.600 C 254.120 109.652,255.437 113.766,256.205 118.000 C 256.932 122.011,258.184 127.956,259.068 131.600 C 262.742 146.751,262.894 170.992,259.384 182.121 C 258.843 183.837,258.400 185.612,258.400 186.064 C 258.400 188.828,255.878 197.052,254.643 198.315 L 253.357 199.630 250.284 198.954 C 247.736 198.394,246.860 197.980,245.164 196.532 C 244.038 195.571,242.281 194.308,241.259 193.724 C 240.236 193.141,238.431 191.881,237.246 190.925 C 236.062 189.969,233.902 188.558,232.446 187.789 C 230.991 187.020,228.630 185.389,227.200 184.164 C 225.770 182.939,223.880 181.573,223.000 181.128 C 222.120 180.683,220.410 179.355,219.200 178.177 C 217.990 176.999,216.100 175.644,215.000 175.165 C 213.900 174.686,212.085 173.436,210.966 172.387 C 209.847 171.337,207.687 169.680,206.166 168.704 C 204.645 167.728,202.537 166.089,201.482 165.062 C 200.428 164.036,198.702 162.758,197.646 162.224 C 196.591 161.689,195.200 160.655,194.556 159.926 C 193.911 159.197,192.127 157.751,190.592 156.713 C 189.056 155.675,187.298 154.191,186.685 153.415 C 186.072 152.640,184.542 151.352,183.285 150.552 C 182.028 149.753,180.185 148.357,179.190 147.450 C 176.085 144.621,173.620 142.625,172.417 141.966 C 171.781 141.618,170.758 140.736,170.144 140.006 C 169.530 139.277,168.090 138.080,166.943 137.346 C 165.797 136.613,164.133 135.155,163.247 134.106 C 162.360 133.058,160.952 131.770,160.118 131.245 C 159.283 130.719,157.763 129.264,156.741 128.010 C 155.712 126.748,154.194 125.411,153.341 125.016 C 151.884 124.341,149.891 122.554,144.094 116.721 C 141.086 113.695,141.636 114.227,138.104 110.915 C 136.511 109.422,134.575 107.750,133.801 107.200 C 133.027 106.650,131.660 105.263,130.762 104.117 C 129.864 102.972,128.364 101.586,127.428 101.038 C 126.492 100.489,124.997 99.074,124.106 97.893 C 122.656 95.974,122.252 95.694,120.287 95.255 C 117.936 94.728,117.229 94.152,116.417 92.100 C 115.466 89.695,114.878 90.491,114.942 94.098 L 115.000 97.397 116.496 98.198 C 118.017 99.013,119.200 101.062,119.200 102.881 C 119.200 103.431,120.223 104.725,122.000 106.427 C 124.104 108.441,124.800 109.374,124.800 110.180 C 124.800 110.959,125.402 111.826,127.002 113.351 C 128.213 114.506,129.759 116.324,130.436 117.392 C 131.113 118.460,132.936 120.733,134.487 122.442 C 136.038 124.151,137.765 126.326,138.324 127.275 C 138.883 128.224,140.050 129.810,140.917 130.800 C 141.784 131.790,143.030 133.546,143.687 134.703 C 144.343 135.860,145.550 137.390,146.370 138.103 C 147.189 138.816,148.601 140.413,149.507 141.652 C 150.413 142.891,151.765 144.421,152.510 145.052 C 153.754 146.105,158.400 152.081,158.400 152.627 C 158.400 152.979,163.427 158.559,166.451 161.565 C 167.909 163.014,169.387 164.762,169.735 165.449 C 170.083 166.137,171.275 167.458,172.382 168.385 C 174.344 170.027,175.278 171.488,175.762 173.668 C 175.931 174.429,176.327 174.808,177.139 174.987 C 179.081 175.413,181.036 177.763,180.475 178.996 C 179.424 181.302,176.903 181.055,174.552 178.417 C 173.605 177.354,171.523 176.197,166.725 174.067 C 165.693 173.609,164.446 172.689,163.954 172.023 C 163.461 171.356,161.643 169.892,159.914 168.768 C 158.185 167.645,156.481 166.286,156.129 165.748 C 155.777 165.210,154.219 164.029,152.668 163.123 C 151.116 162.217,149.096 160.783,148.179 159.938 C 147.261 159.092,146.399 158.400,146.262 158.400 C 145.474 158.400,140.244 154.782,138.200 152.824 C 136.880 151.559,134.990 150.061,134.000 149.496 C 133.010 148.931,131.570 147.805,130.800 146.994 C 130.030 146.184,128.410 144.885,127.200 144.109 C 125.990 143.333,124.856 142.450,124.680 142.149 C 124.504 141.847,124.133 141.600,123.855 141.600 C 123.577 141.600,122.821 141.045,122.175 140.367 C 121.529 139.689,119.650 138.231,118.000 137.128 C 116.350 136.024,114.496 134.514,113.879 133.771 C 113.262 133.028,111.822 131.856,110.679 131.167 C 109.536 130.478,107.924 129.049,107.098 127.992 C 106.169 126.802,104.873 125.732,103.698 125.183 C 102.654 124.696,100.794 123.285,99.563 122.048 C 98.333 120.812,96.398 119.122,95.263 118.293 C 94.128 117.465,92.794 116.168,92.299 115.412 C 91.805 114.656,90.728 113.659,89.907 113.197 C 89.085 112.734,87.555 111.467,86.507 110.380 C 85.458 109.293,84.278 108.403,83.884 108.402 C 82.897 108.399,80.421 107.087,79.119 105.878 C 77.856 104.704,77.548 104.918,76.585 107.635 L 75.960 109.400 77.480 110.697 C 80.276 113.084,80.611 113.513,81.097 115.330 C 81.473 116.739,82.073 117.562,83.819 119.068 C 85.050 120.131,86.502 121.810,87.046 122.800 C 87.590 123.790,88.751 125.133,89.626 125.783 C 90.502 126.434,91.760 127.928,92.423 129.102 C 93.086 130.276,94.608 132.303,95.805 133.606 C 97.003 134.908,98.802 137.087,99.803 138.447 C 100.804 139.807,102.402 141.605,103.353 142.443 C 104.305 143.280,105.875 145.183,106.842 146.671 C 107.809 148.158,109.288 149.999,110.129 150.761 C 110.970 151.522,111.997 152.811,112.412 153.624 C 112.827 154.437,114.229 156.070,115.528 157.251 C 116.827 158.433,118.180 159.967,118.535 160.660 C 118.889 161.353,120.064 162.703,121.145 163.660 C 122.226 164.617,123.740 166.390,124.509 167.600 C 125.278 168.810,126.603 170.441,127.453 171.225 C 129.385 173.005,137.763 181.975,138.901 183.482 C 139.365 184.097,140.838 185.787,142.173 187.237 C 143.508 188.687,144.983 190.307,145.452 190.837 C 145.920 191.367,147.149 192.499,148.182 193.354 C 149.215 194.209,150.521 195.604,151.084 196.455 C 151.647 197.306,152.981 198.630,154.048 199.396 C 155.115 200.163,156.518 201.557,157.167 202.495 C 157.816 203.433,158.611 204.443,158.934 204.740 C 159.256 205.036,160.825 206.529,162.419 208.057 C 164.013 209.585,166.083 211.384,167.019 212.057 C 167.955 212.729,169.306 214.093,170.020 215.088 C 170.735 216.083,171.899 217.239,172.607 217.657 C 173.314 218.074,174.682 219.411,175.647 220.628 C 176.611 221.844,178.496 223.535,179.835 224.385 C 181.175 225.235,182.706 226.441,183.239 227.065 C 183.772 227.689,184.836 228.713,185.604 229.341 C 186.372 229.968,188.470 231.891,190.266 233.614 C 192.062 235.337,194.312 237.237,195.266 237.837 C 196.220 238.436,197.990 239.812,199.200 240.895 C 200.410 241.977,202.210 243.328,203.200 243.897 C 206.806 245.968,208.175 248.198,208.461 252.463 C 208.620 254.850,207.085 255.919,200.790 257.803 C 198.938 258.357,196.743 259.261,195.912 259.811 C 193.906 261.138,190.909 262.202,186.984 262.981 C 185.215 263.331,181.795 264.176,179.384 264.858 C 169.734 267.588,167.741 268.009,162.645 268.398 C 145.268 269.724,127.395 268.559,117.069 265.429 C 114.588 264.677,109.417 263.412,105.579 262.618 C 100.484 261.563,97.844 260.802,95.800 259.796 C 92.910 258.374,91.370 257.853,85.658 256.362 C 83.607 255.827,81.522 254.954,80.258 254.103 C 77.583 252.301,75.721 251.358,71.756 249.797 C 69.972 249.095,67.340 247.684,65.907 246.661 C 64.474 245.639,62.244 244.328,60.951 243.748 C 59.658 243.168,57.790 242.027,56.800 241.212 C 54.324 239.172,53.787 238.946,50.705 238.643 C 49.223 238.498,47.759 238.283,47.453 238.165 C 47.090 238.026,46.739 238.399,46.448 239.235 C 45.823 241.027,45.884 241.509,46.769 241.790 C 48.024 242.188,49.844 244.314,50.417 246.051 C 50.760 247.092,51.690 248.338,53.016 249.536 C 54.152 250.561,55.722 252.414,56.506 253.653 C 57.289 254.892,58.687 256.512,59.611 257.253 C 60.536 257.994,61.817 259.360,62.458 260.289 C 63.099 261.217,64.423 262.527,65.400 263.200 C 66.377 263.873,67.732 265.229,68.410 266.215 C 69.088 267.200,70.625 268.732,71.826 269.619 C 73.069 270.538,74.308 271.863,74.704 272.699 C 75.154 273.648,75.965 274.454,77.000 274.983 C 77.880 275.432,79.680 276.905,81.000 278.255 C 82.320 279.605,84.030 281.023,84.800 281.406 C 85.570 281.789,87.190 283.037,88.400 284.180 C 89.610 285.323,91.872 287.094,93.427 288.117 C 94.983 289.140,96.585 290.342,96.989 290.788 C 97.393 291.235,97.873 291.600,98.054 291.600 C 98.236 291.600,99.333 292.190,100.492 292.912 C 101.652 293.634,103.123 294.489,103.761 294.812 C 104.400 295.135,105.982 296.345,107.276 297.500 C 108.571 298.655,109.815 299.600,110.041 299.600 C 110.911 299.600,116.432 302.388,117.902 303.569 C 119.181 304.597,127.460 308.400,128.419 308.400 C 128.575 308.400,129.737 309.022,131.000 309.783 C 132.263 310.544,135.030 311.736,137.149 312.433 C 139.267 313.129,142.620 314.510,144.600 315.501 C 147.317 316.862,149.966 317.737,155.400 319.069 C 159.360 320.041,164.424 321.455,166.653 322.213 C 173.679 324.600,186.100 325.737,204.400 325.667 C 222.555 325.598,231.407 324.591,238.400 321.798 C 239.830 321.227,243.181 320.237,245.846 319.599 C 251.777 318.178,254.179 317.286,256.902 315.495 C 258.056 314.736,260.530 313.544,262.400 312.847 C 266.348 311.374,267.815 310.629,269.200 309.397 C 270.226 308.484,274.753 306.643,278.988 305.418 C 280.301 305.038,282.101 304.355,282.988 303.901 C 289.392 300.620,305.637 300.197,311.527 303.159 C 312.777 303.787,315.150 304.843,316.800 305.504 C 322.550 307.810,324.424 308.810,324.788 309.769 C 324.983 310.281,326.188 311.495,327.467 312.467 C 329.163 313.755,330.228 315.004,331.397 317.072 C 333.715 321.176,334.266 321.707,337.672 323.123 C 339.362 323.825,340.838 324.400,340.953 324.400 C 343.596 324.400,343.149 302.490,340.330 293.828 C 339.690 291.863,338.710 288.093,338.152 285.449 C 336.820 279.140,336.194 277.354,334.580 275.259 C 333.752 274.184,332.685 271.857,331.790 269.170 C 330.642 265.726,329.986 264.423,328.639 262.910 C 327.114 261.200,325.856 259.134,324.388 255.931 C 324.118 255.343,323.183 253.997,322.309 252.939 C 318.514 248.347,318.297 246.891,320.024 237.600 C 320.814 233.352,322.153 225.401,322.820 221.000 C 323.745 214.899,323.002 199.557,321.415 192.000 C 320.883 189.470,320.160 185.150,319.807 182.400 C 318.956 175.772,317.879 171.330,316.426 168.451 C 315.770 167.152,314.510 163.460,313.627 160.248 C 311.970 154.225,310.979 151.823,309.345 149.869 C 308.825 149.247,308.400 148.424,308.400 148.039 C 308.400 145.829,305.705 139.686,303.805 137.565 C 303.098 136.776,302.016 134.796,301.401 133.165 C 299.725 128.722,298.980 127.415,297.028 125.491 C 296.051 124.527,294.797 122.712,294.242 121.457 C 293.687 120.202,292.625 118.415,291.883 117.487 C 291.141 116.559,289.664 114.270,288.602 112.400 C 287.540 110.530,285.898 108.317,284.954 107.482 C 284.009 106.647,282.598 104.913,281.818 103.629 C 281.038 102.345,279.725 100.784,278.900 100.160 C 277.057 98.764,276.001 97.474,275.141 95.560 C 274.758 94.710,273.719 93.570,272.666 92.845 C 271.667 92.158,270.338 90.832,269.712 89.898 C 269.086 88.964,267.695 87.624,266.620 86.919 C 265.546 86.214,264.016 84.777,263.221 83.725 C 262.426 82.672,261.133 81.449,260.349 81.006 C 259.565 80.563,257.979 79.063,256.825 77.673 C 255.671 76.284,254.428 75.052,254.063 74.937 C 252.585 74.470,251.589 73.827,250.327 72.524 C 249.597 71.770,247.335 69.903,245.300 68.374 C 243.265 66.845,241.600 65.425,241.600 65.220 C 241.600 64.595,235.503 60.800,234.500 60.800 C 233.985 60.800,233.134 61.230,232.608 61.755 " stroke="none" fill="#fbf9f8" fill-rule="evenodd"></path></g></svg>