<?xml version="1.0" encoding="UTF-8"?>
<svg version="1.1" viewBox="0 0 400 400" xmlns="http://www.w3.org/2000/svg">
<g fill-rule="evenodd">
<path d="m184.32 75.403c2.015 1.812 2.772 2.93 4.738 6.997 1.865 3.856 2.734 6.767 2.368 7.922-0.294 0.925-1.781 1.589-2.175 0.971-0.853-1.339-3.127-2.09-6.336-2.092l-3.287-1e-3 1.187 1.758c0.652 0.967 1.186 2.126 1.186 2.576 0 0.451 0.18 0.93 0.4 1.066 0.222 0.137 0.4 1.97 0.4 4.124-1e-3 4.641-0.822 6.162-3.26 6.038-0.914-0.046-2.23 0.436-4.14 1.518-1.54 0.873-3.7 2.092-4.8 2.709-2.455 1.377-4.064 2.515-7.939 5.611-1.652 1.32-3.872 3.029-4.932 3.797-1.061 0.769-2.019 1.494-2.129 1.611s-1.37 1.198-2.8 2.402c-1.43 1.205-2.768 2.46-2.973 2.79-0.204 0.33-1.779 2.072-3.5 3.871-1.72 1.799-3.127 3.424-3.127 3.611 0 0.188-0.642 1.002-1.427 1.81-1.655 1.704-2.227 2.471-6.571 8.812-5.065 7.392-6.138 10.077-9.233 23.096-1.353 5.688-1.728 7.494-2.372 11.4-1.242 7.534-1.366 9.407-1.336 20.2 0.03 10.472 0.222 13.33 1.318 19.6 0.211 1.21 0.554 3.216 0.762 4.458 1.678 10.012 8.99 21.542 13.662 21.542 0.326 0 0.397-0.902 0.242-3.1-0.121-1.705-0.366-6.34-0.546-10.3-0.179-3.96-0.439-7.382-0.577-7.605-0.138-0.222-0.299-3.912-0.357-8.2-0.058-4.287-0.265-8.392-0.461-9.122-0.433-1.612 0.135-2.471 1.647-2.494 0.577-9e-3 11.309-0.168 23.849-0.354s23.675-0.358 24.743-0.382c1.841-0.041 1.931-0.094 1.704-0.997-0.151-0.604-0.02-1.136 0.357-1.449 0.328-0.272 0.598-0.788 0.601-1.146 0.015-1.788 3.998-7.542 6.819-9.851 6.148-5.03 14.457-3.096 17.803 4.143 0.573 1.242 1.207 2.57 1.408 2.952s0.365 1.136 0.365 1.676 0.18 1.093 0.4 1.229 0.4 0.867 0.4 1.624v1.376h27.751c30.002 0 30.385 0.027 27.977 1.977-0.716 0.58-0.882 1.263-1.078 4.454-0.127 2.073-0.415 5.164-0.641 6.869-0.225 1.705-0.592 4.495-0.816 6.2-0.223 1.705-0.583 4.405-0.8 6-0.216 1.595-0.567 4.205-0.779 5.8-0.213 1.595-0.501 3.665-0.642 4.6-0.594 3.946 4.574-0.187 9.628-7.7 1.414-2.103 3.808-7.273 4.629-10 0.265-0.88 0.623-1.96 0.796-2.4 0.321-0.815 0.518-1.653 1.221-5.2 1.722-8.678 1.714-21.21-0.019-31.6-0.22-1.32-0.508-3.12-0.639-4-0.13-0.88-0.394-1.96-0.586-2.4-0.191-0.44-0.458-1.43-0.594-2.2-0.135-0.77-0.347-1.987-0.471-2.704s-0.386-1.402-0.581-1.523c-0.196-0.121-0.356-0.739-0.356-1.373s-0.18-1.264-0.4-1.4-0.4-0.676-0.4-1.2-0.18-1.064-0.4-1.2-0.4-0.599-0.4-1.029-0.165-1.094-0.366-1.476-0.95-2.225-1.663-4.095c-1.461-3.83-3.58-8.622-4.853-10.973-0.468-0.865-1.406-2.665-2.085-4-0.678-1.335-1.368-2.607-1.532-2.827-0.165-0.22-1.566-2.35-3.115-4.733s-2.983-4.543-3.187-4.8c-5.964-7.504-8.69-10.45-13.199-14.267-1.43-1.21-2.69-2.313-2.8-2.451-0.521-0.654-8.515-5.527-11-6.705-1.54-0.731-3.113-1.489-3.495-1.686s-1.046-0.358-1.476-0.358-0.88-0.159-1-0.354c-0.224-0.362-1.174-0.6-5.029-1.257-5.457-0.931-7.069-0.939-8.976-0.042-5.326 2.503-8.532 1.025-8.548-3.943-0.012-3.758-1.901-8.961-4.117-11.34-0.417-0.448-0.759-0.985-0.759-1.192 0-0.208-1.672-2.019-3.715-4.025-3.572-3.506-4.582-4.173-10.78-7.117-0.382-0.182-1.616-0.33-2.743-0.33h-2.049l2.006 1.803m121.19 24.821c-0.142 0.141-1.394 0.426-2.784 0.632-4.305 0.638-5.126 0.821-5.353 1.188-0.121 0.196-0.649 0.356-1.173 0.356s-1.064 0.18-1.2 0.4-0.58 0.4-0.986 0.4-1.43 0.343-2.276 0.761c-0.846 0.419-2.528 1.221-3.738 1.781-7.459 3.457-21.6 16.091-21.6 19.298 0 0.13-0.381 0.771-0.846 1.424l-0.845 1.187 0.845 0.901c0.465 0.495 0.846 1.085 0.846 1.312s0.36 0.738 0.8 1.136 0.8 0.966 0.8 1.262 0.158 0.538 0.351 0.538c0.194 0 0.576 0.54 0.849 1.2s0.655 1.2 0.849 1.2c0.193 0 0.351 0.27 0.351 0.6s0.149 0.6 0.33 0.6c0.456 0 2.07-1.759 2.07-2.256 0-0.503 1.713-2.144 2.238-2.144 0.213 0 1.461-1.098 2.775-2.44 2.152-2.199 3.054-2.922 6.551-5.25 1.561-1.039 7.221-3.736 9.036-4.306 0.88-0.276 1.913-0.66 2.295-0.853s1.291-0.351 2.02-0.351 1.514-0.189 1.744-0.419c0.557-0.557 12.868-0.256 15.541 0.379 1.1 0.262 2.497 0.579 3.105 0.704 0.608 0.126 1.203 0.387 1.324 0.582 0.12 0.195 0.55 0.354 0.956 0.354 0.786 0 6.643 2.974 9.126 4.634 7.729 5.168 16.489 19.061 16.489 26.152 0 0.8 0.189 1.643 0.42 1.874 1.353 1.353-0.297 17.606-2.167 21.355-0.359 0.719-0.653 1.462-0.653 1.651 0 0.983-4.201 8.756-4.9 9.067-0.165 0.074-0.3 0.372-0.3 0.664 0 0.845-8.16 8.824-10.695 10.458-3.257 2.099-8.08 4.545-8.96 4.545-0.41 0-0.745 0.18-0.745 0.4s-0.54 0.4-1.2 0.4-1.2 0.16-1.2 0.356c0 0.364-0.887 0.563-5.8 1.299-6.394 0.957-13.477 0.296-19.508-1.822-2.535-0.89-2.692-0.715-2.692 3.003 0 2.686 0.11 3.224 0.7 3.412 0.385 0.122 1.87 0.737 3.3 1.365 3.186 1.4 5.495 2.142 11.1 3.569 5.064 1.288 20.098 1.271 21.48-0.025 0.209-0.197 0.876-0.357 1.481-0.357 0.606 0 1.515-0.157 2.02-0.35 0.506-0.192 1.909-0.672 3.119-1.067 3.444-1.123 10.426-4.54 12.385-6.061 0.338-0.262 1.768-1.334 3.177-2.38 7.566-5.62 15.323-16.069 18.07-24.342 0.292-0.88 0.675-1.771 0.85-1.98s0.318-0.783 0.318-1.276 0.18-1.008 0.4-1.144 0.4-0.741 0.4-1.344 0.162-1.267 0.359-1.476 0.461-1.1 0.586-1.98 0.447-3.04 0.715-4.8c0.88-5.78 0.526-14.183-0.859-20.4-0.245-1.1-0.545-2.587-0.667-3.304s-0.383-1.402-0.578-1.523c-0.196-0.121-0.356-0.624-0.356-1.117s-0.151-1.067-0.336-1.276-0.567-1.01-0.851-1.78c-1.017-2.767-1.413-3.6-1.711-3.6-0.166 0-0.306-0.315-0.311-0.7s-0.361-1.15-0.791-1.7-0.786-1.141-0.791-1.314c-0.029-1.025-4.802-7.098-8.399-10.686-5.981-5.967-12.672-10.414-20.01-13.3-0.55-0.216-1.313-0.552-1.695-0.747-0.382-0.194-1.048-0.353-1.481-0.353-0.432 0-1.2-0.161-1.705-0.358-1.526-0.595-4.014-1.225-5.919-1.498-2.553-0.367-15.781-0.63-16.09-0.32m-213.91 10.964c-0.55 0.183-1.754 0.35-2.676 0.372s-1.788 0.22-1.924 0.44-0.869 0.4-1.629 0.4-1.694 0.166-2.076 0.368-1.775 0.76-3.095 1.238c-3.05 1.106-9.545 4.339-10.99 5.472-0.336 0.262-1.78 1.33-3.21 2.372-2.986 2.176-9.989 8.947-10.968 10.604-0.363 0.614-0.885 1.348-1.159 1.631-0.275 0.283-0.935 1.145-1.467 1.915s-1.076 1.49-1.208 1.6c-0.442 0.369-6.667 13.007-6.9 14.01-0.126 0.545-0.714 2.79-1.307 4.99-1.875 6.966-2.885 21.591-1.85 26.8 0.218 1.1 0.605 3.17 0.859 4.6 0.466 2.625 1.038 4.686 2.476 8.914 0.854 2.513 4.047 8.898 4.959 9.917 0.311 0.348 0.565 0.815 0.565 1.039 0 0.223 0.36 0.732 0.8 1.13s0.8 0.89 0.8 1.094c0 1.279 10.627 11.906 11.906 11.906 0.204 0 0.696 0.36 1.094 0.8s0.88 0.8 1.07 0.8 1.017 0.419 1.838 0.93c0.821 0.512 2.572 1.358 3.892 1.88s2.571 1.094 2.78 1.27 0.783 0.32 1.276 0.32 0.996 0.16 1.117 0.356c0.121 0.195 0.806 0.458 1.523 0.583s2.294 0.434 3.504 0.686c3.086 0.643 14.784 0.951 15.332 0.403 0.235-0.235 1.054-0.428 1.82-0.428 0.765 0 1.944-0.168 2.62-0.373 0.675-0.205 2.038-0.583 3.028-0.839s2.113-0.628 2.495-0.827 0.883-0.361 1.115-0.361c0.436 0 7.469-3.373 10.09-4.839 0.825-0.462 1.5-1.077 1.5-1.367s0.218-0.6 0.485-0.689c0.38-0.127 0.38-0.512 0-1.78-0.267-0.89-0.485-2.891-0.485-4.448 0-3.164-0.278-3.592-1.653-2.546-0.521 0.396-1.667 1.043-2.547 1.438s-2.123 0.969-2.761 1.275c-0.639 0.306-1.458 0.556-1.82 0.556-0.363 0-0.83 0.151-1.039 0.336-0.209 0.184-1.415 0.544-2.68 0.8-1.265 0.255-3.273 0.669-4.463 0.919-3.25 0.684-14.571-0.578-15.266-1.701-0.12-0.195-0.536-0.354-0.924-0.354-1.75 0-9.624-4.601-12.447-7.275-2.319-2.196-5.983-6.491-5.992-7.025-4e-3 -0.275-0.188-0.5-0.408-0.5s-0.4-0.236-0.4-0.525c0-0.288-0.315-0.873-0.701-1.3-0.65-0.72-2.136-3.577-2.95-5.675-0.192-0.495-0.508-1.305-0.703-1.8-2.333-5.924-3.011-17.822-1.363-23.9 0.328-1.21 0.682-2.65 0.787-3.2s0.381-1.45 0.614-2 0.557-1.36 0.722-1.8c0.826-2.214 3.745-7.773 4.61-8.779 0.541-0.63 0.984-1.297 0.984-1.482 0-1.39 12.354-11.939 13.982-11.939 0.23 0 0.418-0.18 0.418-0.4s0.272-0.4 0.605-0.4 0.963-0.18 1.4-0.4 1.153-0.58 1.59-0.8 1.146-0.4 1.576-0.4 0.893-0.18 1.029-0.4 0.689-0.4 1.229-0.4 1.294-0.166 1.676-0.368c1.237-0.656 7.506-1.349 9.832-1.087 1.245 0.14 3.256 0.368 4.47 0.505 1.214 0.138 2.305 0.408 2.424 0.6 0.119 0.193 0.645 0.35 1.169 0.35s1.064 0.18 1.2 0.4 0.676 0.4 1.2 0.4 1.064 0.18 1.2 0.4 0.642 0.404 1.124 0.409 1.326 0.361 1.876 0.791 1.151 0.786 1.335 0.791c0.692 0.019 6.216 4.099 8.436 6.233 2.648 2.543 3.181 2.589 4.379 0.376 0.812-1.5 3.487-5.338 5.543-7.955 0.499-0.635 0.959-1.287 1.023-1.448 0.231-0.582-5.281-7.469-8.426-10.529-4.773-4.642-11.818-9.092-16.89-10.669-0.88-0.273-1.87-0.627-2.2-0.787-0.33-0.159-1.86-0.518-3.4-0.797s-3.25-0.639-3.8-0.8c-1.399-0.409-10.388-0.43-11.6-0.027m215.2 9.256c1.43 0.175 3.815 0.438 5.3 0.584s2.7 0.424 2.7 0.619c0 0.194 0.504 0.353 1.12 0.353s1.317 0.197 1.558 0.438c0.24 0.24 0.769 0.373 1.175 0.295 0.46-0.089 0.062-0.346-1.058-0.683-0.987-0.298-2.155-0.682-2.595-0.855-1.231-0.482-6.986-1.208-9-1.135-1.636 0.06-1.563 0.095 0.8 0.384m-8 0.397c-0.99 0.184-2.477 0.45-3.304 0.591s-1.602 0.417-1.723 0.612c-0.121 0.196-0.491 0.356-0.822 0.356-0.821 0-5.575 2.29-7.623 3.672-0.92 0.62-1.788 1.128-1.929 1.128s-0.526 0.27-0.856 0.6c-0.962 0.962-0.226 0.696 1.657-0.6 0.959-0.66 1.937-1.2 2.172-1.2s0.428-0.18 0.428-0.4 0.36-0.4 0.8-0.4 0.8-0.18 0.8-0.4 0.36-0.4 0.8-0.4 0.8-0.18 0.8-0.4 0.349-0.4 0.776-0.4 0.888-0.18 1.024-0.4 0.687-0.4 1.224-0.4 0.976-0.18 0.976-0.4 0.619-0.4 1.376-0.4 1.488-0.18 1.624-0.4 1.002-0.403 1.924-0.406 1.946-0.181 2.276-0.394c0.734-0.474 0.339-0.468-2.4 0.041m20.8 2.354c0 0.223 0.252 0.405 0.559 0.405 2.029 0 8.059 4.168 12.414 8.58 1.966 1.991 2.956 2.83 2.2 1.864-3.852-4.927-15.173-13.021-15.173-10.849m-38.976 6.129c-1.038 0.636-2.624 2.167-2.624 2.533 0 0.161 0.495-0.163 1.1-0.721 0.605-0.557 1.545-1.311 2.089-1.675 1.121-0.749 0.627-0.869-0.565-0.137m-208.02 2.281c0 0.858-1.162 0.734-1.331-0.141-0.103-0.535 0.06-0.698 0.595-0.595 0.405 0.078 0.736 0.409 0.736 0.736m203.37 2.296c-0.312 0.604-0.657 1.189-0.767 1.299-0.309 0.307-1.201 1.96-1.201 2.223 0 0.129 0.225-4e-3 0.5-0.294 0.638-0.675 2.366-3.996 2.177-4.185-0.078-0.079-0.397 0.352-0.709 0.957m-174.77 2.12c5.845 0.266 7.484 0.493 9.061 1.256 0.473 0.229 1.082 0.342 1.354 0.251 0.271-0.09-0.296-0.393-1.261-0.673s-2.307-0.677-2.982-0.882c-0.676-0.205-3.646-0.337-6.6-0.294l-5.372 0.079 5.8 0.263m-10 0.795c-1.21 0.422-1.66 0.674-1 0.559 2.339-0.407 4.737-0.979 4.934-1.175 0.463-0.464-1.899-0.094-3.934 0.616m244.8-0.651c0 0.091 0.619 1.105 1.375 2.253s1.774 3.099 2.262 4.335 1.04 2.418 1.225 2.627c0.186 0.209 0.338 0.873 0.338 1.476s0.18 1.208 0.4 1.344 0.4 0.741 0.4 1.344 0.193 1.289 0.43 1.526c0.574 0.574 0.567 14.615-8e-3 15.69-0.232 0.433-0.422 1.329-0.422 1.99 0 0.662-0.18 1.314-0.4 1.45s-0.4 0.676-0.4 1.2-0.18 1.064-0.4 1.2-0.4 0.592-0.4 1.014c0 0.719-2.541 5.882-4.238 8.612-1.153 1.854-5.803 7.121-7.162 8.113-0.66 0.482-2.093 1.585-3.184 2.451-1.817 1.443-4.32 2.822-8.348 4.602-0.843 0.372-1.437 0.772-1.32 0.889 0.339 0.339 6.181-2.629 9.31-4.73 5.582-3.747 11.257-10.389 13.972-16.351 0.35-0.77 0.802-1.713 1.004-2.095 0.201-0.382 0.366-1.057 0.366-1.5s0.18-0.805 0.4-0.805 0.4-0.439 0.4-0.976 0.18-1.088 0.4-1.224 0.4-0.921 0.4-1.744 0.2-1.696 0.443-1.939c0.627-0.627 0.642-15.592 0.016-16.218-0.252-0.252-0.459-0.862-0.459-1.355s-0.18-1.008-0.4-1.144-0.4-0.867-0.4-1.624-0.18-1.376-0.4-1.376-0.4-0.272-0.4-0.605-0.159-0.918-0.353-1.3c-0.195-0.382-0.597-1.235-0.894-1.895-0.932-2.073-3.553-5.933-3.553-5.235m-250.73 2.842c-1.61 0.764-3.197 1.659-3.529 1.991-0.331 0.331-0.761 0.602-0.955 0.602-0.195 0-0.804 0.45-1.354 1s-1.148 1-1.329 1c-0.807 0-6.743 6.701-8.681 9.8l-0.75 1.2 0.862-0.762c0.474-0.419 0.862-0.925 0.862-1.123 0-0.44 2.062-3.157 3.987-5.253 2.582-2.811 10.295-8.262 11.691-8.262 0.397 0 0.722-0.18 0.722-0.4s0.349-0.4 0.776-0.4 0.888-0.18 1.024-0.4c0.403-0.652-0.238-0.458-3.326 1.007m27.326-1.007c0.136 0.22 0.451 0.4 0.7 0.4 0.71 0 5.5 2.498 5.5 2.868 0 0.183 0.191 0.332 0.423 0.332 1.112 0 8.773 7.251 8.776 8.305 0 0.278-0.179 0.863-0.399 1.3s-0.58 1.153-0.8 1.59-0.4 1.146-0.4 1.576-0.18 0.893-0.4 1.029-0.4 0.599-0.4 1.029-0.158 1.094-0.351 1.476c-0.584 1.156-1.249 3.499-1.249 4.4 0 0.466-0.16 0.947-0.356 1.068-0.336 0.208-0.459 0.703-1.077 4.331-0.14 0.827-0.416 1.602-0.611 1.723-0.196 0.121-0.356 0.761-0.356 1.423 0 0.661-0.155 1.506-0.345 1.876-0.42 0.821-0.935 5.087-0.57 4.722 0.258-0.258 0.764-2.896 1.179-6.148 0.119-0.935 0.378-1.7 0.576-1.7s0.36-0.619 0.36-1.376 0.18-1.488 0.4-1.624 0.4-0.766 0.4-1.4 0.18-1.264 0.4-1.4 0.4-0.856 0.4-1.6 0.18-1.464 0.4-1.6 0.4-0.766 0.4-1.4 0.18-1.264 0.4-1.4 0.4-0.676 0.4-1.2 0.18-1.064 0.4-1.2 0.4-0.599 0.4-1.029 0.18-1.139 0.4-1.576 0.58-1.153 0.8-1.59 0.4-1.034 0.4-1.326c0-0.515-4.973-5.853-6.6-7.085-3.828-2.898-10.024-6.127-9.2-4.794m160.01 0.142c-0.818 0.598-0.831 0.562 2.528 6.799 0.693 1.287 1.26 2.592 1.26 2.9 0 0.307 0.18 0.559 0.4 0.559s0.4 0.272 0.4 0.605 0.18 0.963 0.4 1.4 0.58 1.153 0.8 1.59 0.4 1.067 0.4 1.4 0.18 0.605 0.4 0.605 0.4 0.362 0.4 0.805 0.167 1.118 0.371 1.5 0.478 1.036 0.609 1.452c0.131 0.417 0.332 0.664 0.446 0.55 0.237-0.237-1.209-4.311-2.273-6.402-0.194-0.382-0.353-0.967-0.353-1.3s-0.18-0.605-0.4-0.605-0.399-0.225-0.397-0.5c3e-3 -0.524-4.001-8.753-4.427-9.1-0.582-0.473-0.687-2-0.139-2 0.31 0 0.563-0.18 0.563-0.4 0-0.521-0.102-0.506-0.988 0.142m-205.18 18.605c-0.565 1.114-1.027 2.302-1.027 2.64 0 0.337-0.18 0.613-0.4 0.613s-0.396 0.405-0.391 0.9c7e-3 0.726 0.13 0.629 0.631-0.5 0.341-0.77 1.061-2.281 1.6-3.357 0.538-1.077 0.897-2.04 0.796-2.14-0.1-0.1-0.644 0.729-1.209 1.844m213.8 2.729c-0.015 0.482 0.152 0.988 0.372 1.124 0.473 0.292 0.473-0.099 0-1.2-0.331-0.771-0.345-0.769-0.372 0.076m-105.16 0.929c3.378 1.676 6.727 5.663 6.727 8.009 0 0.406 0.18 0.85 0.4 0.986 0.969 0.599 0.357 8.307-0.849 10.695-0.193 0.382-0.351 0.967-0.351 1.3s-0.136 0.605-0.302 0.605c-0.167 0-0.537 0.529-0.823 1.175-0.286 0.647-1.64 2.222-3.009 3.5-11.202 10.462-25.546 5.679-25.587-8.531-0.014-4.705 0.563-6.691 3.065-10.544 1.343-2.068 4.239-5.2 4.808-5.2 0.212 0 0.683-0.27 1.048-0.6 3.059-2.768 10.667-3.482 14.873-1.395m105.96 1.471c-0.015 0.482 0.152 0.988 0.372 1.124 0.473 0.292 0.473-0.099 0-1.2-0.331-0.771-0.345-0.769-0.372 0.076m-46.456 0.185c5.375 1.733 11.228 7.567 11.228 11.19 0 0.386 0.18 0.813 0.4 0.949 0.493 0.305 0.532 5.549 0.049 6.505-0.193 0.382-0.63 1.349-0.971 2.148-1.248 2.924-5.48 6.347-7.847 6.347-0.431 0-0.895 0.18-1.031 0.4-1.317 2.131-14.6-3.848-14.6-6.572 0-0.277-0.36-0.83-0.8-1.228s-0.8-0.969-0.8-1.267c0-0.299-0.158-0.856-0.351-1.238-1.19-2.356-1.742-7.743-0.849-8.295 0.22-0.136 0.4-0.58 0.4-0.986 0-5.091 9.159-9.893 15.172-7.953m-170.5 0.206c-0.147 0.146-0.267 0.676-0.267 1.176s-0.18 1.021-0.4 1.157-0.4 0.856-0.4 1.6-0.153 1.447-0.339 1.562c-1.144 0.708-1.15 16.565-7e-3 17.272 0.191 0.117 0.346 0.822 0.346 1.566s0.177 1.462 0.394 1.596c0.422 0.261 0.195-1.646-0.404-3.396-0.42-1.226-1.022-7.355-0.885-9 0.272-3.248 0.882-7.769 1.241-9.2 0.22-0.88 0.574-2.275 0.785-3.1 0.397-1.548 0.39-1.687-0.064-1.233m217.74 1.966c3e-3 0.422 0.189 1.037 0.412 1.367 0.297 0.438 0.334 0.276 0.138-0.6-0.329-1.471-0.558-1.79-0.55-0.767m-108.3 4.091c-0.27 0.172 0.54 0.324 1.8 0.34 1.63 0.019 2.002-0.061 1.291-0.279-1.355-0.414-2.5-0.436-3.091-0.061m65.691 0.076c1.101 0.473 1.492 0.473 1.2 0-0.136-0.22-0.642-0.387-1.124-0.372-0.845 0.027-0.847 0.041-0.076 0.372m-67.946 1.385c-1.03 0.954-2.057 2.946-1.702 3.301 0.096 0.096 0.301-0.244 0.456-0.756 0.154-0.511 0.836-1.515 1.515-2.23 1.448-1.525 1.267-1.738-0.269-0.315m6.56-0.685c-8e-3 0.275 0.137 0.5 0.322 0.5 0.667 0 1.264 2.087 1.264 4.419 0 1.309-0.136 2.381-0.302 2.381-0.167 0-0.524 0.495-0.795 1.1-1.324 2.957-8.103 2.582-8.103-0.448 0-0.333-0.18-0.716-0.4-0.852-0.499-0.308-0.501-0.117-0.01 1.174 2.06 5.419 10.013 2.357 10.008-3.853-2e-3 -2.232-1.923-6.515-1.984-4.421m56.387 0.698c-0.515 0.55-0.862 1.066-0.769 1.148 0.092 0.082 0.587-0.368 1.098-0.999 1.146-1.412 0.944-1.503-0.329-0.149m6.799-0.748c0 0.205 0.36 0.633 0.8 0.95s0.8 0.886 0.8 1.265c0 0.378 0.18 0.799 0.4 0.935 0.604 0.373 0.479 3.518-0.193 4.867-2.115 4.239-7.74 4.557-9.408 0.531-0.279-0.673-0.586-1.145-0.682-1.048-0.333 0.333 1.069 2.581 2.129 3.415 4.528 3.561 11.07-3.201 8.357-8.639-0.639-1.28-2.203-2.897-2.203-2.276m42.412 1.35c0 0.33 0.175 0.87 0.388 1.2 0.345 0.533 0.388 0.533 0.388 0 0-0.33-0.175-0.87-0.388-1.2-0.345-0.533-0.388-0.533-0.388 0m1.07 4.6c0.127 1.1 0.295 2.075 0.374 2.167 0.299 0.347 0.072-2.603-0.259-3.367-0.223-0.515-0.264-0.087-0.115 1.2m0.821 4.507c0.269 2.499 0.497 2.675 0.497 0.383 0-1.013-0.158-1.94-0.35-2.059-0.193-0.119-0.259 0.635-0.147 1.676m-166.23 0.143c-0.042 1.018-0.171 2.458-0.287 3.2-0.192 1.232-0.173 1.264 0.218 0.368 0.235-0.54 0.364-1.98 0.286-3.2-0.138-2.153-0.144-2.163-0.217-0.368m167.02 5.35c0.118 1.76 0.28 3.275 0.36 3.367 0.299 0.343 0.075-5-0.243-5.767-0.191-0.463-0.241 0.549-0.117 2.4m-167.81 7.2c-0.053 4.4-0.197 8.45-0.319 9-0.185 0.833-0.149 0.887 0.214 0.321 0.288-0.45 0.396-3.487 0.319-9l-0.117-8.321-0.097 8m-54.464-2.895c-0.012 0.388 0.145 1.018 0.349 1.4s0.478 1.036 0.609 1.452c0.131 0.417 0.331 0.665 0.443 0.553 0.113-0.113-0.151-1.083-0.587-2.157s-0.802-1.636-0.814-1.248m223.04 3.895c0.276 4.503-7e-3 4.099 3.75 5.355 3.065 1.025 7.364 1.828 5.783 1.08-0.44-0.208-1.297-0.391-1.905-0.407-0.608-0.015-1.418-0.19-1.8-0.389s-1.505-0.591-2.495-0.872c-2.676-0.76-2.797-0.936-2.828-4.116-0.016-1.568-0.188-3.211-0.383-3.651-0.22-0.494-0.267 0.653-0.122 3m-220.12 3.1c2.958 5.718 9.956 12.42 15.77 15.103 1.695 0.782 3.395 1.596 3.777 1.809 0.382 0.214 1.021 0.388 1.42 0.388s0.896 0.16 1.105 0.355c0.209 0.196 1.64 0.454 3.18 0.574 1.777 0.139 2.362 0.099 1.6-0.108-0.66-0.179-1.965-0.348-2.9-0.374s-1.7-0.227-1.7-0.447-0.54-0.4-1.2-0.4-1.2-0.18-1.2-0.4-0.272-0.4-0.605-0.4-0.918-0.157-1.3-0.35c-0.382-0.192-1.505-0.759-2.495-1.26-0.99-0.5-2.204-1.107-2.697-1.35-0.493-0.242-0.898-0.575-0.9-0.74s-0.188-0.3-0.414-0.3c-1.532 0-11.13-10.906-11.176-12.7-7e-3 -0.275-0.198-0.5-0.423-0.5-0.242 0-0.177 0.451 0.158 1.1m245.45 2.5c-0.764 0.494 0.058 0.494 1.6 0l1-0.32-1-0.034c-0.55-0.019-1.27 0.141-1.6 0.354m-3 0.8c-0.295 0.478 0.489 0.478 1.6 0 0.714-0.307 0.685-0.347-0.276-0.372-0.592-0.015-1.188 0.152-1.324 0.372m-8.289 0.693c0.94 0.085 2.38 0.084 3.2-2e-3 0.819-0.086 0.049-0.155-1.711-0.154-1.76 2e-3 -2.43 0.072-1.489 0.156m-162.96 4.188c-0.221 0.355 106.98 0.326 114.25-0.032 2.97-0.146-21.482-0.262-54.338-0.257-32.855 4e-3 -59.816 0.134-59.911 0.289m122.75-0.194c0.609 0.092 1.509 0.09 2-5e-3 0.492-0.095-5e-3 -0.171-1.105-0.168s-1.503 0.081-0.895 0.173m5.826-1e-3c0.691 0.132 0.856 0.349 0.643 0.846-0.3 0.697-0.707 2.871-1.358 7.268-0.212 1.43-0.566 3.77-0.788 5.2-1.603 10.341-2 13.205-2.015 14.567-0.023 2.096 0.316 0.899 0.786-2.77 0.253-1.978 0.614-4.587 0.801-5.797s0.547-3.55 0.8-5.2 0.626-4.08 0.83-5.4c0.203-1.32 0.482-3.348 0.62-4.507s0.408-2.205 0.6-2.324c0.922-0.57 0.354-2.169-0.75-2.115-0.988 0.049-1.005 0.073-0.169 0.232m-128.08 4.795c0.088 2.155 0.259 4.459 0.38 5.119 0.21 1.145 0.493 4.399 1.394 16 0.659 8.481 1.684 21.31 2.398 30 0.891 10.837 1.2 15.496 1.408 21.2 0.12 3.3 0.386 6.171 0.591 6.38s0.373 1.053 0.373 1.876 0.18 1.608 0.4 1.744 0.4 1.543 0.4 3.127c0 4.017-1.284 3.77 18 3.473l16.6-0.256-16.62-0.072c-18.902-0.082-17.58 0.199-17.58-3.728 0-1.483-0.18-2.808-0.4-2.944s-0.4-0.921-0.4-1.744-0.166-1.667-0.369-1.876-0.474-3.26-0.602-6.78c-0.129-3.52-0.405-8.65-0.613-11.4-0.494-6.513-1.619-20.473-2.411-29.9-0.217-2.585-0.573-7.04-0.792-9.9-0.218-2.86-0.584-7.36-0.813-10s-0.548-6.811-0.708-9.268c-0.363-5.561-0.855-6.373-0.636-1.051m-20.61-1.649c-0.026 0.475-0.519 1.077-1.146 1.4-0.605 0.312-1.19 0.661-1.3 0.775-0.21 0.22-5.229 2.662-6.6 3.212-1.027 0.412-2.619 0.748-5.526 1.166-1.28 0.183-2.45 0.463-2.6 0.62-0.151 0.157 0.716 0.156 1.926-1e-3 6.769-0.882 16.011-5.22 15.483-7.268-0.166-0.642-0.196-0.63-0.237 0.096m-21.146 7.655c0.605 0.091 1.595 0.091 2.2 0 0.605-0.092 0.11-0.167-1.1-0.167s-1.705 0.075-1.1 0.167m165.79 19.713c-0.153 0.55-0.264 1.45-0.247 2 0.026 0.861 0.084 0.814 0.416-0.34 0.212-0.736 0.323-1.636 0.248-2-0.098-0.466-0.22-0.367-0.417 0.34m-0.801 5.333c-0.158 0.403-0.272 1.303-0.252 2l0.036 1.267 0.386-1.34c0.453-1.575 0.314-3.158-0.17-1.927m5.112 3.089c-1.272 0.809-1.229 0.659-2.224 7.578-0.238 1.65-0.589 4.08-0.78 5.4-2.039 14.086-2.067 15-0.458 15 1.399 0 3.607 0.712 7.851 2.532 2.832 1.214 2.592 1.363 2.147-1.332-0.617-3.745-1.143-6.899-1.565-9.4-0.222-1.32-0.571-3.39-0.774-4.6-0.204-1.21-0.555-3.28-0.781-4.6-0.826-4.83-1.263-7.643-1.476-9.5-0.243-2.127-0.269-2.141-1.94-1.078m-138.76 0.034c-0.095 0.299-0.289 1.624-0.432 2.944-0.144 1.32-0.421 3.75-0.617 5.4s-0.537 4.98-0.758 7.4c-0.433 4.739-1.031 9.471-1.646 13.024-0.616 3.558-0.535 3.818 0.715 2.312 1.746-2.105 4.181-4.464 5.7-5.522 0.77-0.537 1.49-1.074 1.6-1.195 0.188-0.207 0.745-0.476 3.2-1.549 0.55-0.24 1.45-0.489 2-0.554 0.741-0.086 0.971-0.323 0.888-0.916-0.061-0.44-0.255-4.04-0.43-8-0.328-7.408-0.686-9-2.022-9-0.966 0-4.202-1.798-6.331-3.519-1.21-0.977-1.745-1.214-1.867-0.825m71.632 1.023c-0.622 0.326-1.044 0.681-0.937 0.787 0.106 0.106 0.774-0.108 1.485-0.475 0.789-0.408 1.739-0.58 2.437-0.44 0.634 0.127 1.145 0.055 1.145-0.161 0-0.587-2.842-0.388-4.13 0.289m-3.87 2.521c-0.88 0.88-1.589 1.915-1.575 2.3 0.022 0.586 0.079 0.568 0.355-0.113 0.181-0.447 1.07-1.482 1.976-2.3 0.905-0.818 1.466-1.487 1.245-1.487-0.22 0-1.121 0.72-2.001 1.6m12.226 0.011c2.783 3.061 3.552 7.824 1.774 10.989-0.954 1.699-1.013 2.07-0.2 1.257 0.33-0.33 0.6-0.868 0.6-1.195s0.188-0.658 0.417-0.734c0.614-0.205 0.539-6.338-0.093-7.548-0.689-1.321-1.912-2.791-3.136-3.769-0.544-0.433-0.256 0.017 0.638 1m52.841-0.944c-0.147 0.146-0.267 1.37-0.267 2.72 0 1.349-0.165 2.624-0.366 2.833-0.202 0.209-0.468 1.46-0.592 2.78s-0.328 3.48-0.452 4.8-0.39 2.76-0.59 3.2-0.466 1.88-0.59 3.2-0.328 3.48-0.452 4.8-0.39 2.571-0.592 2.78c-0.201 0.209-0.366 1.388-0.366 2.62s-0.165 2.411-0.366 2.62c-0.202 0.209-0.465 1.46-0.585 2.78s-0.401 3.66-0.626 5.2c-0.224 1.54-0.576 4.06-0.781 5.6s-0.494 3.34-0.641 4l-0.268 1.2 0.633-1.146c0.37-0.668 0.634-2.093 0.634-3.42 0-1.251 0.161-2.445 0.358-2.654s0.466-1.55 0.597-2.98c0.232-2.52 0.655-5.627 1.441-10.6 0.209-1.32 0.567-3.66 0.796-5.2s0.582-3.88 0.786-5.2 0.575-3.84 0.824-5.6c2.108-14.86 2.121-14.99 1.465-14.333m-62.016 2.1c-2.954 1.938-3.283 6.601-0.651 9.233 3.678 3.678 9.839 1.316 9.497-3.64l-0.149-2.16-0.074 2.222c-0.11 3.304-1.712 4.778-5.193 4.778-1.387 0-2.481-0.176-2.481-0.4 0-0.22-0.273-0.4-0.606-0.4-1.144 0-2.191-2.416-2.193-5.059-1e-3 -2.625 1.979-5.341 3.475-4.767 0.324 0.124 1.191 0.226 1.926 0.226 0.854 0 1.781 0.374 2.567 1.036 0.677 0.569 1.231 0.905 1.231 0.746 0-0.492-1.705-1.795-2.574-1.967-2.737-0.541-3.77-0.508-4.775 0.152m-5.423 6.533c-0.015 0.605 0.152 1.1 0.372 1.1 0.469 0 0.469-0.307 0-1.4-0.305-0.709-0.347-0.675-0.372 0.3m3.659 6c0.921 0.847 2.264 1.5 3.084 1.5 0.43 0 0.893 0.18 1.029 0.4s0.856 0.4 1.6 0.4 1.464-0.18 1.6-0.4 0.642-0.4 1.124-0.4c0.482-1e-3 1.399-0.451 2.038-1 0.639-0.55 0.976-1 0.749-1s-0.63 0.262-0.896 0.581c-1.531 1.845-6.591 1.91-9.32 0.119-1.24-0.813-1.796-0.924-1.008-0.2m-61.487 9.217c-6.882 3.706-14.484 17.177-9.06 16.055 0.803-0.166 4.16-0.408 7.459-0.537l5.999-0.235-0.135-2.8c-0.635-13.111-1.018-14.231-4.263-12.483m125.64 6.383c-0.426 1.499-1.157 7.171-1.198 9.3l-0.039 2 1.6-0.107c0.88-0.059 4.436-0.239 7.903-0.4s6.314-0.431 6.327-0.599c0.089-1.125-0.976-4.638-1.55-5.115-2.079-1.728-5.756-3.922-7.683-4.585-1.209-0.415-2.368-0.899-2.577-1.075-0.826-0.694-2.521-0.34-2.783 0.581m-189.44 5.582c-4.571 1.955-6.308 3.122-8 5.378-1.46 1.946-1.68 2.739-1.68 6.048 0 4.528 0.378 4.925 4.943 5.187 1.835 0.105 3.64 0.352 4.011 0.548 0.37 0.196 1.81 0.357 3.2 0.358h2.526l-0.134-4.819c-0.191-6.868 1.654-8.708 2.064-2.058 0.424 6.879 0.403 6.861 7.605 6.578 4.61-0.182 5.567-0.325 5.729-0.86 0.107-0.353 0.361-0.955 0.565-1.337 1.818-3.405-1.368-10.204-6.076-12.966-3.958-2.323-11.631-3.392-14.753-2.057m9.172 0.373c6.393 2.039 10.828 5.681 10.828 8.893 0 0.553 0.18 1.116 0.4 1.252 0.619 0.382 0.472 3.532-0.229 4.939l-0.63 1.261h-5.321c-6.568 0-6.322 0.24-6.953-6.759-0.291-3.229-1.011-4.283-2.233-3.269-0.513 0.426-0.634 1.428-0.634 5.25 0 4.16-0.084 4.747-0.7 4.915-1.3 0.356-3.429 0.216-4.468-0.292-0.568-0.277-2.439-0.535-4.159-0.573-4.058-0.089-4.273-0.312-4.273-4.421 0-4.502 2.146-7.877 6.098-9.589 0.826-0.358 1.502-0.788 1.502-0.956s0.529-0.306 1.176-0.306 1.288-0.18 1.424-0.4c0.338-0.547 6.41-0.506 8.172 0.055m50.628 6.745-8.4 0.225 8.8 0.09 8.8 0.091 0.5 1.077c0.275 0.592 0.5 1.907 0.5 2.921 0 1.318 0.239 2.101 0.835 2.741 1.819 1.953 1.292 2.055-10.622 2.055-8.149 0-11.013-0.122-11.013-0.469 0-0.257-0.253-0.752-0.562-1.1-1.139-1.281-1.014-6.933 0.162-7.267 0.57-0.162 0.713-0.301 0.333-0.324-2.235-0.134-2.807 4.058-1.033 7.575l0.9 1.785h11.395c12.366 0 12.899-0.107 10.99-2.217-0.405-0.447-0.796-1.785-0.955-3.27-0.292-2.718-0.972-4.365-1.744-4.225-0.267 0.048-4.266 0.188-8.886 0.312m127.62 1.3c-0.212 0.66-0.608 3.303-0.796 5.3-0.083 0.88-0.062 1.06 0.046 0.4s0.363-1.371 0.566-1.58 0.369-1.244 0.369-2.3v-1.92h8.8 8.8v1.426c0 0.785 0.169 1.743 0.376 2.129 0.281 0.525 0.18 0.845-0.4 1.262-0.427 0.308-0.776 0.781-0.776 1.051 0 0.316-0.826 0.544-2.3 0.636l-2.3 0.145 2.2 0.075c3.83 0.132 4.7-1.583 3.358-6.624-0.101-0.381-2.236-0.5-8.958-0.5-6.708 0-8.864 0.12-8.985 0.5m-51.215 7.1c-7.312 0.206-6.916 0.228 4.6 0.256 6.93 0.017 17.19-0.09 22.8-0.237 10.165-0.267 10.15-0.268-4.6-0.256-8.14 6e-3 -18.4 0.113-22.8 0.237" fill="#a0a09f"/>
<path d="m303.51 120.7c1.163 0.081 2.963 0.081 4-2e-3 1.038-0.082 0.087-0.148-2.113-0.147s-3.049 0.068-1.887 0.149m-232.24 10.769c0.169 0.875 1.331 0.999 1.331 0.141 0-0.327-0.331-0.658-0.736-0.736-0.535-0.103-0.698 0.06-0.595 0.595m261.86 1.572c0.461 0.679 1.137 1.483 1.502 1.786 0.365 0.302 0.812 0.916 0.993 1.364 0.203 0.499 0.333 0.582 0.338 0.214 4e-3 -0.33-0.821-1.5-1.833-2.6-1.011-1.1-1.462-1.444-1-0.764m-235.01 3.262c1.715 0.075 4.415 0.074 6-1e-3 1.585-0.076 0.182-0.138-3.118-0.137s-4.597 0.062-2.882 0.138m9.882 0.657c0 0.085 0.53 0.232 1.179 0.327 0.648 0.095 1.088 0.026 0.976-0.154-0.198-0.321-2.155-0.478-2.155-0.173m-34.225 11.145-1.175 1.3 1.3-1.175c0.715-0.646 1.3-1.231 1.3-1.3 0-0.309-0.33-0.037-1.425 1.175m268.58 3.987c0.185 1.111 0.241 1.168 0.367 0.367 0.082-0.521-0.016-1.111-0.218-1.313-0.222-0.222-0.28 0.152-0.149 0.946m-58.8 14c0.185 1.111 0.241 1.168 0.367 0.367 0.082-0.521-0.016-1.111-0.218-1.313-0.222-0.222-0.28 0.152-0.149 0.946m0.8 2.8c0.185 1.111 0.241 1.168 0.367 0.367 0.082-0.521-0.016-1.111-0.218-1.313-0.222-0.222-0.28 0.152-0.149 0.946m-47.352-0.109c-0.44 0.18-1.159 0.754-1.597 1.275l-0.797 0.947 1.023-0.9c0.562-0.495 1.225-0.9 1.473-0.9s0.562-0.18 0.698-0.4c0.284-0.46 0.271-0.46-0.8-0.022m-64.622 1.522-1.378 1.5 1.4-1.251c0.77-0.688 1.67-1.349 2-1.468 0.519-0.189 0.516-0.222-0.022-0.249-0.341-0.018-1.241 0.643-2 1.468m61.383 2.658c-0.118 0.307-0.153 1.252-0.078 2.1 0.127 1.429 0.151 1.388 0.327-0.558 0.194-2.144 0.131-2.533-0.249-1.542m-170.64 1.742c-0.099 1.045-0.065 2.8 0.078 3.9 0.205 1.583 0.266 1.188 0.294-1.9 0.039-4.261-0.09-4.952-0.372-2m107.38-0.1c4e-3 0.88 0.086 1.193 0.182 0.695 0.096-0.497 0.092-1.217-8e-3 -1.6-0.1-0.382-0.179 0.025-0.174 0.905m115.5 1.576c0 0.757 0.138 1.462 0.307 1.567 0.169 0.104 0.241-0.515 0.158-1.377-0.184-1.934-0.465-2.048-0.465-0.19m-51.413 1.799c0.334 0.646 0.789 1.286 1.011 1.424 0.222 0.137 0.025-0.392-0.437-1.175-1.013-1.717-1.426-1.896-0.574-0.249m52.327 2.225c3e-3 1.1 0.081 1.503 0.173 0.895 0.092-0.609 0.09-1.509-5e-3 -2-0.095-0.492-0.171 5e-3 -0.168 1.105m49.3 1.235c-0.373 0.569-0.609 1.103-0.525 1.187 0.084 0.085 0.469-0.381 0.855-1.034 0.862-1.46 0.604-1.579-0.33-0.153m-216.86 1.142c-0.122 0.317-0.151 0.902-0.065 1.3 0.098 0.451 0.235 0.235 0.365-0.577 0.217-1.362 0.076-1.704-0.3-0.723m214.62 2.123-1.378 1.5 1.5-1.378c1.396-1.284 1.684-1.622 1.378-1.622-0.066 0-0.741 0.675-1.5 1.5m-46.35 3.133c0.016 0.862 0.181 1.927 0.368 2.367 0.212 0.498 0.255-0.031 0.116-1.4-0.268-2.635-0.523-3.143-0.484-0.967m43.578-0.039c-0.743 0.767-1.274 1.456-1.179 1.531s0.779-0.552 1.519-1.394c1.683-1.913 1.466-2-0.34-0.137m-212.3 11.406c0 0.99 0.078 1.395 0.173 0.9 0.096-0.495 0.096-1.305 0-1.8-0.095-0.495-0.173-0.09-0.173 0.9m172.29-1.218c0.33 0.223 0.945 0.409 1.367 0.412 1.023 8e-3 0.704-0.221-0.767-0.55-0.876-0.196-1.038-0.159-0.6 0.138m23.8 0.018-1.2 0.305 1.076 0.048c0.592 0.026 1.188-0.133 1.324-0.353s0.192-0.379 0.124-0.353-0.664 0.185-1.324 0.353m-21.059 0.901c0.202 0.202 0.792 0.3 1.313 0.218 0.801-0.126 0.744-0.182-0.367-0.367-0.794-0.131-1.168-0.073-0.946 0.149m18.059-0.101c-0.824 0.264-0.859 0.326-0.2 0.354 0.44 0.019 1.07-0.141 1.4-0.354 0.701-0.453 0.214-0.453-1.2 0m-14.488 0.872c0.947 0.374 12.397 0.4 12.625 0.028 0.102-0.165-2.852-0.3-6.564-0.3s-6.439 0.122-6.061 0.272m-178.97 5.128c0 2.09 0.068 2.945 0.15 1.9s0.082-2.755 0-3.8-0.15-0.19-0.15 1.9m134.66-0.342c-2.97 0.141-29.79 0.272-59.6 0.291-43.676 0.027-54.164 0.132-54.016 0.542 0.101 0.28 0.322 2.489 0.491 4.909 0.17 2.42 0.496 6.56 0.725 9.2s0.595 7.14 0.813 10c0.219 2.86 0.575 7.315 0.792 9.9 0.792 9.427 1.917 23.387 2.411 29.9 0.208 2.75 0.484 7.88 0.613 11.4 0.128 3.52 0.399 6.571 0.602 6.78s0.369 1.053 0.369 1.876 0.18 1.608 0.4 1.744 0.4 1.475 0.4 2.975c0 1.929 0.175 2.872 0.597 3.222 0.602 0.5 23.646 0.434 84.465-0.242l22.062-0.246 0.273-1.054c0.15-0.58 0.437-2.27 0.638-3.755s0.552-4.005 0.781-5.6c0.228-1.595 0.513-3.98 0.633-5.3s0.383-2.571 0.585-2.78c0.201-0.209 0.366-1.388 0.366-2.62s0.165-2.411 0.366-2.62c0.202-0.209 0.468-1.46 0.592-2.78s0.328-3.48 0.452-4.8 0.39-2.76 0.59-3.2 0.466-1.88 0.59-3.2 0.328-3.48 0.452-4.8 0.39-2.571 0.592-2.78c0.201-0.209 0.366-1.478 0.366-2.82s0.165-2.611 0.368-2.82c0.202-0.209 0.463-1.55 0.579-2.98s0.386-3.77 0.6-5.2 0.664-4.67 1.001-7.2 0.802-5.815 1.033-7.3c0.775-4.99 1.248-8.084 1.635-10.7 0.657-4.433 1.058-6.572 1.37-7.3 0.221-0.517 0.105-0.713-0.443-0.75-2.497-0.168-9.92-0.113-14.543 0.108m-156.09 10.235c0.94 0.085 2.38 0.084 3.2-2e-3 0.819-0.086 0.049-0.155-1.711-0.154-1.76 2e-3 -2.43 0.072-1.489 0.156m107.69 29.307c0 0.22 0.388 0.4 0.862 0.4 1.512 0 4.57 2.702 5.862 5.18 0.632 1.21 0.707 7.343 0.093 7.548-0.229 0.076-0.417 0.412-0.417 0.745 0 0.931-3.594 4.127-4.64 4.127-0.502 0-1.024 0.18-1.16 0.4s-0.856 0.4-1.6 0.4-1.464-0.18-1.6-0.4-0.599-0.4-1.029-0.4c-1.98 0-5.971-3.873-5.971-5.795 0-0.333-0.18-0.605-0.4-0.605-0.225 0-0.4-1.125-0.4-2.576 0-1.417 0.18-2.688 0.4-2.824s0.4-0.558 0.4-0.939c0-1.931 5.224-5.559 8.1-5.626 0.825-0.019 1.5 0.145 1.5 0.365m-5.825 5.3-1.175 1.3 1.3-1.175c1.212-1.095 1.484-1.425 1.175-1.425-0.069 0-0.654 0.585-1.3 1.3m-125.18 32.7c-0.136 0.22-0.777 0.4-1.424 0.4s-1.176 0.138-1.176 0.306-0.676 0.598-1.502 0.956c-3.952 1.712-6.098 5.087-6.098 9.589 0 4.109 0.215 4.332 4.273 4.421 1.72 0.038 3.591 0.296 4.159 0.573 1.039 0.508 3.168 0.648 4.468 0.292 0.616-0.168 0.7-0.755 0.7-4.915 0-3.822 0.121-4.824 0.634-5.25 1.222-1.014 1.942 0.04 2.233 3.269 0.631 6.999 0.385 6.759 6.953 6.759h5.321l0.63-1.261c0.701-1.407 0.848-4.557 0.229-4.939-0.22-0.136-0.4-0.699-0.4-1.252 0-3.212-4.435-6.854-10.828-8.893-1.762-0.561-7.834-0.602-8.172-0.055m46.825 7.559c-0.416 0.674 0.28 6.43 0.834 6.89 0.297 0.247 0.541 0.697 0.541 1 0 0.455 1.925 0.551 11.013 0.551 11.914 0 12.441-0.102 10.622-2.055-0.596-0.64-0.835-1.423-0.835-2.741 0-1.014-0.225-2.329-0.5-2.921l-0.5-1.077-10.476-3e-3c-5.762-2e-3 -10.577 0.159-10.699 0.356m139.78 2.417c0 1.087-0.18 2.088-0.4 2.224s-0.4 0.777-0.4 1.424v1.176l5.5-2e-3c7.245-4e-3 12.1-0.392 12.1-0.969 0-0.249 0.349-0.704 0.776-1.012 0.58-0.417 0.681-0.737 0.4-1.262-0.207-0.386-0.376-1.344-0.376-2.129v-1.426h-8.8-8.8v1.976" fill="#ddd8ab"/>
<path d="m179 71.324c-0.44 0.262-0.89 0.566-1 0.676s-0.56 0.4-1 0.644c-1.742 0.966-1.019 2.343 1.3 2.477 1.155 0.066 2.1 0.291 2.1 0.5 0 0.208 0.201 0.379 0.446 0.379 0.598 0 3.154 2.819 3.154 3.478 0 0.287 0.18 0.522 0.4 0.522s0.4 0.36 0.4 0.8 0.18 0.8 0.4 0.8 0.4 0.36 0.4 0.8 0.18 0.8 0.4 0.8 0.4 0.324 0.4 0.72 0.216 0.936 0.48 1.2c0.373 0.373 0.201 0.48-0.776 0.48-0.691 0-1.368-0.18-1.504-0.4s-1.767-0.4-3.624-0.4c-1.984 0-3.376 0.165-3.376 0.4 0 0.22-0.504 0.4-1.12 0.4-2.3 0-4.08 1.618-4.08 3.708 0 1.593 2.413 2.504 3.99 1.507 0.669-0.424 2.01 0.74 2.01 1.745 0 0.326 0.18 0.704 0.4 0.84s0.4 1.101 0.4 2.144 0.216 2.112 0.48 2.376c0.373 0.373 0.373 0.587 0 0.96-0.264 0.264-0.48 0.817-0.48 1.229 0 1.053-0.962 1.891-2.171 1.891-0.566 0-1.029 0.18-1.029 0.4s-0.349 0.4-0.776 0.4-0.888 0.18-1.024 0.4-0.597 0.4-1.024 0.4-0.776 0.18-0.776 0.4-0.345 0.4-0.767 0.4c-0.421 0-0.826 0.135-0.9 0.3-0.167 0.376-2.297 1.675-3.233 1.971-0.385 0.122-0.7 0.381-0.7 0.576 0 0.194-0.345 0.353-0.767 0.353-0.421 0-0.826 0.135-0.9 0.3-0.073 0.165-0.782 0.75-1.575 1.3-1.968 1.366-4.293 3.217-5.401 4.3-0.506 0.495-1.121 0.9-1.365 0.9s-1.321 0.9-2.392 2-2.142 2-2.379 2c-0.54 0-7.272 6.718-9.421 9.401-2.558 3.194-2.613 3.237-2.87 2.251-0.123-0.468-0.382-0.852-0.577-0.852-0.194 0-0.353-0.257-0.353-0.57 0-0.314-0.675-1.219-1.5-2.012s-3.069-2.966-4.987-4.83c-1.917-1.863-3.651-3.388-3.851-3.388-0.201 0-1.065-0.675-1.92-1.5s-2.452-1.95-3.549-2.5c-1.096-0.55-2.053-1.135-2.126-1.3-0.074-0.165-0.479-0.3-0.9-0.3-0.422 0-0.767-0.18-0.767-0.4s-0.36-0.4-0.8-0.4-0.8-0.18-0.8-0.4-0.349-0.4-0.776-0.4-0.888-0.18-1.024-0.4-0.599-0.4-1.029-0.4-1.094-0.156-1.476-0.346c-1.767-0.881-3.794-1.3-7.395-1.528-2.145-0.136-3.9-0.4-3.9-0.586 0-0.187-2.25-0.34-5-0.34s-5 0.153-5 0.341c0 0.187-1.523 0.448-3.385 0.579-3.352 0.237-6.461 0.905-7.195 1.547-0.209 0.183-0.715 0.333-1.125 0.333-0.849 0-6.026 2.394-6.228 2.88-0.074 0.176-0.619 0.32-1.212 0.32-0.62 0-1.324 0.34-1.655 0.8-0.317 0.44-0.897 0.8-1.288 0.8-0.392 0-0.712 0.18-0.712 0.4s-0.236 0.4-0.525 0.4c-0.288 0-0.911 0.36-1.383 0.8s-1.06 0.8-1.307 0.8c-0.246 0-1.139 0.72-1.985 1.6s-1.746 1.6-2 1.6-1.17 0.765-2.035 1.7c-1.9 2.054-1.781 1.935-3.778 3.796-0.887 0.827-2.048 2.134-2.581 2.904-0.532 0.77-1.292 1.691-1.687 2.047s-0.719 0.852-0.719 1.104c0 0.251-0.54 1.021-1.2 1.712s-1.2 1.499-1.2 1.796c0 0.298-0.18 0.541-0.4 0.541s-0.4 0.32-0.4 0.712c0 0.391-0.36 0.971-0.8 1.288s-0.8 0.897-0.8 1.288c0 0.392-0.18 0.712-0.4 0.712s-0.4 0.36-0.4 0.8-0.136 0.8-0.302 0.8c-0.167 0-0.539 0.585-0.829 1.3-0.289 0.715-0.766 1.75-1.06 2.3-0.855 1.6-2.209 5.883-2.209 6.987 0 0.557-0.18 1.013-0.4 1.013s-0.4 0.54-0.4 1.2-0.18 1.2-0.4 1.2-0.4 0.795-0.4 1.767c0 0.971-0.166 1.826-0.369 1.9-0.202 0.073-0.438 0.984-0.524 2.024-0.085 1.039-0.279 2.014-0.431 2.166s-0.276 2.136-0.276 4.41c0 2.489-0.159 4.133-0.4 4.133-0.22 0-0.4 0.81-0.4 1.8s0.18 1.8 0.4 1.8c0.246 0 0.4 2 0.4 5.2s0.154 5.2 0.4 5.2c0.22 0 0.4 0.619 0.4 1.376s0.18 1.488 0.4 1.624 0.4 0.867 0.4 1.624 0.18 1.376 0.4 1.376 0.4 0.54 0.4 1.2 0.18 1.2 0.4 1.2 0.401 0.495 0.402 1.1c2e-3 0.605 0.272 1.616 0.6 2.246 0.329 0.63 0.598 1.389 0.598 1.688 0 0.298 0.36 1.183 0.8 1.966s0.8 1.689 0.8 2.012 0.18 0.588 0.4 0.588 0.4 0.36 0.4 0.8 0.18 0.8 0.4 0.8 0.4 0.236 0.4 0.525c0 0.288 0.36 0.911 0.8 1.383s0.8 1.046 0.8 1.275 0.18 0.417 0.4 0.417 0.4 0.288 0.4 0.64c0 0.351 0.54 1.143 1.2 1.76s1.2 1.325 1.2 1.574c0 0.888 8.317 8.78 11.291 10.714 0.94 0.612 1.769 1.247 1.842 1.412 0.074 0.165 0.479 0.3 0.9 0.3 0.422 0 0.767 0.18 0.767 0.4s0.36 0.4 0.8 0.4 0.801 0.135 0.803 0.3c4e-3 0.359 1.941 1.3 2.677 1.3 0.286 0 0.52 0.18 0.52 0.4s0.36 0.4 0.8 0.4 0.8 0.18 0.8 0.4 0.439 0.4 0.976 0.4 1.088 0.18 1.224 0.4 0.687 0.4 1.224 0.4 0.976 0.18 0.976 0.4 0.72 0.4 1.6 0.4 1.6 0.18 1.6 0.4 0.9 0.4 2 0.4c1.144 0 2 0.182 2 0.425 0 0.834 18.058 0.012 18.98-0.864 0.209-0.198 0.873-0.361 1.476-0.361s1.208-0.18 1.344-0.4 0.766-0.4 1.4-0.4 1.264-0.18 1.4-0.4 0.597-0.4 1.024-0.4 0.776-0.18 0.776-0.4 0.54-0.4 1.2-0.4 1.201-0.135 1.203-0.3c4e-3 -0.337 1.922-1.3 2.588-1.3 0.238 0 0.692-0.36 1.009-0.8s0.897-0.8 1.288-0.8c0.392 0 0.712-0.18 0.712-0.4s0.347-0.4 0.771-0.4c0.425 0 1.042-0.27 1.372-0.6 0.881-0.881 1.057-0.752 1.057 0.776 0 0.757 0.18 1.488 0.4 1.624s0.4 0.867 0.4 1.624 0.18 1.376 0.4 1.376 0.4 0.54 0.4 1.2 0.18 1.2 0.4 1.2 0.4 0.439 0.4 0.976 0.18 1.088 0.4 1.224 0.4 0.597 0.4 1.024 0.18 0.776 0.4 0.776 0.4 0.288 0.4 0.64c0 0.351 0.284 1.237 0.631 1.968 0.447 0.943 0.517 1.543 0.239 2.061-0.216 0.403-0.523 2.581-0.683 4.84-0.16 2.26-0.448 4.205-0.639 4.323s-0.348 1.285-0.348 2.592c0 1.317-0.178 2.376-0.4 2.376-0.225 0-0.4 1.125-0.4 2.576 0 1.417-0.18 2.688-0.4 2.824s-0.4 1.486-0.4 3-0.18 2.864-0.4 3-0.4 1.317-0.4 2.624c0 1.317-0.178 2.376-0.4 2.376-0.225 0-0.4 1.125-0.4 2.576 0 1.417-0.18 2.688-0.4 2.824s-0.4 1.306-0.4 2.6-0.18 2.464-0.4 2.6-0.4 0.884-0.4 1.663c0 1.058-0.304 1.7-1.2 2.537-0.66 0.617-1.2 1.398-1.2 1.737s-0.18 0.727-0.4 0.863c-0.522 0.323-0.522 7.677 0 8 1.319 0.815-0.38 1-9.176 1-5.953 0-9.67-0.151-9.824-0.4-0.136-0.22-0.057-0.4 0.176-0.4 0.265 0 0.424-1.274 0.424-3.4 0-2-0.165-3.4-0.4-3.4-0.22 0-0.4-0.54-0.4-1.2s-0.18-1.2-0.4-1.2-0.4-0.32-0.4-0.712c0-0.391-0.36-0.971-0.8-1.288s-0.8-0.897-0.8-1.288c0-0.408-0.299-0.716-0.7-0.721-0.385-5e-3 -1.319-0.725-2.076-1.6s-1.612-1.591-1.9-1.591-0.524-0.18-0.524-0.4-0.36-0.4-0.8-0.4-0.8-0.18-0.8-0.4-0.349-0.4-0.776-0.4-0.888-0.18-1.024-0.4-0.651-0.4-1.144-0.4-1.077-0.181-1.298-0.402c-0.551-0.551-10.143-0.573-10.691-0.025-0.235 0.235-1.021 0.427-1.747 0.427s-1.32 0.18-1.32 0.4-0.36 0.4-0.8 0.4-0.8 0.18-0.8 0.4-0.36 0.4-0.8 0.4-0.8 0.18-0.8 0.4-0.276 0.4-0.613 0.4c-0.716 0-3.387 2.555-3.387 3.24 0 0.256-0.315 0.759-0.7 1.117-0.949 0.883-1.7 2.278-1.7 3.158 0 0.399-0.195 0.92-0.433 1.158-0.48 0.48-0.336 5.885 0.186 7.005 0.293 0.629-0.497 0.681-10.8 0.709-8.324 0.023-11.195 0.154-11.429 0.522-0.245 0.385-0.313 0.384-0.318-9e-3 -8e-3 -0.647-2.094-0.652-2.739-7e-3 -0.391 0.391-0.542 0.308-0.727-0.4-0.23-0.879-1.74-1.307-1.74-0.493 0 0.22-0.414 0.4-0.92 0.4s-1.091 0.169-1.3 0.375-3.35 0.474-6.98 0.596c-16.294 0.547-18.8 0.695-18.8 1.113 0 0.281-0.748 0.338-2.2 0.168l-2.2-0.259v1.65c-0 1.606 0.029 1.642 1.1 1.351 0.605-0.164 4.88-0.439 9.5-0.609 4.62-0.171 9.232-0.438 10.248-0.594 1.128-0.173 1.945-0.126 2.098 0.121 0.16 0.259 0.791 0.279 1.752 0.056 2.687-0.624 6.149-0.454 6.745 0.332 0.506 0.667 0.532 0.667 0.544 0 0.012-0.635 0.596-0.703 6.313-0.731 7.027-0.034 9.326-0.102 19.015-0.566 5.205-0.25 6.93-0.207 7.674 0.191 0.981 0.525 7.8 0.498 61.565-0.247 16.735-0.232 18.386-0.197 18.72 0.399 0.448 0.801 1.282 0.841 2.027 0.096 1.036-1.036 107.5-1.92 107.5-0.893 0 1.943 2.483 2.073 3.885 0.205 0.807-1.076 4.289-1.166 60.315-1.559 29.48-0.207 59.765-0.494 67.3-0.639l13.7-0.264v-1.314c0-1.682-0.659-1.837-6.8-1.597-2.53 0.099-14.972 0.196-27.649 0.215s-23.162 0.149-23.301 0.287c-0.139 0.139-1.176 0.285-2.304 0.325l-2.052 0.072 0.276-4.368c0.362-5.723 0.06-5.325 4.133-5.439 1.915-0.054 3.656-0.272 3.869-0.485 0.214-0.214 0.712-0.388 1.108-0.388s0.72-0.18 0.72-0.4 0.274-0.4 0.609-0.4c0.778 0 4.991-4.193 4.991-4.968 0-0.321 0.18-0.696 0.4-0.832 0.975-0.602 0.133-9.8-0.897-9.8-0.167 0-0.303-0.263-0.303-0.584 0-2.489-8.352-8.216-11.982-8.216h-2.083l0.127-6.334c0.17-8.472 0.998-7.822-9.578-7.516-16.135 0.467-21.684 0.748-21.684 1.097 0 0.194-1.363 0.353-3.029 0.353-2.091 0-3.205 0.177-3.6 0.571-0.69 0.691-0.848 13.211-0.171 13.629 0.233 0.144 0.4 2.396 0.4 5.4s0.167 5.256 0.4 5.4c0.234 0.145 0.4 2.463 0.4 5.6s0.166 5.455 0.4 5.6c0.236 0.146 0.4 2.537 0.4 5.824 0 3.451 0.152 5.576 0.4 5.576 0.22 0 0.4 0.18 0.4 0.4 0 0.257-3.8 0.4-10.6 0.4h-10.6v-1.2c0-0.66-0.18-1.2-0.4-1.2s-0.4-0.795-0.4-1.767c0-1.051-0.203-1.839-0.5-1.946-0.351-0.126-0.262-0.405 0.3-0.937 1.618-1.534 2.669-6.15 1.4-6.15-0.22 0-0.4-0.36-0.4-0.8s-0.18-0.8-0.4-0.8-0.4-0.36-0.4-0.8-0.18-0.8-0.4-0.8-0.4-0.72-0.4-1.6-0.18-1.6-0.4-1.6-0.4-0.99-0.4-2.2-0.18-2.2-0.4-2.2-0.4-0.709-0.4-1.576-0.18-1.688-0.4-1.824-0.4-0.946-0.4-1.8-0.18-1.664-0.4-1.8-0.4-0.946-0.4-1.8-0.18-1.664-0.4-1.8-0.4-0.957-0.4-1.824-0.18-1.576-0.4-1.576-0.4-0.72-0.4-1.6-0.18-1.6-0.4-1.6-0.408-0.765-0.417-1.7c-0.01-0.935-0.201-2.51-0.425-3.5s-0.498-2.34-0.61-3c-0.111-0.66-0.394-1.593-0.629-2.074-0.234-0.48-0.329-1.245-0.21-1.699 0.119-0.455 0.032-0.94-0.193-1.079-0.24-0.148 0.017-0.684 0.624-1.3 2.728-2.768 3.86-4.051 3.86-4.375 0-0.195 0.54-0.919 1.2-1.61s1.2-1.527 1.2-1.859 0.18-0.604 0.4-0.604 0.4-0.278 0.4-0.617 0.36-1.003 0.8-1.475 0.8-1.174 0.8-1.56c0-0.385 0.18-0.812 0.4-0.948s0.4-0.597 0.4-1.024 0.18-0.776 0.4-0.776 0.4-0.272 0.4-0.605 0.18-0.963 0.4-1.4 0.58-1.153 0.8-1.59 0.4-1.337 0.4-2 0.18-1.205 0.4-1.205 0.4-0.72 0.4-1.6 0.18-1.6 0.4-1.6 0.4-0.54 0.4-1.2c0-1.178 0.513-1.588 1-0.8 0.136 0.22 0.687 0.4 1.224 0.4s0.976 0.18 0.976 0.4 0.36 0.4 0.8 0.4 0.8 0.18 0.8 0.4 0.45 0.4 1 0.4 1 0.18 1 0.4 0.54 0.4 1.2 0.4 1.2 0.18 1.2 0.4 0.439 0.4 0.976 0.4 1.088 0.18 1.224 0.4 0.946 0.4 1.8 0.4 1.664 0.18 1.8 0.4 1.216 0.4 2.4 0.4 2.264 0.18 2.4 0.4c0.314 0.508 13.893 0.541 14.42 0.035 0.209-0.2 1.37-0.462 2.58-0.582 3.706-0.366 5.595-0.721 5.826-1.095 0.122-0.197 0.751-0.358 1.398-0.358s1.176-0.18 1.176-0.4 0.54-0.4 1.2-0.4 1.2-0.18 1.2-0.4 0.272-0.4 0.605-0.4 0.918-0.168 1.3-0.374c0.382-0.205 1.28-0.609 1.995-0.897 0.715-0.289 1.3-0.66 1.3-0.827 0-0.166 0.36-0.302 0.8-0.302s0.8-0.18 0.8-0.4 0.36-0.4 0.8-0.4 0.8-0.15 0.8-0.332c0-0.183 0.495-0.588 1.1-0.9 0.605-0.313 1.449-0.883 1.875-1.268 0.427-0.385 0.984-0.7 1.239-0.7s0.879-0.36 1.386-0.8 1.058-0.8 1.224-0.8c0.593 0 10.376-10.114 10.376-10.726 0-0.196 0.54-0.92 1.2-1.611s1.2-1.488 1.2-1.771 0.36-0.775 0.8-1.092 0.8-0.807 0.8-1.088c0-0.282 0.18-0.512 0.4-0.512s0.4-0.36 0.4-0.8 0.18-0.8 0.4-0.8 0.4-0.36 0.4-0.8 0.135-0.801 0.3-0.803c0.359-4e-3 1.3-1.941 1.3-2.677 0-0.286 0.18-0.52 0.4-0.52s0.4-0.36 0.4-0.8 0.18-0.8 0.4-0.8 0.4-0.42 0.4-0.933c0-0.514 0.122-1.056 0.271-1.205 0.489-0.489 2.108-5.638 2.119-6.738 5e-3 -0.592 0.171-1.176 0.368-1.298 0.616-0.381 1.73-9.781 1.756-14.826 0.021-4.113-1.006-12.772-1.709-14.4-0.362-0.839-0.717-2.321-1.077-4.5-0.119-0.715-0.376-1.3-0.572-1.3s-0.356-0.54-0.356-1.2-0.18-1.2-0.4-1.2-0.4-0.36-0.4-0.8-0.18-0.8-0.4-0.8-0.4-0.439-0.4-0.976-0.18-1.088-0.4-1.224-0.4-0.597-0.4-1.024-0.146-0.776-0.325-0.776-0.573-0.63-0.875-1.4-0.696-1.4-0.875-1.4-0.325-0.32-0.325-0.712c0-0.391-0.36-0.971-0.8-1.288s-0.8-0.857-0.8-1.2-0.36-0.883-0.8-1.2-0.8-0.809-0.8-1.092-0.54-1.08-1.2-1.771-1.2-1.417-1.2-1.613c0-0.813-7.773-8.661-9.432-9.524-0.635-0.33-1.679-1.095-2.32-1.7-0.642-0.605-1.327-1.1-1.524-1.1s-0.744-0.36-1.216-0.8-1.095-0.8-1.383-0.8c-0.289 0-0.525-0.18-0.525-0.4s-0.36-0.4-0.8-0.4-0.8-0.18-0.8-0.4-0.27-0.4-0.6-0.4-0.6-0.18-0.6-0.4-0.36-0.4-0.8-0.4-0.8-0.18-0.8-0.4-0.36-0.4-0.8-0.4-0.8-0.18-0.8-0.4-0.439-0.4-0.976-0.4-1.088-0.18-1.224-0.4-0.597-0.4-1.024-0.4-0.776-0.18-0.776-0.4-0.54-0.4-1.2-0.4-1.2-0.18-1.2-0.4-0.619-0.4-1.376-0.4-1.488-0.18-1.624-0.4-1.137-0.4-2.224-0.4-1.976-0.165-1.976-0.367c0-0.863-12.634-1.215-17.4-0.486-1.54 0.236-3.61 0.543-4.6 0.682s-1.971 0.415-2.18 0.612-0.974 0.359-1.7 0.359-1.32 0.18-1.32 0.4-0.54 0.4-1.2 0.4-1.2 0.18-1.2 0.4-0.45 0.4-1 0.4-1 0.18-1 0.4-0.254 0.4-0.566 0.4c-0.689 0-5.581 2.448-5.767 2.886-0.074 0.173-0.479 0.314-0.9 0.314-0.422 0-0.767 0.18-0.767 0.4s-0.32 0.4-0.712 0.4c-0.391 0-0.971 0.36-1.288 0.8s-0.78 0.8-1.029 0.8-1.017 0.54-1.708 1.2-1.355 1.2-1.476 1.2c-0.546 0-9.387 8.596-9.387 9.127 0 0.195-0.495 0.879-1.1 1.521-0.605 0.641-1.355 1.658-1.668 2.259-0.312 0.601-0.717 1.093-0.9 1.093-0.182 0-0.332 0.283-0.332 0.629 0 1.906-1.173 1.884-3.007-0.058-0.986-1.044-1.793-2.056-1.793-2.248s-0.585-0.953-1.3-1.689c-0.715-0.737-2.11-2.195-3.1-3.241-0.99-1.045-2.425-2.372-3.189-2.947s-2.017-1.631-2.784-2.346c-0.766-0.715-1.65-1.3-1.963-1.3-0.314 0-0.861-0.316-1.217-0.703-0.356-0.386-1.142-0.957-1.747-1.267-0.605-0.311-1.1-0.715-1.1-0.898 0-0.182-0.294-0.332-0.653-0.332s-0.946-0.315-1.304-0.7c-0.839-0.901-2.266-1.7-3.038-1.7-0.333 0-0.605-0.18-0.605-0.4s-0.36-0.4-0.8-0.4-0.8-0.18-0.8-0.4-0.45-0.4-1-0.4-1-0.18-1-0.4-0.439-0.4-0.976-0.4-1.088-0.18-1.224-0.4-0.766-0.4-1.4-0.4-1.264-0.18-1.4-0.4-0.946-0.4-1.8-0.4-1.664-0.18-1.8-0.4c-0.145-0.234-2.463-0.4-5.6-0.4s-5.455 0.166-5.6 0.4c-0.136 0.22-0.936 0.4-1.777 0.4-1.744 0-2.008-0.481-2.018-3.676-3e-3 -1.032-0.185-1.988-0.405-2.124s-0.4-0.597-0.4-1.024-0.18-0.776-0.4-0.776-0.4-0.444-0.4-0.986c0-1.122-1.182-3.814-1.674-3.814-0.179 0-0.326-0.225-0.327-0.5 0-0.275-0.54-1.13-1.199-1.9s-1.199-1.549-1.199-1.731c-1e-3 -0.45-5.2-5.469-5.666-5.469-0.204 0-0.821-0.45-1.371-1s-1.312-1-1.694-1c-0.381 0-0.953-0.36-1.27-0.8s-0.897-0.8-1.288-0.8c-0.392 0-0.712-0.18-0.712-0.4s-0.45-0.4-1-0.4-1-0.18-1-0.4-0.439-0.4-0.976-0.4-1.088-0.18-1.224-0.4c-0.352-0.57-8.213-0.464-9.2 0.124m8.105 2.606c6.198 2.944 7.208 3.611 10.78 7.117 2.043 2.006 3.715 3.817 3.715 4.025 0 0.207 0.342 0.744 0.759 1.192 2.216 2.379 4.105 7.582 4.117 11.34 0.016 4.968 3.222 6.446 8.548 3.943 1.907-0.897 3.519-0.889 8.976 0.042 3.855 0.657 4.805 0.895 5.029 1.257 0.12 0.195 0.57 0.354 1 0.354s1.094 0.161 1.476 0.358 1.955 0.955 3.495 1.686c2.485 1.178 10.479 6.051 11 6.705 0.11 0.138 1.37 1.241 2.8 2.451 4.509 3.817 7.235 6.763 13.199 14.267 0.204 0.257 1.638 2.417 3.187 4.8s2.95 4.513 3.115 4.733c0.164 0.22 0.854 1.492 1.532 2.827 0.679 1.335 1.617 3.135 2.085 4 1.273 2.351 3.392 7.143 4.853 10.973 0.713 1.87 1.462 3.713 1.663 4.095s0.366 1.046 0.366 1.476 0.18 0.893 0.4 1.029 0.4 0.676 0.4 1.2 0.18 1.064 0.4 1.2 0.4 0.766 0.4 1.4 0.16 1.252 0.356 1.373c0.195 0.121 0.457 0.806 0.581 1.523s0.336 1.934 0.471 2.704c0.136 0.77 0.403 1.76 0.594 2.2 0.192 0.44 0.456 1.52 0.586 2.4 0.131 0.88 0.419 2.68 0.639 4 1.733 10.39 1.741 22.922 0.019 31.6-0.703 3.547-0.9 4.385-1.221 5.2-0.173 0.44-0.531 1.52-0.796 2.4-0.619 2.054-0.851 2.618-2.476 6-4.035 8.396-12.558 16.861-11.781 11.7 0.141-0.935 0.429-3.005 0.642-4.6 0.212-1.595 0.563-4.205 0.779-5.8 0.217-1.595 0.577-4.295 0.8-6 0.224-1.705 0.591-4.495 0.816-6.2 0.226-1.705 0.514-4.796 0.641-6.869 0.196-3.191 0.362-3.874 1.078-4.454 2.408-1.95 2.025-1.977-27.977-1.977h-27.751v-1.376c0-0.757-0.18-1.488-0.4-1.624s-0.4-0.689-0.4-1.229-0.164-1.294-0.365-1.676-0.835-1.71-1.408-2.952c-3.346-7.239-11.655-9.173-17.803-4.143-2.821 2.309-6.804 8.063-6.819 9.851-3e-3 0.358-0.273 0.874-0.601 1.146-0.377 0.313-0.508 0.845-0.357 1.449 0.227 0.903 0.137 0.956-1.704 0.997-1.068 0.024-12.203 0.196-24.743 0.382s-23.272 0.345-23.849 0.354c-1.512 0.023-2.08 0.882-1.647 2.494 0.196 0.73 0.403 4.835 0.461 9.122 0.058 4.288 0.219 7.978 0.357 8.2 0.138 0.223 0.398 3.645 0.577 7.605 0.18 3.96 0.425 8.595 0.546 10.3 0.155 2.198 0.084 3.1-0.242 3.1-1.03 0-4.098-2.195-6.121-4.381-3.23-3.489-6.495-10.918-7.541-17.161-0.208-1.242-0.551-3.248-0.762-4.458-1.096-6.27-1.288-9.128-1.318-19.6-0.03-10.793 0.094-12.666 1.336-20.2 0.644-3.906 1.019-5.712 2.372-11.4 3.095-13.019 4.168-15.704 9.233-23.096 4.344-6.341 4.916-7.108 6.571-8.812 0.785-0.808 1.427-1.622 1.427-1.81 0-0.187 1.407-1.812 3.127-3.611 1.721-1.799 3.296-3.541 3.5-3.871 0.205-0.33 1.543-1.585 2.973-2.79 1.43-1.204 2.69-2.285 2.8-2.402s1.068-0.842 2.129-1.611c1.06-0.768 3.28-2.477 4.932-3.797 3.875-3.096 5.484-4.234 7.939-5.611 1.1-0.617 3.26-1.836 4.8-2.709 1.91-1.082 3.226-1.564 4.14-1.518 2.438 0.124 3.259-1.397 3.26-6.038 0-2.154-0.178-3.987-0.4-4.124-0.22-0.136-0.4-0.615-0.4-1.066 0-0.45-0.534-1.609-1.186-2.576l-1.187-1.758 3.287 1e-3c3.209 2e-3 5.483 0.753 6.336 2.092 0.394 0.618 1.881-0.046 2.175-0.971 0.366-1.155-0.503-4.066-2.368-7.922-1.966-4.067-2.723-5.185-4.738-6.997l-2.006-1.803h2.049c1.127 0 2.361 0.148 2.743 0.33m134.5 26.614c1.905 0.273 4.393 0.903 5.919 1.498 0.505 0.197 1.273 0.358 1.705 0.358 0.433 0 1.099 0.159 1.481 0.353 0.382 0.195 1.145 0.531 1.695 0.747 7.338 2.886 14.029 7.333 20.01 13.3 3.597 3.588 8.37 9.661 8.399 10.686 5e-3 0.173 0.361 0.764 0.791 1.314s0.786 1.315 0.791 1.7 0.145 0.7 0.311 0.7c0.298 0 0.694 0.833 1.711 3.6 0.284 0.77 0.666 1.571 0.851 1.78s0.336 0.783 0.336 1.276 0.16 0.996 0.356 1.117c0.195 0.121 0.456 0.806 0.578 1.523s0.422 2.204 0.667 3.304c1.385 6.217 1.739 14.62 0.859 20.4-0.268 1.76-0.59 3.92-0.715 4.8s-0.389 1.771-0.586 1.98-0.359 0.873-0.359 1.476-0.18 1.208-0.4 1.344-0.4 0.651-0.4 1.144-0.143 1.067-0.318 1.276-0.558 1.1-0.85 1.98c-2.747 8.273-10.504 18.722-18.07 24.342-1.409 1.046-2.839 2.118-3.177 2.38-1.959 1.521-8.941 4.938-12.385 6.061-1.21 0.395-2.613 0.875-3.119 1.067-0.505 0.193-1.414 0.35-2.02 0.35-0.605 0-1.272 0.16-1.481 0.357-1.382 1.296-16.416 1.313-21.48 0.025-5.605-1.427-7.914-2.169-11.1-3.569-1.43-0.628-2.915-1.243-3.3-1.365-0.59-0.188-0.7-0.726-0.7-3.412 0-3.718 0.157-3.893 2.692-3.003 6.031 2.118 13.114 2.779 19.508 1.822 4.913-0.736 5.8-0.935 5.8-1.299 0-0.196 0.54-0.356 1.2-0.356s1.2-0.18 1.2-0.4 0.335-0.4 0.745-0.4c0.88 0 5.703-2.446 8.96-4.545 2.535-1.634 10.695-9.613 10.695-10.458 0-0.292 0.135-0.59 0.3-0.664 0.699-0.311 4.9-8.084 4.9-9.067 0-0.189 0.294-0.932 0.653-1.651 0.691-1.386 1.102-2.838 1.816-6.415 0.617-3.093 0.883-14.408 0.351-14.94-0.231-0.231-0.42-1.074-0.42-1.874 0-7.091-8.76-20.984-16.489-26.152-2.483-1.66-8.34-4.634-9.126-4.634-0.406 0-0.836-0.159-0.956-0.354-0.121-0.195-0.716-0.456-1.324-0.582-0.608-0.125-2.005-0.442-3.105-0.704-2.673-0.635-14.984-0.936-15.541-0.379-0.23 0.23-1.015 0.419-1.744 0.419s-1.638 0.158-2.02 0.351-1.415 0.577-2.295 0.853c-1.815 0.57-7.475 3.267-9.036 4.306-3.497 2.328-4.399 3.051-6.551 5.25-1.314 1.342-2.562 2.44-2.775 2.44-0.525 0-2.238 1.641-2.238 2.144 0 0.497-1.614 2.256-2.07 2.256-0.181 0-0.33-0.27-0.33-0.6s-0.158-0.6-0.351-0.6c-0.194 0-0.576-0.54-0.849-1.2s-0.655-1.2-0.849-1.2c-0.193 0-0.351-0.242-0.351-0.538s-0.36-0.864-0.8-1.262-0.8-0.909-0.8-1.136-0.381-0.817-0.846-1.312l-0.845-0.901 0.845-1.187c0.465-0.653 0.846-1.294 0.846-1.424 0-3.207 14.141-15.841 21.6-19.298 1.21-0.56 2.892-1.362 3.738-1.781 0.846-0.418 1.87-0.761 2.276-0.761s0.85-0.18 0.986-0.4 0.676-0.4 1.2-0.4 1.052-0.16 1.173-0.356c0.227-0.367 1.048-0.55 5.353-1.188 1.39-0.206 2.642-0.491 2.784-0.632 0.309-0.31 13.537-0.047 16.09 0.32m-218.4 10.671c0.55 0.161 2.26 0.521 3.8 0.8s3.07 0.638 3.4 0.797c0.33 0.16 1.32 0.514 2.2 0.787 5.072 1.577 12.117 6.027 16.89 10.669 3.145 3.06 8.657 9.947 8.426 10.529-0.064 0.161-0.524 0.813-1.023 1.448-2.056 2.617-4.731 6.455-5.543 7.955-1.198 2.213-1.731 2.167-4.379-0.376-2.22-2.134-7.744-6.214-8.436-6.233-0.184-5e-3 -0.785-0.361-1.335-0.791s-1.394-0.786-1.876-0.791-0.988-0.189-1.124-0.409-0.676-0.4-1.2-0.4-1.064-0.18-1.2-0.4-0.676-0.4-1.2-0.4-1.05-0.157-1.169-0.35c-0.119-0.192-1.21-0.462-2.424-0.6-1.214-0.137-3.225-0.365-4.47-0.505-2.326-0.262-8.595 0.431-9.832 1.087-0.382 0.202-1.136 0.368-1.676 0.368s-1.093 0.18-1.229 0.4-0.599 0.4-1.029 0.4-1.139 0.18-1.576 0.4-1.153 0.58-1.59 0.8-1.067 0.4-1.4 0.4-0.605 0.18-0.605 0.4-0.188 0.4-0.418 0.4c-1.628 0-13.982 10.549-13.982 11.939 0 0.185-0.443 0.852-0.984 1.482-0.865 1.006-3.784 6.565-4.61 8.779-0.165 0.44-0.489 1.25-0.722 1.8s-0.509 1.45-0.614 2-0.459 1.99-0.787 3.2c-1.648 6.078-0.97 17.976 1.363 23.9 0.195 0.495 0.511 1.305 0.703 1.8 0.814 2.098 2.3 4.955 2.95 5.675 0.386 0.427 0.701 1.012 0.701 1.3 0 0.289 0.18 0.525 0.4 0.525s0.404 0.225 0.408 0.5c9e-3 0.534 3.673 4.829 5.992 7.025 2.823 2.674 10.697 7.275 12.447 7.275 0.388 0 0.804 0.159 0.924 0.354 0.695 1.123 12.016 2.385 15.266 1.701 1.19-0.25 3.198-0.664 4.463-0.919 1.265-0.256 2.471-0.616 2.68-0.8 0.209-0.185 0.676-0.336 1.039-0.336 0.362 0 1.181-0.25 1.82-0.556 0.638-0.306 1.881-0.88 2.761-1.275s2.026-1.042 2.547-1.438c1.375-1.046 1.653-0.618 1.653 2.546 0 1.557 0.218 3.558 0.485 4.448 0.38 1.268 0.38 1.653 0 1.78-0.267 0.089-0.485 0.399-0.485 0.689s-0.675 0.905-1.5 1.367c-2.621 1.466-9.654 4.839-10.09 4.839-0.232 0-0.733 0.162-1.115 0.361s-1.505 0.571-2.495 0.827-2.353 0.634-3.028 0.839c-0.676 0.205-1.855 0.373-2.62 0.373-0.766 0-1.585 0.193-1.82 0.428-0.548 0.548-12.246 0.24-15.332-0.403-1.21-0.252-2.787-0.561-3.504-0.686s-1.402-0.388-1.523-0.583c-0.121-0.196-0.624-0.356-1.117-0.356s-1.067-0.144-1.276-0.32-1.46-0.748-2.78-1.27-3.071-1.368-3.892-1.88c-0.821-0.511-1.648-0.93-1.838-0.93s-0.672-0.36-1.07-0.8-0.89-0.8-1.094-0.8c-1.279 0-11.906-10.627-11.906-11.906 0-0.204-0.36-0.696-0.8-1.094s-0.8-0.907-0.8-1.13c0-0.224-0.254-0.691-0.565-1.039-2.354-2.63-6.361-12.78-7.435-18.831-0.254-1.43-0.641-3.5-0.859-4.6-1.035-5.209-0.025-19.834 1.85-26.8 0.593-2.2 1.181-4.445 1.307-4.99 0.233-1.003 6.458-13.641 6.9-14.01 0.132-0.11 0.676-0.83 1.208-1.6s1.192-1.632 1.467-1.915c0.274-0.283 0.796-1.017 1.159-1.631 0.979-1.657 7.982-8.428 10.968-10.604 1.43-1.042 2.874-2.11 3.21-2.372 1.445-1.133 7.94-4.366 10.99-5.472 1.32-0.478 2.713-1.036 3.095-1.238s1.316-0.368 2.076-0.368 1.493-0.18 1.629-0.4 1.002-0.418 1.924-0.44 2.126-0.189 2.676-0.372c1.212-0.403 10.201-0.382 11.6 0.027m207.6 9.201c1.87 0.253 3.76 0.598 4.2 0.767 0.44 0.168 1.52 0.529 2.4 0.801 8.883 2.745 18.461 11.139 22.157 19.416 0.295 0.66 0.695 1.513 0.89 1.895 0.194 0.382 0.353 0.967 0.353 1.3s0.18 0.605 0.4 0.605 0.4 0.619 0.4 1.376 0.18 1.488 0.4 1.624 0.4 0.651 0.4 1.144 0.207 1.103 0.459 1.355c0.626 0.626 0.611 15.591-0.016 16.218-0.243 0.243-0.443 1.116-0.443 1.939s-0.18 1.608-0.4 1.744-0.4 0.687-0.4 1.224-0.18 0.976-0.4 0.976-0.4 0.362-0.4 0.805-0.165 1.118-0.366 1.5c-0.202 0.382-0.654 1.325-1.004 2.095-8.165 17.93-29.926 27.576-48.028 21.29l-3.198-1.111-0.659-7.189c-0.656-7.149-0.978-9.473-2.163-15.59-0.341-1.76-0.721-3.787-0.845-4.504s-0.386-1.402-0.581-1.523c-0.196-0.121-0.356-0.602-0.356-1.068 0-0.901-0.665-3.244-1.249-4.4-0.193-0.382-0.351-1.046-0.351-1.476s-0.18-0.893-0.4-1.029-0.4-0.599-0.4-1.029c0-0.755-0.144-1.145-1.138-3.066-0.254-0.492-0.462-1.257-0.462-1.7s-0.18-0.805-0.4-0.805-0.4-0.272-0.4-0.605-0.208-1.008-0.462-1.5c-0.971-1.877-1.138-2.302-1.138-2.89 0-0.333-0.18-0.605-0.4-0.605s-0.4-0.252-0.4-0.559c0-0.308-0.566-1.613-1.258-2.9-3.644-6.777-3.523-6.384-2.148-7.011 0.546-0.249 1.22-0.965 1.497-1.591 0.277-0.627 0.64-1.139 0.807-1.139 0.166 0 0.302-0.246 0.302-0.546 0-0.619 4.13-5.054 4.706-5.054 0.206 0 0.94-0.54 1.631-1.2s1.36-1.2 1.487-1.2c0.128 0 0.984-0.508 1.904-1.128 2.048-1.382 6.802-3.672 7.623-3.672 0.331 0 0.701-0.16 0.822-0.356 0.219-0.354 0.53-0.425 5.398-1.228 1.414-0.233 2.617-0.467 2.673-0.52 0.364-0.341 6.119-0.263 8.956 0.12m-203.43 15.551c7.05 2.108 10.103 3.553 14.428 6.827 1.627 1.232 6.6 6.57 6.6 7.085 0 0.292-0.18 0.889-0.4 1.326s-0.58 1.153-0.8 1.59-0.4 1.146-0.4 1.576-0.18 0.893-0.4 1.029-0.4 0.676-0.4 1.2-0.18 1.064-0.4 1.2-0.4 0.766-0.4 1.4-0.18 1.264-0.4 1.4-0.4 0.856-0.4 1.6-0.18 1.464-0.4 1.6-0.4 0.766-0.4 1.4-0.18 1.264-0.4 1.4-0.4 0.867-0.4 1.624-0.162 1.376-0.36 1.376-0.457 0.765-0.576 1.7-0.419 2.69-0.665 3.9c-1.054 5.173-1.672 13.912-2.11 29.828-0.108 3.925-0.07 3.881-5.519 6.474-6.488 3.088-11.911 4.03-18.896 3.281-2.46-0.264-4.645-0.638-4.854-0.831-0.209-0.194-0.706-0.352-1.105-0.352s-1.038-0.174-1.42-0.388c-0.382-0.213-2.082-1.027-3.777-1.809-6.722-3.102-13.45-10.025-16.716-17.203-0.701-1.54-1.438-3.113-1.638-3.495s-0.364-1.046-0.364-1.476-0.18-0.893-0.4-1.029-0.4-0.856-0.4-1.6-0.155-1.449-0.346-1.566c-1.143-0.707-1.137-16.564 7e-3 -17.272 0.186-0.115 0.339-0.818 0.339-1.562s0.18-1.464 0.4-1.6 0.4-0.676 0.4-1.2 0.18-1.064 0.4-1.2 0.4-0.687 0.4-1.224 0.158-0.976 0.35-0.976 0.452-0.495 0.576-1.1c0.634-3.078 9.885-15.3 11.581-15.3 0.181 0 0.779-0.45 1.329-1s1.159-1 1.354-1c0.194 0 0.613-0.261 0.932-0.579 3.723-3.723 19.622-6.856 25.65-5.054m56.859 24.25c-1.303 0.541-2.667 1.254-3.031 1.583-0.365 0.33-0.836 0.6-1.048 0.6-0.963 0-5.212 5.292-6.424 8-4.736 10.586 1.32 22 11.672 22 5.047 0 13.666-5.138 15.475-9.225 0.286-0.646 0.656-1.175 0.823-1.175 0.166 0 0.302-0.272 0.302-0.605s0.158-0.918 0.351-1.3c1.206-2.388 1.818-10.096 0.849-10.695-0.22-0.136-0.4-0.58-0.4-0.986 0-6.457-11.031-11.326-18.569-8.197m63.25 2.189c-3.493 1.328-7.081 5.183-7.081 7.608 0 0.406-0.18 0.85-0.4 0.986-0.893 0.552-0.341 5.939 0.849 8.295 0.193 0.382 0.351 0.939 0.351 1.238 0 0.298 0.36 0.869 0.8 1.267s0.8 0.951 0.8 1.228c0 2.724 13.283 8.703 14.6 6.572 0.136-0.22 0.6-0.4 1.031-0.4 2.367 0 6.599-3.423 7.847-6.347 0.341-0.799 0.778-1.766 0.971-2.148 0.483-0.956 0.444-6.2-0.049-6.505-0.22-0.136-0.4-0.563-0.4-0.949 0-6.843-12.051-13.608-19.319-10.845m-49.798 6.01c2.184 0.607 3.117 2.153 3.117 5.167 0 5.178-4.531 8.152-8.405 5.517-5.175-3.52-0.794-12.373 5.288-10.684m64.548 0.581c4.721 3.6 2.454 11.755-3.277 11.79-7.572 0.047-7.169-12.558 0.408-12.748 1.092-0.027 1.956 0.261 2.869 0.958m26.569 35.999c0 0.526-0.157 1.054-0.35 1.173-0.192 0.119-0.462 1.165-0.6 2.324s-0.417 3.187-0.62 4.507c-0.204 1.32-0.577 3.75-0.83 5.4s-0.612 3.99-0.799 5.2c-0.186 1.21-0.52 3.55-0.742 5.2s-0.608 4.17-0.857 5.6c-0.514 2.948-0.96 6.088-1.844 13-0.338 2.64-0.769 5.88-0.958 7.2s-0.548 3.84-0.798 5.6c-0.249 1.76-0.62 4.28-0.824 5.6s-0.557 3.66-0.786 5.2-0.587 3.88-0.796 5.2c-0.786 4.973-1.209 8.08-1.441 10.6-0.131 1.43-0.4 2.771-0.597 2.98s-0.358 1.388-0.358 2.62c0 5.102 4.931 4.629-54 5.179-22.77 0.212-44.037 0.496-47.261 0.631-7.474 0.313-7.539 0.282-7.539-3.683 0-1.584-0.18-2.991-0.4-3.127s-0.4-0.921-0.4-1.744-0.168-1.667-0.373-1.876-0.471-3.08-0.591-6.38c-0.208-5.704-0.517-10.363-1.408-21.2-1.029-12.526-2.026-25.115-3.191-40.302-0.216-2.806-0.482-5.247-0.592-5.425s-0.24-2.023-0.288-4.099c-0.049-2.075-0.223-4.255-0.386-4.844-0.164-0.588-0.239-1.128-0.167-1.2 0.072-0.071 29.306-0.166 64.964-0.211l64.832-0.08v0.957m0.94 39.304c0.213 1.857 0.65 4.67 1.476 9.5 0.226 1.32 0.577 3.39 0.781 4.6 0.203 1.21 0.552 3.28 0.774 4.6 2.297 13.608 2.384 12.004-0.582 10.732-4.244-1.82-6.452-2.532-7.851-2.532-1.609 0-1.581-0.914 0.458-15 0.191-1.32 0.542-3.75 0.78-5.4 0.995-6.919 0.952-6.769 2.224-7.578 1.671-1.063 1.697-1.049 1.94 1.078m-135.19 2.225c1.073 0.591 2.282 1.075 2.686 1.075 1.336 0 1.694 1.592 2.022 9 0.175 3.96 0.369 7.56 0.43 8 0.083 0.593-0.147 0.83-0.888 0.916-0.55 0.065-1.45 0.314-2 0.554-2.455 1.073-3.012 1.342-3.2 1.549-0.11 0.121-0.83 0.658-1.6 1.195-1.519 1.058-3.954 3.417-5.7 5.522-1.25 1.506-1.331 1.246-0.715-2.312 0.615-3.553 1.213-8.285 1.646-13.024 0.221-2.42 0.562-5.75 0.758-7.4s0.473-4.08 0.617-5.4c0.398-3.668 0.39-3.661 2.299-2.119 0.932 0.753 2.573 1.853 3.645 2.444m65.65-1.549c-4.11 1.937-6.275 5.787-5.358 9.53 2.602 10.622 16.758 9.888 16.758-0.869 0-6.829-5.853-11.275-11.4-8.661m4.453 2.846c3.857 0.768 5.491 6.568 2.666 9.461-3.737 3.827-9.732 1.12-9.706-4.383 0.022-4.695 1.957-6.091 7.04-5.078m130.37 5.898c-0.429 5.176-0.973 16.666-1.326 27.97-0.19 6.099-0.464 11.207-0.607 11.351-0.144 0.143-8e-3 0.868 0.302 1.61l0.564 1.349h-12.924-12.924l-0.289-2.5c-0.159-1.375-0.456-4.57-0.659-7.1-0.386-4.791-0.898-10.967-1.558-18.8-0.487-5.789-1.135-12.456-1.437-14.8l-0.232-1.8 15.664-0.08 15.664-0.081-0.238 2.881m4.574 11.08c0 0.22 0.36 0.4 0.8 0.4s0.8 0.136 0.8 0.302c0 0.167 0.576 0.557 1.279 0.869 1.535 0.679 4.721 3.774 4.721 4.585 0 0.318 0.194 0.642 0.432 0.721 2.161 0.721-0.832 7.523-3.31 7.523-0.397 0-0.722 0.18-0.722 0.4 0 0.222-1.067 0.4-2.4 0.4h-2.4v-7.8c0-4.933 0.147-7.8 0.4-7.8 0.22 0 0.4 0.18 0.4 0.4m-199.34 9.4c0.257 2.86 0.529 6.46 0.604 8l0.135 2.8-5.999 0.235c-3.299 0.129-6.656 0.371-7.459 0.537-5.424 1.122 2.178-12.349 9.06-16.055 2.98-1.605 3.128-1.424 3.659 4.483m124.76 1.319c0.209 0.176 1.368 0.66 2.577 1.075 1.927 0.663 5.604 2.857 7.683 4.585 0.574 0.477 1.639 3.99 1.55 5.115-0.013 0.168-2.86 0.438-6.327 0.599s-7.023 0.341-7.903 0.4l-1.6 0.107 0.039-2c0.041-2.129 0.772-7.801 1.198-9.3 0.262-0.921 1.957-1.275 2.783-0.581m-181.29 6.526c7.389 2.624 12.382 10.015 9.902 14.66-0.204 0.382-0.458 0.984-0.565 1.337-0.162 0.535-1.119 0.678-5.729 0.86-7.202 0.283-7.181 0.301-7.605-6.578-0.41-6.65-2.255-4.81-2.064 2.058l0.134 4.819h-2.526c-1.39-1e-3 -2.83-0.162-3.2-0.358-0.371-0.196-2.176-0.443-4.011-0.548-4.565-0.262-4.943-0.659-4.943-5.187 0-3.309 0.22-4.102 1.68-6.048 1.692-2.256 3.429-3.423 8-5.378 1.847-0.79 8.282-0.576 10.927 0.363m-29.327 5.984c0 0.573 0.215 0.788 0.695 0.696 1.043-0.201 1.159-1.525 0.134-1.525-0.572 0-0.829 0.257-0.829 0.829m88.066 1.271c0.272 0.495 0.615 2.031 0.764 3.413 0.159 1.485 0.55 2.823 0.955 3.27 1.909 2.11 1.376 2.217-10.99 2.217h-11.395l-0.9-1.785c-1.033-2.049-1.303-6.984-0.4-7.31 0.275-0.099 4.908-0.221 10.294-0.271 5.387-0.049 9.872-0.167 9.967-0.262 0.439-0.438 1.256-0.089 1.705 0.728m135.69 0.8c1.008 3.786 1.004 3.99-0.095 5.368l-1.063 1.332h-8.942-8.942l0.227-1.5c0.124-0.825 0.336-2.22 0.469-3.1s0.315-1.825 0.403-2.1c0.121-0.38 2.277-0.5 8.985-0.5 6.722 0 8.857 0.119 8.958 0.5m-232.08 3.32c-0.541 0.612-0.333 1.38 0.372 1.38 0.535 0 1.548-1.029 1.548-1.571 0-0.627-1.315-0.495-1.92 0.191m332.95 15.68c-0.165 0.165-9.33 0.426-20.367 0.58-11.037 0.153-29.427 0.462-40.867 0.686-11.44 0.223-30.79 0.588-43 0.811-12.21 0.222-27.06 0.507-33 0.632-5.94 0.126-23.94 0.424-40 0.663-37.24 0.553-61.825 0.975-88.2 1.512-24.262 0.495-54.676 1.039-88 1.575-12.87 0.206-23.895 0.39-24.5 0.408-0.948 0.028-1.1 0.199-1.1 1.233v1.2h8c4.933 0 8-0.15 8-0.39 0-0.25 9.125-0.395 25.284-0.404 16.144-9e-3 25.427-0.157 25.68-0.41 0.252-0.252 8.434-0.396 22.492-0.396 14.3 0 22.184-0.141 22.344-0.4 0.322-0.521 3-0.521 3 0 0 0.22 0.72 0.4 1.6 0.4s1.6-0.177 1.6-0.393c0-0.251 8.082-0.465 22.3-0.591 47.363-0.418 61.092-0.648 61.474-1.03 0.528-0.528 4.762-0.49 5.301 0.049 0.313 0.313 0.51 0.313 0.703 0 0.189-0.305 6.908-0.435 22.446-0.435 14.27 0 22.176-0.14 22.176-0.393 0-0.251 8.158-0.469 22.5-0.601 12.375-0.113 32.625-0.299 45-0.413 14.486-0.133 22.5-0.347 22.5-0.603 0-0.225 0.913-0.356 2.1-0.303 1.155 0.052 14.115 0.054 28.8 4e-3l26.7-0.091v-1.6-1.6h-10.333c-5.684 0-10.469 0.135-10.633 0.3m-28.359 80.358c-0.566 0.567-0.246 1.342 0.554 1.342 0.56 0 0.788-0.217 0.7-0.667-0.142-0.736-0.825-1.103-1.254-0.675" fill="#24241e"/>
<path d="m299.6 121.18c-2.131 0.386-6.269 1.493-7.4 1.979-2.65 1.141-5.01 2.355-6.472 3.33-0.92 0.614-1.776 1.116-1.904 1.116-0.127 0-0.796 0.54-1.487 1.2s-1.425 1.2-1.631 1.2c-0.601 0-4.706 4.377-4.706 5.018 0 0.32-0.18 0.582-0.4 0.582s-0.4 0.216-0.4 0.481c0 0.264-0.552 1.05-1.226 1.746l-1.226 1.265 2.026 3.897c1.114 2.143 2.026 4.147 2.026 4.454 0 0.306 0.18 0.557 0.4 0.557s0.4 0.253 0.4 0.562 0.386 1.344 0.857 2.3 1.032 2.188 1.246 2.738c0.215 0.55 0.549 1.313 0.744 1.695 0.194 0.382 0.353 1.046 0.353 1.476s0.18 0.893 0.4 1.029 0.4 0.687 0.4 1.224 0.18 0.976 0.4 0.976 0.4 0.439 0.4 0.976 0.18 1.088 0.4 1.224 0.4 0.766 0.4 1.4 0.18 1.264 0.4 1.4 0.4 0.766 0.4 1.4 0.16 1.252 0.356 1.373c0.195 0.121 0.456 0.806 0.578 1.523s0.412 2.159 0.644 3.204 0.612 2.755 0.844 3.8c0.634 2.856 1.536 10.529 1.833 15.6 0.326 5.568 0.044 5.32 8.145 7.148 8.322 1.878 23.158-1.023 27.919-5.459 0.466-0.434 1.041-0.789 1.278-0.789 0.236 0 1.047-0.617 1.801-1.372 0.755-0.754 1.604-1.519 1.887-1.7 0.881-0.561 6.104-6.669 6.688-7.821 0.305-0.602 0.886-1.449 1.291-1.884 0.405-0.434 0.736-1.067 0.736-1.406s0.18-0.617 0.4-0.617 0.4-0.36 0.4-0.8 0.18-0.8 0.4-0.8 0.4-0.36 0.4-0.8 0.18-0.8 0.4-0.8 0.4-0.54 0.4-1.2 0.18-1.2 0.4-1.2 0.4-0.54 0.4-1.2 0.18-1.2 0.4-1.2 0.4-0.799 0.4-1.776 0.18-1.888 0.4-2.024c0.993-0.614 0.219-16.353-0.865-17.58-0.184-0.209-0.335-0.974-0.335-1.7s-0.136-1.32-0.302-1.32c-0.167 0-0.542-0.585-0.835-1.3-0.741-1.811-2.211-4.86-2.458-5.1-0.114-0.11-0.461-0.695-0.773-1.3s-0.717-1.1-0.9-1.1c-0.182 0-0.332-0.194-0.332-0.432 0-0.468-3.882-5.165-4.704-5.69-0.277-0.177-0.907-0.724-1.4-1.215-1.929-1.921-8.475-5.863-9.737-5.863-0.307 0-0.559-0.18-0.559-0.4s-0.332-0.4-0.737-0.4c-0.406 0-1.801-0.367-3.1-0.817-2.637-0.911-12.425-1.413-15.763-0.808m-207.4 16c-4.394 1.115-8.586 2.945-10.363 4.525-0.434 0.385-0.936 0.7-1.116 0.7-0.181 0-0.893 0.54-1.584 1.2s-1.43 1.2-1.643 1.2c-0.431 0-2.981 2.648-4.622 4.8-0.587 0.77-1.16 1.49-1.273 1.6-1.052 1.021-4.799 7.768-4.799 8.641 0 0.307-0.18 0.559-0.4 0.559s-0.4 0.439-0.4 0.976-0.18 1.088-0.4 1.224-0.4 0.766-0.4 1.4-0.18 1.264-0.4 1.4-0.4 0.831-0.4 1.544-0.187 1.483-0.416 1.712c-0.561 0.561-0.571 13.601-0.011 15.073 0.235 0.618 0.427 1.641 0.427 2.273 0 0.633 0.18 1.262 0.4 1.398s0.4 0.676 0.4 1.2 0.18 1.064 0.4 1.2 0.4 0.572 0.4 0.968c0 0.887 2.859 6.51 4.211 8.282 0.544 0.713 0.989 1.414 0.989 1.557 0 0.5 7.736 7.793 8.266 7.793 0.294 0 0.535 0.135 0.537 0.3s0.407 0.487 0.9 0.717c0.493 0.229 1.617 0.791 2.497 1.25 5.795 3.019 8.037 3.535 15.2 3.5 7.217-0.035 16.13-2.62 19.25-5.583 0.531-0.504 0.88-5.568 1.195-17.384 0.127-4.73 0.393-8.771 0.593-8.98 0.199-0.209 0.362-1.593 0.362-3.076s0.18-2.808 0.4-2.944 0.4-1.036 0.4-2 0.18-1.864 0.4-2 0.4-0.856 0.4-1.6 0.18-1.464 0.4-1.6 0.4-0.856 0.4-1.6 0.18-1.464 0.4-1.6 0.4-0.766 0.4-1.4 0.18-1.264 0.4-1.4 0.4-0.867 0.4-1.624 0.18-1.376 0.4-1.376 0.4-0.529 0.4-1.176 0.18-1.288 0.4-1.424 0.4-0.777 0.4-1.424 0.18-1.176 0.4-1.176 0.4-0.362 0.4-0.805 0.18-1.163 0.4-1.6 0.593-1.174 0.83-1.637c0.347-0.681 0.27-1.013-0.4-1.726-0.457-0.486-0.83-1.097-0.83-1.358s-0.183-0.474-0.407-0.474c-0.223 0-1.179-0.765-2.124-1.7-3.528-3.492-4.765-4.324-9.869-6.638-5.301-2.404-15.78-3.214-21.8-1.687m145.14 31.78c-5.089 2.828-3.983 11.445 1.469 11.445 1.962 0 4.788-1.982 4.788-3.358 0-0.327 0.18-0.706 0.4-0.842 0.545-0.337 0.506-2.807-0.062-3.905-0.254-0.492-0.586-1.165-0.738-1.495-0.846-1.844-4.046-2.852-5.857-1.845m-63.143 0.229c-3.91 1.628-4.565 7.972-1.013 9.809 4.409 2.28 9.183-3.958 6.453-8.434-0.933-1.53-3.505-2.181-5.44-1.375m25.078 80.135c-2.026 2.091-1.89 5.269 0.322 7.481 3.361 3.361 8.8 1.476 8.8-3.049 0-4.743-5.996-7.657-9.122-4.432" fill="#fbfbfb"/>
<path d="m304.17 252.8c0.302 2.344 0.95 9.011 1.437 14.8 0.66 7.833 1.172 14.009 1.558 18.8 0.203 2.53 0.5 5.725 0.659 7.1l0.289 2.5h12.924 12.924l-0.564-1.349c-0.31-0.742-0.446-1.467-0.302-1.61 0.143-0.144 0.417-5.252 0.607-11.351 0.353-11.304 0.897-22.794 1.326-27.97l0.238-2.881-15.664 0.081-15.664 0.08 0.232 1.8m64.632 45.221c-5.17 0.15-27.04 0.301-48.6 0.336s-44.045 0.236-49.967 0.446l-10.768 0.383-1.18 1.207c-0.649 0.664-1.299 1.207-1.443 1.207-0.622 0-2.042-1.297-2.042-1.864 0-1.016-106.48-0.118-107.5 0.906-0.745 0.745-1.579 0.705-2.027-0.096-0.334-0.596-1.985-0.631-18.72-0.399-53.765 0.745-60.584 0.772-61.565 0.247-0.744-0.398-2.469-0.441-7.674-0.191-9.689 0.464-11.988 0.532-19.015 0.566-5.426 0.027-6.3 0.117-6.3 0.655 0 0.343-0.18 0.512-0.4 0.376s-0.4-0.057-0.4 0.176 0.27 0.424 0.6 0.424 0.6-0.27 0.6-0.6c0-0.508 0.966-0.6 6.3-0.598 3.465 2e-3 8.73-0.118 11.7-0.265s7.47-0.229 10-0.183c13.307 0.245 48.533 0.173 65.288-0.133 17.243-0.315 19.112-0.287 19.331 0.284 0.392 1.023 1.438 1.179 2.343 0.35 0.928-0.85 4.26-0.915 76.738-1.51 27.959-0.229 30.3-0.198 30.3 0.41 0 0.362 0.648 0.967 1.44 1.345l1.441 0.687 1.025-1.194c1.369-1.593 3.147-1.674 43.494-1.965 70.287-0.509 97.73-0.864 98.167-1.272 0.242-0.227-20.205-0.053-31.167 0.265m-350.2 3.202c-0.88 0.182-4.84 0.344-8.8 0.36s-7.408 0.161-7.663 0.323c-0.615 0.39 14.14 0.159 17.463-0.274 1.43-0.186 2.78-0.2 3-0.031s2.29 0.078 4.6-0.202c3.968-0.481 4.057-0.511 1.6-0.545-1.43-0.019-3.276 0.122-4.102 0.314-0.875 0.203-1.595 0.199-1.724-0.01-0.262-0.424-2.144-0.396-4.374 0.065m358.43 7.477c-0.165 0.165-9.15 0.419-19.967 0.565-40.223 0.542-64.672 1.007-64.901 1.235-0.285 0.285 39.29-0.035 41.834-0.338 0.99-0.118 11.52-0.398 23.4-0.621 11.88-0.224 26.37-0.533 32.2-0.687l10.6-0.28-11.433-0.087c-6.289-0.048-11.568 0.048-11.733 0.213m-126.23 2.483c-1.43 0.135 6.67 0.179 18 0.098s20.78-0.208 21-0.283c0.718-0.242-36.327-0.067-39 0.185m-42.2 0.785c-0.88 0.14 7.13 0.194 17.8 0.12 10.67-0.075 19.67-0.194 20-0.265 1.156-0.251-36.216-0.107-37.8 0.145m-46 0.832c-4.732 0.375 5.324 0.39 13 0.02l5.8-0.28-7.8 3e-3c-4.29 2e-3 -9.24 0.118-11 0.257m-40.8 0.8-4.8 0.239 6 0.032c3.3 0.017 7.89-0.097 10.2-0.253l4.2-0.284-5.4 0.014c-2.97 7e-3 -7.56 0.121-10.2 0.252m-52.2 0.8-14.6 0.215 15.8 0.044c8.69 0.024 18.32-0.083 21.4-0.238l5.6-0.282-6.8 0.023c-3.74 0.013-13.37 0.12-21.4 0.238m-41.2 0.8-13.8 0.216 14.4 0.039c7.92 0.022 16.47-0.085 19-0.238l4.6-0.279-5.2 0.023c-2.86 0.013-11.41 0.12-19 0.239m-26.3 0.696c1.265 0.079 3.335 0.079 4.6 0 1.265-0.08 0.23-0.145-2.3-0.145s-3.565 0.065-2.3 0.145" fill="#db6b5c"/>
<path d="m372.2 298.47c-4.18 0.147-28.93 0.38-55 0.519-56.303 0.298-57.461 0.338-58.894 2.006l-1.025 1.194-1.441-0.687c-0.792-0.378-1.44-0.983-1.44-1.345 0-0.608-2.341-0.639-30.3-0.41-72.478 0.595-75.81 0.66-76.738 1.51-0.905 0.829-1.951 0.673-2.343-0.35-0.219-0.571-2.088-0.599-19.331-0.284-16.755 0.306-51.981 0.378-65.288 0.133-2.53-0.046-7.03 0.036-10 0.183s-8.235 0.267-11.7 0.265c-5.334-2e-3 -6.3 0.09-6.3 0.598 0 0.33-0.27 0.6-0.6 0.6s-0.6-0.27-0.6-0.6c0-0.71-1.685-0.774-5.582-0.211-1.42 0.205-2.77 0.224-3 0.042-0.23-0.183-1.408-0.187-2.618-0.011-1.21 0.177-5.26 0.336-9 0.354s-7.745 0.146-8.9 0.285l-2.1 0.252v6.586 6.586l15.9-0.247c8.745-0.136 23.82-0.433 33.5-0.66s30.74-0.609 46.8-0.849c16.06-0.241 37.48-0.591 47.6-0.778 10.12-0.188 29.02-0.529 42-0.759 60.834-1.077 104.52-1.885 130.6-2.416 20.857-0.425 49.975-0.989 71.7-1.389l11.9-0.219v-5.226-5.227l-10.1 0.144c-5.555 0.078-13.52 0.263-17.7 0.411" fill="#f2b476"/>
</g>
</svg>
